<svg width="32" height="32" viewBox="0 0 32 32" xmlns="http://www.w3.org/2000/svg" xmlns:xlink="http://www.w3.org/1999/xlink"><title>Oval 6</title><desc>Created with Sketch.</desc><defs><linearGradient x1="50%" y1="0%" x2="50%" y2="100%" id="c"><stop stop-opacity="0" offset="0%"/><stop offset="100%"/></linearGradient><linearGradient x1="50%" y1="0%" x2="50%" y2="100%" id="d"><stop stop-color="#fff" offset="0%"/><stop stop-color="#fff" stop-opacity="0" offset="100%"/></linearGradient><filter x="-50%" y="-50%" width="200%" height="200%" filterUnits="objectBoundingBox" id="a"><feOffset dy="1" in="SourceAlpha" result="shadowOffsetOuter1"/><feGaussianBlur stdDeviation=".5" in="shadowOffsetOuter1" result="shadowBlurOuter1"/><feColorMatrix values="0 0 0 0 0 0 0 0 0 0 0 0 0 0 0 0 0 0 0.168 0" in="shadowBlurOuter1" result="shadowMatrixOuter1"/><feOffset dy="1" in="SourceAlpha" result="shadowOffsetOuter2"/><feGaussianBlur stdDeviation=".75" in="shadowOffsetOuter2" result="shadowBlurOuter2"/><feColorMatrix values="0 0 0 0 0 0 0 0 0 0 0 0 0 0 0 0 0 0 0.084 0" in="shadowBlurOuter2" result="shadowMatrixOuter2"/><feMerge><feMergeNode in="shadowMatrixOuter1"/><feMergeNode in="shadowMatrixOuter2"/><feMergeNode in="SourceGraphic"/></feMerge></filter><circle id="b" cx="16" cy="16" r="8"/></defs><g fill="none" fill-rule="evenodd"><g><g><g><g filter="url(#a)" transform="translate(0 0)"><use stroke-opacity=".02" stroke="#231F20" stroke-width=".5" fill="#fff" xlink:href="#b"/><use stroke="url(#c)" stroke-width=".5" xlink:href="#b"/><use stroke="url(#d)" stroke-width=".5" xlink:href="#b"/><use xlink:href="#b"/></g><path d="M16 16.355l-3.467 3.467-.178.178-.355-.355.178-.178L15.645 16l-3.467-3.467-.178-.178.355-.355.178.178L16 15.645l3.467-3.467.178-.178.355.355-.178.178L16.355 16l3.467 3.467.178.178-.355.355-.178-.178L16 16.355z" fill="#1F1F23"/></g></g></g></g></svg>