<svg width="167" height="153" viewBox="0 0 167 153" xmlns="http://www.w3.org/2000/svg"><title>gerb</title><desc>Created with Sketch.</desc><g fill="none" fill-rule="evenodd"><path d="M69.395 124.68c3.13 16.065-12.418 19.577-12.46 19.586l-.926.21-.21-.927c-.974-4.305-.307-8.448 1.902-11.928 2.11-3.325 5.626-6.03 10.453-7.663l1.03-.35.21 1.07zM57.46 142.14c2.966-.978 11.82-4.86 10.252-15.996-3.85 1.503-6.673 3.774-8.402 6.497-1.766 2.785-2.405 6.063-1.85 9.5zM95.857 126.144c-1.57 11.135 7.286 15.017 10.253 15.995.554-3.44-.085-6.717-1.85-9.5-1.73-2.723-4.55-4.994-8.403-6.497zm10.778 18.122c-.042-.01-15.59-3.52-12.46-19.585l.207-1.067 1.03.348c4.828 1.635 8.344 4.34 10.455 7.664 2.21 3.48 2.875 7.623 1.903 11.926l-.21.927-.925-.21z" fill="#EF7F1A"/><path d="M44.872 20.31c12.916.073 14.722-10.984 14.974-13.952 7.906-.354 15.67 2.186 23.25 5.948.717-.353 1.444-.696 2.18-1.03-8.358-4.315-16.99-7.3-25.91-6.797-1.867.104-3.79.554-5.503 1.205-.36.138-.715.285-1.056.44l-.025.01-.006.003c-1.02.42-1.955.95-2.817 1.654l-.016.012-.003.002c-.132.103-.26.208-.382.313l-.01.01-.01.007c-1.447 1.19-2.69 2.72-3.65 4.585-.947 1.84-1.623 4.015-1.953 6.518l-.14 1.064 1.075.007zm40.333-6.924c5.466 2.88 10.833 6.322 16.082 9.69 3.456 2.216 6.865 4.403 10.257 6.398 5.708 3.36 11.27 6.126 16.68 7.46-1.55 5.352-1.936 11.552-1.88 18.176.032 3.936.22 7.98.414 12.082.73 15.624 1.498 32.12-6.245 44.246-2.697-1.265-13.174-5.227-19.57 5.992l-.532.935.994.41c2.332.965 4.554 1.468 6.62 1.568 2.097.1 4.043-.21 5.797-.868l.013-.004.013-.003c.152-.053.306-.11.462-.175h.003l.02-.007c1.055-.4 1.994-.953 2.88-1.64.3-.218.6-.446.895-.686 1.422-1.16 2.773-2.6 3.798-4.165 8.297-12.668 7.505-29.634 6.754-45.692-.194-4.104-.382-8.154-.415-12.005-.053-6.493.34-12.556 1.927-17.747 10.397 1.895 20.22-1.94 29.417-17.566l.85-1.443-1.675.015c-17.03.145-25.33 5.967-29.222 14.92.665.133 1.46.294 2.04.395 3.654-7.772 11.04-12.888 25.478-13.377-8.21 13.166-16.97 16.62-26.23 15.144-.752-.093-1.502-.245-2.256-.452-5.204-1.248-10.563-3.903-16.065-7.142-3.318-1.953-6.73-4.14-10.19-6.36-4.882-3.132-9.862-6.326-14.944-9.09-.753.33-1.483.67-2.165.998zM115.98 116.19l-.016.01c-.8.562-1.596 1.013-2.334 1.317h-.003l-.01.005-.173.062-.042.016-.223.086-.01.004-.17.055.003.007c-1.475.53-3.117.78-4.89.692-1.55-.075-3.206-.405-4.943-1.023 5.272-8.085 13.2-5.694 16.032-4.487-.843 1.004-1.638 1.885-2.447 2.61l-.003.002c-.254.23-.51.444-.772.645zM50.627 9.71l.13-.115.01-.008.186-.15.035-.03.14-.117.008-.007.005-.004c.633-.488 1.42-.953 2.307-1.363l.018-.01c.305-.124.62-.24.944-.346 1.032-.336 2.193-.585 3.484-.812-.37 3.053-2.264 11.116-11.904 11.637.334-1.814.876-3.412 1.585-4.79.813-1.58 1.848-2.878 3.046-3.89l.005.004z" fill="#E64124"/><path d="M139.197 51.176c-6.52 11.15 2.153 18.242 4.596 19.944-3.644 7.02-9.72 12.473-16.763 17.153-.056.8-.126 1.603-.206 2.408 7.913-5.08 14.812-11.06 18.836-19.034.842-1.67 1.414-3.56 1.706-5.37.062-.382.11-.762.148-1.135l.004-.025v-.007c.146-1.094.155-2.168-.025-3.267l-.003-.017v-.004c-.023-.168-.05-.33-.08-.488l-.002-.013-.003-.013c-.306-1.848-1.01-3.69-2.146-5.454-1.12-1.74-2.668-3.412-4.67-4.95l-.85-.652-.544.93zm-14.16 38.386c-5.23 3.295-10.898 6.225-16.442 9.088-3.647 1.885-7.246 3.744-10.67 5.683-5.764 3.264-10.94 6.7-14.8 10.717-3.86-4.018-9.037-7.453-14.8-10.717-3.426-1.94-7.024-3.8-10.672-5.683-5.537-2.86-11.197-5.785-16.422-9.077.078.855.165 1.666.25 2.395 4.925 3.01 10.167 5.718 15.304 8.37 3.652 1.887 7.254 3.748 10.605 5.646 5.65 3.2 10.705 6.57 14.405 10.54-6.84 8.058-8.428 18.485.505 34.26l.825 1.46.825-1.46c8.392-14.822 7.497-24.92 1.687-32.77-.428.49-.965 1.096-1.363 1.567 4.908 7.053 5.65 16.01-1.15 28.76-7.26-13.616-5.922-22.904-.092-30.17l-.007-.01c.456-.605.963-1.18 1.52-1.73 3.693-3.927 8.71-7.27 14.316-10.444 3.353-1.898 6.955-3.76 10.606-5.645 5.153-2.66 10.41-5.377 15.347-8.397.09-.818.166-1.62.225-2.38zM38.12 87.53c-6.572-4.514-12.21-9.758-15.663-16.41 2.444-1.704 11.115-8.796 4.596-19.944l-.543-.928-.852.653c-2.002 1.54-3.548 3.21-4.668 4.95-1.135 1.767-1.838 3.608-2.146 5.456l-.002.012-.003.014c-.03.16-.06.32-.08.488v.004l-.005.018c-.18 1.115-.172 2.205-.018 3.316.037.368.084.742.145 1.118.293 1.81.865 3.702 1.706 5.37 3.84 7.61 10.296 13.405 17.754 18.333l-.223-2.45zM20.61 64.817l-.002-.02c-.087-.972-.08-1.888.027-2.68v-.002l.002-.01.033-.18.007-.046.037-.237v-.01l.037-.173h-.005c.28-1.543.884-3.09 1.846-4.583.84-1.304 1.955-2.572 3.358-3.768 4.368 8.607-1.667 14.277-4.127 16.126-.447-1.232-.812-2.36-1.037-3.425v-.002c-.072-.336-.13-.665-.172-.992zm124.888-3.357l.036.172.002.012.036.236.008.045.032.18.002.01v.008c.107.79.114 1.705.027 2.677v.02c-.044.328-.1.66-.17.992-.226 1.064-.59 2.193-1.04 3.425-2.46-1.85-8.495-7.52-4.127-16.128 1.404 1.194 2.518 2.462 3.357 3.766.96 1.494 1.566 3.04 1.845 4.582h-.007z" fill="#398C36"/><path d="M65.304 117.43c-6.395-11.22-16.874-7.256-19.57-5.99-7.744-12.125-6.974-28.625-6.244-44.25.193-4.1.382-8.147.415-12.083.056-6.624-.33-12.824-1.88-18.176 5.41-1.333 10.972-4.1 16.68-7.457 3.393-1.998 6.802-4.183 10.257-6.4C78.127 14.63 92.03 5.715 106.402 6.36c.254 2.968 2.06 14.024 14.974 13.95l1.076-.005-.14-1.064c-.33-2.5-1.007-4.676-1.953-6.515-.963-1.867-2.206-3.396-3.65-4.586l-.01-.01-.01-.01c-.124-.103-.25-.21-.384-.31l-.004-.003-.014-.01c-.875-.716-1.825-1.253-2.863-1.676-.337-.15-.685-.297-1.04-.432-1.716-.652-3.64-1.102-5.506-1.208-15.12-.852-29.416 8.317-42.947 16.997-3.46 2.22-6.87 4.408-10.19 6.362-5.597 3.292-11.044 5.984-16.332 7.204-5.09-14.236-18.062-16.59-31.6-16.708.18.306.364.612.547.917 6.3 10.478 14.32 19.912 27.833 18.375-.21-.623-.468-1.392-.675-1.965-8.557.72-16.68-3.12-24.322-15.377 15.444.523 22.818 6.34 26.19 15.04.274.648.504 1.32.694 2.02h.003c1.588 5.19 1.98 11.254 1.927 17.747-.033 3.85-.22 7.9-.414 12.006-.752 16.06-1.544 33.025 6.753 45.693 1.026 1.565 2.376 3.004 3.798 4.163.3.244.604.477.91.695l.02.017.006.003c.873.675 1.8 1.22 2.84 1.613l.018.007.003.002c.158.063.313.12.465.175l.012.005.013.003c1.752.66 3.698.97 5.794.87 2.067-.1 4.29-.604 6.622-1.57l.99-.41-.532-.934zm47.48-109.52l.016.01c.887.41 1.676.875 2.308 1.362h.003l.01.01.14.117.035.027.186.15.01.006.13.118.006-.004c1.196 1.012 2.233 2.31 3.045 3.89.71 1.378 1.25 2.977 1.586 4.79-9.64-.52-11.532-8.583-11.903-11.638 1.29.227 2.45.475 3.484.812l.003.002c.325.106.64.22.943.347zM53.246 117.746l-.166-.053-.01-.005-.223-.087-.043-.014-.173-.063-.01-.003-.004-.004c-.737-.304-1.533-.755-2.33-1.316l-.018-.013c-.262-.2-.52-.415-.774-.644-.808-.726-1.604-1.606-2.446-2.61 2.83-1.207 10.76-3.6 16.03 4.49-1.737.616-3.392.947-4.94 1.022-1.776.086-3.416-.162-4.892-.693l.002-.007z" fill="#E64124"/><path d="M130.042 21.593C145.52 16.27 140.786 1.05 140.772 1.01l-.28-.907-.908.282c-4.212 1.31-7.467 3.958-9.376 7.612-1.824 3.49-2.408 7.887-1.41 12.884l.214 1.068 1.03-.354zm9.152-19.065c.637 3.058 1.702 12.668-8.727 16.877-.623-4.088-.067-7.666 1.427-10.526 1.526-2.92 4.046-5.115 7.3-6.353zM144.54 43.78c8.86-6.927 16.65-1.2 18.98.88-2.7 2.2-5.86 3.285-9.15 3.147-3.225-.136-6.602-1.444-9.83-4.028zm21.084.272c-.03-.032-10.844-11.74-23.192-.998l-.822.714.817.718c3.83 3.364 7.93 5.056 11.863 5.223 4.12.17 8.04-1.325 11.28-4.317l.698-.646-.644-.696zM36.214 21.73C20.737 16.406 25.47 1.186 25.484 1.144l.28-.906.908.28c4.21 1.31 7.467 3.96 9.376 7.613 1.824 3.49 2.408 7.888 1.41 12.886l-.214 1.065-1.03-.353zM27.062 2.663C26.425 5.72 25.36 15.33 35.788 19.54c.624-4.086.068-7.665-1.426-10.525-1.527-2.92-4.046-5.112-7.3-6.35zM21.716 43.915c-8.86-6.926-16.65-1.2-18.98.882 2.7 2.198 5.86 3.284 9.15 3.146 3.225-.136 6.602-1.444 9.83-4.028zm-21.084.273c.03-.032 10.844-11.74 23.19-.998l.824.714-.817.718C20 47.986 15.9 49.68 11.964 49.844c-4.12.173-8.04-1.322-11.28-4.314l-.698-.646.644-.696z" fill="#73B734"/><path d="M97.627 42.21c-.243-.436-.307-.82-.242-1.466.114-1.15.808-1.767 1.664-2.528.52-.464 1.12-.996 1.622-1.763.462-.703.567-1.457.424-2.104-.064-.288-.178-.554-.333-.787-.15-.224-.334-.413-.543-.55-.272-.18-.595-.278-.95-.263-.21 1.31-2.786 4.742-6.797 7.295-.936.595-2.017 1.212-3.182 1.877-4.683 2.672-10.774 6.148-11.83 10.63-.69 2.932.55 3.844 1.603 4.617 1.137.833 2.12 1.556 1.612 3.45-.508 1.9-1.927 2.59-3.404 3.306-1.3.632-2.66 1.292-3.116 3.023-.23.865-.118 1.57.14 2.114.395.83 1.11 1.312 1.505 1.453.373.13.57.542.44.915-.134.374-.544.57-.918.438-.623-.22-1.736-.955-2.324-2.193-.388-.818-.56-1.852-.23-3.092.625-2.37 2.288-3.177 3.88-3.95 1.174-.57 2.3-1.118 2.64-2.384.255-.947-.36-1.4-1.072-1.923-1.153-.848-2.475-1.82-2.408-4.277l-.032.08c-.11.273-.275.734-.453 1.294l-.007.025-.01.033-.008.02-.013.04-.005.017-.014.042-.004.014-.015.044-.003.01-.015.047-.003.008-.016.048v.005l-.017.05v.002l-.016.052-.016.05v.005l-.014.047-.002.006-.013.043-.002.01-.01.04-.005.01-.01.037-.005.015-.01.033-.005.017-.008.03-.006.02-.01.025-.005.022-.007.024-.007.024-.004.02-.008.026-.005.018-.007.028-.005.015-.007.03-.003.012-.01.03-.003.01-.01.033v.007l-.01.036-.002.005-.01.038v.004l-.01.038-.01.038v.002l-.01.035v.004l-.01.03v.005l-.008.03-.002.007-.007.028-.008.034-.003.01-.006.022v.012l-.006.02-.003.013-.003.018-.004.015-.004.015-.005.016-.003.013-.003.017-.003.01-.005.02-.002.01-.004.018-.002.01-.005.018v.006l-.007.02v.005l-.005.02v.004l-.006.02v.003l-.006.022-.005.02-.004.02v.003l-.005.017v.002l-.003.015v.004l-.003.016v.004l-.004.01-.002.007-.002.01v.006l-.004.01v.005l-.002.007v.007l-.003.006v.007l-.002.005-.002.006v.005l-.002.008v.012l-.002.005v.008l-.002.006v.003l-.002.004v.006c-.17.754-.296 1.514-.317 2.163-.038 1.216.534 2.047 1.24 3.003-.276.147-.718.396-1.052.61-.896-.544-1.622-2.52-1.608-3.565.02-1.46.448-3.208.88-4.572.01-.084.037-.164.075-.236.17-.516.335-.968.473-1.312.655-1.638 1.035-3.002 1.232-4.437.15-1.104.198-2.258.18-3.616-.216.063-.458.078-.75.05-.072-.49-.105-1.108.343-1.427.176-.125.34-.26.488-.402.05-.08.118-.147.196-.2.642-.69 1.016-1.506 1.23-2.17-.568.36-1.075.585-1.705.802-.453.156-1.18.406-1.708 1.1-.24.315-.865.486-1.513.325.017-.596.13-.88.37-1.195.794-1.042 1.577-1.312 2.38-1.59.603-.206 1.01-.4 1.555-.75.417-.268 1.48-.736 2.2-.698.157.33.158.898.106 1.26-.16 1.112-.945 2.64-1.792 3.707.018.505.03.984.033 1.44V46.007l-.004.065v.067l-.002.06v.063l-.002.01v.115l-.002.014v.065l-.003.064v.064l-.002.037v.027l-.002.032v.09l-.002.025v.092l-.003.02v.055l-.003.04v.07l-.002.043v.01l-.002.045v.007l-.002.047v.004l-.002.05v.002l-.002.05-.002.05v.002l-.004.092v.008l-.002.038v.046l-.002.012v.032l-.002.014v.03l-.002.015v.027l-.002.018v.023l-.002.018v.044l-.002.02-.002.02v.042l-.002.015v.034l-.003.028v.01l-.002.026v.035l-.002.033v.034l-.003.028v.002l-.002.028v.028l-.002.025v.027l-.002.02v.025l-.002.015v.02l-.002.006v.032l-.002.006v.03l-.002.007v.03l-.002.006v.012c-.028.305-.06.602-.102.898-.024.178-.05.354-.08.53 2.263-3.897 7.435-6.848 11.567-9.205 1.167-.666 2.25-1.284 3.12-1.838 1.156-.736 3.12-2.152 4.6-3.744.07-.204.203-.96.208-1.223.006-.318-.056-.653-.234-.943-.18-.29-.49-.548-.99-.72-.257-.09-.562-.157-.92-.193-.375 1.053-1.048 2.064-2.154 3.158-1.24 1.225-3.042 2.568-5.622 4.222-1.898 1.217-3.966 2.908-5.72 4.617-1.012.99-1.916 1.976-2.615 2.87l.096-2.325c.47-.52.98-1.047 1.52-1.572 1.82-1.772 3.967-3.53 5.943-4.796 2.488-1.595 4.216-2.88 5.386-4.036.952-.94 1.52-1.79 1.82-2.65.06-.174.19-.642.22-.862.24-.065.848-.085 1.15-.06.524.046.975.142 1.36.275.85.295 1.4.773 1.743 1.323.162.262.273.537.344.813.26-.51.417-1.02.438-1.51.325-.08.707-.112 1.033-.11.638.01 1.2.12 1.697.448.377.247.7.574.953.955.248.373.43.804.535 1.268.222.998.067 2.146-.626 3.2-.617.94-1.284 1.53-1.867 2.05-.567.504-1.033.92-1.162 1.518-.11.52.047 1.325-1.213 1.404zM68.87 89.675c-.442.707-.927 1.665-1.058 1.927l-.002.005-.03.062h-.002c-.062.11-.153.205-.27.27-.64.365-1.34.6-2.057.726-.767.136-1.564.148-2.337.066-.394-.04-.68-.395-.638-.79.042-.393.395-.678.79-.636.642.07 1.303.058 1.94-.054.12-.02.238-.046.355-.074-.07-.038-.136-.082-.2-.132-.24-.184-.43-.436-.585-.775-.207-.253-.218-.622-.014-.89l.057-.07c.04-.055.075-.12.1-.19.03-.075.046-.16.046-.252 0-.21-.038-.39-.118-.52-.05-.08-.13-.145-.237-.178-.523-.162-.54-1-.425-1.378.293-.097.615-.095 1.01.064.382.154.67.41.87.734.23.367.338.81.338 1.277 0 .268-.05.518-.134.747-.028.077-.06.15-.097.222.022.032.044.056.066.073.036.026.103.036.2.034.127-.004.278-.052.465-.192.26-.195.567-.54.933-1.112.403-.63.668-1.048.858-1.454.128-.273.234-.566.34-.945-.22-.35-.305-.956-.042-2.06.196-.82.207-1.73.1-2.53-.02-.15-.044-.3-.07-.44.18.053.375.103.585.15.337.078.642.143.918.198.116.938.096 1.993-.133 2.954-.106.446-.227.804-.054.868l2.844.895c.752.236 1.41.9 1.787 1.535.2.34.088.78-.253.982-.34.202-.78.088-.982-.253-.253-.426-.43-.618-.662-.75-.47.984-.743 1.3-.983 1.583-.155.182-.294.344-.518.845-.327.734.038.877.04.877.368.14.553.555.412.924-.14.37-.555.552-.924.412-.005 0-1.777-.688-.836-2.797.31-.693.51-.928.737-1.193.174-.203.368-.43.71-1.125l-1.366-.43c-.105.334-.216.62-.35.907-.225.483-.493.913-.887 1.53v.003l-.06.09-.17.26zm24.984-1.593l.007.012c.567.856.923 1.766.976 1.904l.002.006v.002l.002.003v.006c.073.19.064.41-.043.6-.375.676-.77 1.22-1.13 1.607-.496.532-1.268 1.04-1.67 1.055-.394.014-.727-.295-.74-.69-.014-.396.295-.728.69-.742.03 0 .438-.352.67-.6.166-.18.343-.403.524-.67-.802.115-1.912.084-1.916.084-.397 0-.72-.322-.72-.72 0-.026.002-.052.005-.078.003-.158-.036-.305-.103-.43s-.164-.23-.273-.306c-.098-.067-.203-.108-.3-.114-.47-.03-.95.194-1.452-.73.354-.475.953-.74 1.543-.702.36.023.713.152 1.02.36.293.202.55.48.727.813.08.147.143.304.19.47.33-.004.717-.01.97-.03-.03-.066-.066-.14-.113-.22-.103-.174-.245-.37-.428-.577-.37-.42-.838-.812-1.577-1.43-.6-.505-1.376-1.154-2.414-2.08-1.25.843-2.245-.068-3.61-1.318-1.03-.945-2.34-2.142-4.197-2.658l-.13-.03c.162 1.307.85 2.463.852 2.466.203.34.093.78-.247.983-.34.202-.78.092-.983-.248-.002-.006-.936-1.57-1.07-3.315-.468-.013-1.002-.018-1.578-.023-2.297-.02-5.225-.05-7.582-.617-2.23-.54-4.99-1.892-7.1-3.908-1.7-1.627-2.994-3.687-3.286-6.11-.325-2.69.29-5 1.204-6.905.902-1.88 2.08-3.336 2.93-4.39 1.177-1.455 1.957-2.9 2.795-4.453.32-.593.65-1.203.987-1.794.245-.43.394-.778.48-1.06l1.382.317c-.11.426-.303.91-.616 1.457-.362.633-.67 1.205-.97 1.76-.87 1.614-1.68 3.114-2.942 4.674-.81 1.003-1.93 2.39-2.755 4.108-.812 1.69-1.358 3.736-1.07 6.118.248 2.054 1.37 3.824 2.848 5.237 1.92 1.835 4.426 3.066 6.448 3.554 2.202.53 5.035.557 7.257.578 1.568.014 2.85.026 3.527.215 2.185.607 3.637 1.936 4.782 2.984.94.863 1.597 1.463 2.113.957.066-.065.14-.114.222-.15l3.884-1.662c.16-.068.33-.074.483-.028l1.775.46c.383.1.614.49.514.874-.1.384-.49.614-.874.515l-.14-.036.245.433c.324.574.613 1.088.663 1.194.37.792.9 1.576 1.435 2.16.42.456.794.764 1.008.79h.89c.396 0 .718.322.718.72 0 .396-.322.718-.72.718h-.888v-.003h-.023c-.62-.02-1.36-.514-2.04-1.254-.624-.68-1.244-1.597-1.677-2.523-.007-.015-.294-.527-.616-1.1-.27-.48-.564-1-.76-1.357l-2.216.95c.83.73 1.47 1.267 1.98 1.695.794.666 1.296 1.086 1.735 1.584.19.214.35.43.485.637zm6.71.653c-.263.294-.717.32-1.012.054-.295-.266-.32-.72-.055-1.014.628-.695 1.688-.832 2.51-.41 1.052.538 1.393 1.703.527 2.623-.208-.286-.152-.48-.112-.667.21-.977-1.224-1.293-1.857-.587zm-5.117 6.706c.236-.316.685-.382 1.002-.146.315.236.38.685.144 1.002-.81 1.085.37 1.985 1.3 1.653.216-.078.345-.1.617.016-.9 1.27-2.342.946-3.065.03-.533-.675-.65-1.683 0-2.556zm-5.75-2.057c.367-.146.784.033.93.4.148.367-.03.784-.398.93-1.248.498-.783 1.904.214 2.068.232.04.37.083.545.36-1.36.58-2.407-.21-2.637-1.363-.18-.903.264-1.963 1.343-2.394zm-1.426-3.94c.233.323.158.77-.163 1-.322.23-.77.156-1-.165-.34-.497-1.018-.69-1.58-.49-.42.15-.752.564-.678 1.12.036.273.012.508-.26.717-.904-1.266-.147-2.698.996-3.09 1.014-.35 1.985-.068 2.686.91zM63.765 36.016c-.402-.37-.827-.654-1.25-.816.247-.37 1.42-.45 1.717-.45h.13l.005.002h.005c.182.004.358.013.528.03l-.008.007c.32.034.666.095 1.003.18l.032.007c.496.127.98.307 1.34.54.372.24.91.85 1.17 1.498.216.536.272 1.126-.01 1.654.122.08.377.14.853.14.84 0 .89-.27.95-.54-.535-.007-.885-.098-1.132-.25-.383-.237-.495-.534-.54-.874-.225-1.652.8-2.486 1.77-3.273.533-.433 1.26-1.007 1.54-1.145.305.12 1.166.837 1.544 1.144.97.787 1.995 1.62 1.77 3.273-.046.34-.157.638-.54.873-.254.157-.618.25-1.18.25-.045 0 .142.54.997.54.477 0 .732-.058.855-.14-.283-.528-.227-1.118-.01-1.654.686-1.705 2.458-2.266 4.177-2.266.294 0 1.47.08 1.715.45-.604.23-1.018.603-1.25.815-.178.163-1.112 1.128-1.673 2.244-.41.175-.762.36-.99.506-.84.54-1.473.842-2.404 1.162-.274.094-.547.188-.817.294-.86-.108-1.754-.568-1.89-1.498 0-.006-.277-1.893 1.288-1.893.14 0 .242-.004.31-.01.03-.784-.634-1.325-1.264-1.837-.22-.18-.438-.356-.638-.543-.2.187-.417.364-.638.543-.63.512-1.296 1.053-1.265 1.837.07.006.17.01.31.01 1.565 0 1.29 1.886 1.29 1.892-.142 1.072-1.35 1.522-2.287 1.522-.807 0-1.33-.163-1.673-.4-.038-.027-.074-.055-.108-.082.084.373.115.69.132 1.09l.018.51c1.49.015 2.976.016 4.467.016-.416.348-.796.938-.924 1.44-1.186 0-2.37-.01-3.555-.023-.302.46-.72.856-1.276 1.146-.596.313-1.344.5-2.27.51-2.112.028-2.42-.555-2.42-.556-.106-.158-.14-.342-.112-.515.003-.043-.004-.215-.34-.215-.27 0-.306.396-.306.672 0 .146.004.238.01.31.003.084.007.15.007.18 0 .06.034.245.276.5.19.202.47.194.95.336.427.127.956.624.764 1.34-.28.05-.91.076-1.305-.015-.725-.167-1.14-.347-1.448-.673-.594-.626-.675-1.265-.675-1.49 0-.035 0-.064-.004-.095v-.003c-.007-.116-.016-.268-.016-.392 0-.866.213-2.11 1.743-2.11 1.365 0 1.7.784 1.768 1.338.14-.017.443-.036 1.09-.045.686-.007 1.22-.135 1.623-.346.223-.117.407-.26.558-.428-.012-.055-.02-.112-.02-.172h-.002s-.008-.483-.035-1.16c-.013-.322-.04-.57-.106-.863-.072-.317-.192-.69-.39-1.244-.492-1.37-1.782-2.666-1.924-2.806l-.013.015zM67.38 47.13c.393.056.666.42.61.812-.056.392-.42.665-.812.61-1.89-.27-2.644-.144-3.36-.024-.746.126-1.457.245-3.023.023-2.46-.347-3.466-1.333-3.852-1.903-.264-.392-.392-.803-.2-1.313.38-.11 1.22.02 1.357.486 0 .002.273.938 2.892 1.31 1.35.19 1.955.09 2.59-.017.823-.138 1.69-.284 3.8.017zm9.91-1.332v-.002.002zm-1.35 10.89c.147.18.307.36.466.537.705.79 1.4 1.57 1.4 2.676 0 1.03-.602 1.76-1.263 2.257l-.8-1.178c.346-.274.625-.63.625-1.078 0-.51-.43-1.038-.903-1.572.155-.605.313-1.157.476-1.642zM99.213 89.86c.368-.148.786.03.935.398.148.368-.03.787-.398.935-.327.132-.648.285-.817.48-.107.125-.15.308-.057.59.13.4.187.87.03 1.65-.13.64-.43 1.214-1.02 1.487-.36.166-.786.01-.952-.35-.166-.358-.01-.784.35-.95.1-.047.17-.235.216-.465.107-.533.096-.675.013-.93-.278-.854-.088-1.484.333-1.97.36-.417.87-.674 1.366-.875zM72.15 93.136c.393.036.684.385.648.78-.036.392-.384.683-.778.647-.003 0-.824-.08-1.313-.534-.2.015-.436.06-.69.142-.31.102-.632.26-.92.495-.296.24-.48.484-.634.688-.354.47-1.122 1.26-1.92 1.076-.395-.86-.035-1.4.377-1.577.137-.06.253-.173.397-.364.2-.264.436-.578.875-.934.445-.362.924-.6 1.375-.75.61-.2 1.19-.243 1.568-.213.314.026.586.257.648.582.014.072.365-.04.366-.04zm1.26.052c-.396-.024-.697-.363-.674-.76.023-.394.363-.696.758-.672 2.355.143 2.694 3.963.16 3.753.1-.31.297-.384.48-.474.367-.18.466-.66.382-1.012-.112-.468-.55-.804-1.106-.837zm-8.91 1.1c.354-.174.783-.027.957.328.174.356.027.785-.328.96-.78.38-.994 1.772.356 2.035.256.05.455.173.656.46-.275.098-.628.16-1.018.1-2.243-.363-2.347-3.037-.626-3.88zm-2.447-3.017c.2.343.085.78-.256.98-.34.2-.78.087-.98-.254-.67-1.145-2.025-.48-2.025.522 0 .206 0 .395-.26.594-1.44-2.328 2.236-4.034 3.52-1.84zm1.486-3.716c.11.38-.11.777-.49.887-.38.11-.778-.11-.887-.49-.32-1.094-1.954-1.413-2.388-.046-.07.215-.152.406-.434.484-.772-2.67 3.34-3.77 4.198-.834zm11.24-.95c-.178-.355-.034-.787.32-.964.356-.177.788-.033.964.323l.91 1.824c.176.355.032.787-.323.964-.355.178-.786.034-.963-.322l-.91-1.824zm4.01.563c.17.356.02.784-.336.955-.357.17-.785.02-.955-.337l-1.304-2.713c-.17-.356-.02-.784.337-.955.356-.17.784-.02.954.337l1.304 2.714zm1.434-1.683c.18.352.043.784-.31.966-.35.18-.784.042-.965-.31l-1.41-2.73c-.18-.352-.044-.784.31-.966.35-.18.783-.043.965.31l1.41 2.73zm21.44-26.287c.154-.295.282-.595.38-.892.185-.154.374-.32.567-.503 1.065-1 1.83-2.273 1.59-3.795-.533-3.34.855-4.685 2.27-6.054.745-.72 1.5-1.452 1.84-2.536.205-.66.327-1.213.39-1.65.074-.51.08-.8.05-.89-.126-.375.08-.78.453-.906.362-.12.752.066.89.416h.002c.002.007 1.03 2.666.853 4.51-.095.98-.52 1.622-.96 2.28-.372.56-.757 1.138-.813 1.955-.053.754-.03 1.25-.006 1.834.04.914.087 2.035-.08 4.47-.178 2.525-1.404 4.237-2.433 5.245-.302-.34-.63-.68-.998-1.02.836-.82 1.847-2.225 1.993-4.327.165-2.375.12-3.442.082-4.31-.027-.64-.05-1.18.006-1.992.084-1.19.576-1.93 1.054-2.646.34-.508.668-1.003.728-1.62.015-.162.018-.332.013-.508-.48 1.193-1.278 1.967-2.068 2.73-1.143 1.108-2.265 2.195-1.85 4.8.332 2.086-.65 3.768-2.026 5.062-.343.324-.677.606-1.003.856l-.924-.504zm-.847 1.23c1.895.68 3.53 1.74 4.768 3.174 1.58 1.83 2.51 4.247 2.51 7.233 0 2.84-1.135 5.212-2.9 6.91-1.894 1.825-4.514 2.864-7.222 2.864-1.613 0-3.64-.566-5.303-1.82-.9-.682-1.698-1.564-2.27-2.667l1.26-.687c.47.912 1.13 1.642 1.877 2.205 1.396 1.055 3.09 1.53 4.437 1.53 2.343 0 4.602-.892 6.23-2.46 1.493-1.437 2.455-3.453 2.455-5.876 0-2.62-.8-4.723-2.16-6.294-1.244-1.44-2.97-2.453-4.993-3.025.494-.287.934-.662 1.31-1.087zM89.942 75.05c-.746.4-1.563.776-2.492 1.11-.372.133-.783-.06-.916-.433-.133-.372.06-.782.433-.915 2.258-.81 3.843-1.92 5.393-3 1.188-.83 2.358-1.648 3.783-2.327.88-.42 1.634-.244 2.15.202.247.214.43.492.54.795.11.3.147.627.102.946-.096.693-.553 1.342-1.467 1.587-.636.17-1.142.093-1.53-.13-.114-.067-.217-.145-.306-.232l1.623-1.086c.043-.022.08-.048.113-.075.087-.075.133-.167.146-.26.012-.087.002-.178-.028-.26-.03-.08-.075-.15-.132-.2-.114-.1-.314-.122-.593.01l-.137.068c-.383.203-.87.452-1.49.826-.676.418-1.31.86-1.952 1.31-.635.443-1.276.89-1.97 1.324h.003l-.007.004c-.4.25-.815.496-1.256.732l-.008.004zm-17.45-26.456c.362-.163 1.027-.305 1.273-.245.244.796-.344 1.42-1.02 1.7-.93.382-1.753.58-2.502.65-.345.032-.673.037-.986.02h-.002l-.06-.005h-.004l-.026-.004h-.004l-.027-.003h-.006l-.023-.003h-.008l-.02-.004h-.01l-.02-.002-.01-.002-.017-.002-.016-.002-.014-.002-.015-.002-.01-.002-.02-.002h-.008l-.02-.004h-.007l-.02-.004h-.006l-.02-.004h-.006l-.023-.005h-.002l-.024-.004h-.003l-.025-.004-.024-.006h-.004l-.02-.004h-.005l-.02-.003h-.006l-.017-.004-.008-.002h-.016l-.01-.002-.013-.002-.01-.002-.01-.002-.014-.002-.01-.002-.013-.002-.01-.002-.014-.002-.007-.002-.017-.003h-.005l-.016-.004h-.004l-.018-.004h-.002l-.02-.005-.022-.004-.02-.003h-.002l-.018-.004h-.004l-.016-.004h-.005l-.015-.005h-.006l-.014-.004h-.007l-.01-.002-.01-.002-.01-.002h-.01l-.01-.003h-.01l-.01-.003-.01-.002h-.007l-.014-.003h-.006l-.015-.004h-.005l-.016-.003h-.004l-.017-.004-.02-.002-.02-.004-.018-.004-.017-.003H68.1l-.015-.003h-.006l-.014-.003h-.007l-.01-.002h-.01l-.01-.003h-.018l-.01-.003h-.008l-.012-.002h-.006l-.013-.003h-.005l-.015-.002h-.004l-.017-.003h-.003l-.016-.002-.02-.002-.018-.002h-.02l-.082-.007c-.435-.083-1.626.016-3.247.473-.847.238-2.532.27-3.11-.52-.23-.32-.066-.862.158-1 1.1-.055 1.546.424 2.564.138 1.93-.542 3.414-.502 3.957-.46.065-.005.133 0 .2.016.558.127 1.154.196 1.826.133.683-.064 1.46-.266 2.38-.68zm19.832 32.29c-.376-.122-.584-.526-.463-.903.123-.374.527-.582.904-.46l2.79.9c.376.12.584.522.463.9-.12.376-.525.584-.902.463l-2.79-.9zm-26.248-44.36c.355.506.704 1.093.936 1.703.035-.084.085-.156.147-.24l.007-.013c.04-.097.004-.256-.064-.425-.15-.374-.43-.705-.613-.824-.114-.074-.256-.14-.414-.202zM76.57 37.98c.065.087.118.16.154.25.232-.61.58-1.2.936-1.703-.158.06-.3.128-.414.202-.186.12-.464.45-.614.82-.07.17-.104.33-.063.43zm-9.394 6.348c.27-.627.763-.52 1.135-.375.17.066.35.133.56.13.25-.002.537-.096.836-.297.33-.22.787-.328 1.124-.257.222.42.213 1.11-.33 1.476-.73.494-1.665.688-2.505.346-.348-.143-.85-.68-.82-1.024zm10.08 24.83c-.394.03-.742-.263-.774-.66-.032-.394.262-.74.657-.774.765-.064 1.4.08 1.98.347.54.25 1 .594 1.473.966.244.192.487.428.74.675.673.657 1.45 1.416 2.33 1.118.376-.127.784.074.91.45.128.374-.073.782-.45.91-1.71.58-2.825-.508-3.79-1.45-.22-.213-.43-.418-.627-.574-.403-.317-.788-.607-1.19-.79-.363-.168-.767-.26-1.26-.218zm6.387-1.222c-.395-.02-.698-.36-.676-.755.02-.396.36-.7.755-.677 1.172.067 2.208.74 3.298 1.448 1.65 1.073 3.452 2.24 5.68.656.322-.23.77-.154 1 .17.228.32.153.77-.17.998-3.02 2.15-5.248.705-7.29-.62-.926-.602-1.806-1.174-2.597-1.22zm3.46-2.97c.238-.328.882-.645 1.274-.75 1.105-.298 2.46-.025 3.89.264 2.095.422 4.38.883 5.56-.728.434-.59.93-.82 1.738-.484-.013.277-.244.814-.41 1.08-1.655 2.65-4.537 2.067-7.168 1.536-1.256-.253-2.446-.497-3.22-.29-.674.18-1.13.297-1.663-.627zm5.144-3.2c-.33.367-1.043.39-1.547.124.01-.39.214-.79.48-1.083.817-.908 2.165-.973 3.654-1.043 1.934-.092 4.17-.2 4.89-2.638.222-.753.685-1.044 1.513-.974.103.313.022.773-.066 1.133-.896 3.655-3.78 3.792-6.267 3.91-1.174.056-2.237.108-2.655.572zm3.595-6.177c-.2.527-.703.92-1.367.755-.132-.5-.116-.897.025-1.267.48-1.254 1.962-1.815 3.59-2.43 2.08-.79 4.453-1.69 4.145-4.294-.084-.707.092-1.338 1.01-1.54.243.418.29.626.37 1.07.713 3.934-2.35 5.094-5.02 6.105-1.31.495-2.504.95-2.753 1.6zm-.254-5.874c-.16-.605-.073-1.18.097-1.77.46-1.61 1.95-2.494 3.48-3.4 1.646-.978 3.347-1.99 3.234-4.046-.037-.65-.01-1.302 1.003-1.56.31.386.368.796.42 1.302.31 3.02-1.845 4.302-3.93 5.538-1.247.74-2.464 1.463-2.814 2.53-.21.64-.3 1.54-1.493 1.406z" fill="#E64124"/></g></svg>