<?xml version="1.0" encoding="UTF-8" standalone="no"?>
<svg width="48px" height="48px" viewBox="0 0 48 48" version="1.1" xmlns="http://www.w3.org/2000/svg" xmlns:xlink="http://www.w3.org/1999/xlink" xmlns:sketch="http://www.bohemiancoding.com/sketch/ns">
    <g fill="#F7786B">
        <path d="M28.691,24.503 C29.833,22.338 30.465,19.214 30.583,15.136 C31.896,15.136 33.048,15.141 33.809,15.146 C33.584,18.035 32.539,20.387 31.14,22.166 C30.395,23.11 29.554,23.892 28.691,24.503 L28.691,24.503 Z M25.063,29.031 C25.755,29.122 26.291,29.717 26.291,30.43 C26.291,31.142 25.755,31.732 25.063,31.823 L25.063,33.463 C27.041,33.897 28.52,35.376 28.52,35.901 C28.52,35.912 19.378,36.035 19.378,35.901 C19.378,35.376 20.857,33.897 22.834,33.463 L22.834,31.823 C22.143,31.732 21.602,31.142 21.602,30.43 C21.602,29.717 22.143,29.122 22.834,29.031 L22.834,27.943 C20.439,27.675 17.47,26.1 15.283,23.324 C13.51,21.073 12.229,18.019 12.175,14.235 L12.159,13.303 L13.092,13.292 C13.102,13.292 15.16,13.265 17.229,13.26 C17.229,12.837 17.239,12.403 17.25,11.963 L30.572,11.963 C30.588,12.403 30.594,12.837 30.599,13.26 C32.689,13.26 34.795,13.292 34.8,13.292 L35.738,13.303 L35.722,14.235 C35.663,18.019 34.388,21.073 32.614,23.324 C30.428,26.1 27.459,27.675 25.063,27.943 L25.063,29.031 L25.063,29.031 Z M17.245,15.136 C15.959,15.136 14.833,15.141 14.088,15.146 C14.308,18.035 15.359,20.387 16.757,22.166 C17.47,23.067 18.268,23.822 19.094,24.422 C17.974,22.263 17.357,19.165 17.245,15.136 L17.245,15.136 Z" id="goblet" fill-rule="evenodd"></path>
    </g>
</svg>