<?xml version="1.0" encoding="UTF-8" standalone="no"?>
<svg width="24px" height="30px" viewBox="0 0 24 30" version="1.1" xmlns="http://www.w3.org/2000/svg" xmlns:xlink="http://www.w3.org/1999/xlink" xmlns:sketch="http://www.bohemiancoding.com/sketch/ns">
    <!-- Generator: Sketch 3.4.3 (16044) - http://www.bohemiancoding.com/sketch -->
    <title>pointer copy 2</title>
    <desc>Created with Sketch.</desc>
    <defs></defs>
    <g id="Page-1" stroke="none" stroke-width="1" fill="none" fill-rule="evenodd" sketch:type="MSPage">
        <path d="M2.65523268,20.2084552 L4.80376974,23.1034339 L6.74200351,25.2790542 C7.60535383,26.2189824 9.12790041,27.6965494 10.083489,28.522433 C10.4585914,28.8520344 11.4867407,29.778177 11.8360164,30 C12.2517036,29.7919626 15.0262311,27.1927479 15.3029459,26.9245551 C15.6718991,26.5686356 18.0319693,24.1774584 18.4993099,23.5332943 C18.8350572,23.0896483 19.6590526,22.1221489 19.9886507,21.6722366 C22.103982,18.7246219 23.6265285,15.7080792 23.6265285,12.03484 C23.6265285,5.39268109 18.3345108,0 11.8101897,0 C5.28586849,0 0,5.39268109 0,12.03484 C0,14.9699223 1.0342986,17.817278 2.65523268,20.2084552 L2.65523268,20.2084552 Z M11.8101897,3.08923051 C6.96583507,3.08923051 3.03156488,7.09833737 3.03156488,12.03484 C3.03156488,16.9776088 6.96583507,20.9879689 11.8101897,20.9879689 C16.6606935,20.9879689 20.5888144,16.9776088 20.5888144,12.03484 C20.5888144,7.09833737 16.6606935,3.08923051 11.8101897,3.08923051 L11.8101897,3.08923051 Z M11.8101897,17.3736319 C8.92374634,17.3736319 6.57105523,14.9761885 6.57105523,12.03484 C6.57105523,9.09975771 8.92374634,6.70231431 11.8101897,6.70231431 C14.696633,6.70231431 17.0493241,9.09975771 17.0493241,12.03484 C17.0493241,14.9761885 14.696633,17.3736319 11.8101897,17.3736319 L11.8101897,17.3736319 Z" id="pointer-copy-2" fill="#F7786B" sketch:type="MSShapeGroup"></path>
    </g>
</svg>