<?xml version="1.0" encoding="UTF-8"?>
<svg xmlns="http://www.w3.org/2000/svg" xml:space="preserve" width="100%" height="auto" version="1.1" style="shape-rendering:geometricPrecision; text-rendering:geometricPrecision; image-rendering:optimizeQuality; fill-rule:evenodd; clip-rule:evenodd"
viewBox="0 0 29700 21000"
 xmlns:xlink="http://www.w3.org/1999/xlink">
 <defs>
  <style type="text/css">
   <![CDATA[
    .fil7 {fill:#FEFEFE}
    .fil6 {fill:#9D9E9E}
    .fil2 {fill:#52C441}
    .fil0 {fill:#91A8D0}
    .fil3 {fill:#F7786B}
    .fil1 {fill:#FEFEFE;fill-rule:nonzero}
    .fil9 {fill:#727271;fill-rule:nonzero}
    .fil8 {fill:#2B2A29;fill-rule:nonzero}
    .fil5 {fill:#CFCFCF;fill-rule:nonzero}
    .fil4 {fill:#CCCCCC;fill-rule:nonzero}
   ]]>
  </style>
 </defs>
 <g id="Слой_x0020_1">
  <metadata id="CorelCorpID_0Corel-Layer"/>
  <polygon class="fil0" points="2701.73,6692.08 18875.82,6692.08 18875.82,8427.8 2701.73,8427.8 "/>
  <path class="fil1" d="M9331.46 7770.83l-61.51 0 0 -322.33 -165.36 0 0 322.33 -61.24 0 0 -374.82 288.11 0 0 374.82zm236.06 5.26c-35.87,0 -63.79,-12.96 -83.56,-38.77l-3.58 0c2.36,23.89 3.58,38.41 3.58,43.57l0 115.94 -60.28 0 0 -409.48 48.73 0c1.4,5.25 4.2,17.94 8.49,37.89l3.06 0c18.82,-28.79 46.99,-43.13 84.52,-43.13 35.44,0 63,12.85 82.68,38.49 19.77,25.64 29.58,61.59 29.58,107.97 0,46.37 -9.98,82.5 -30.1,108.49 -20.03,25.99 -47.77,39.03 -83.12,39.03zm-14.61 -244.64c-23.97,0 -41.39,7 -52.41,21 -11.02,14 -16.54,36.39 -16.54,67.2l0 8.92c0,34.56 5.43,59.49 16.36,74.98 10.94,15.48 28.79,23.19 53.55,23.19 20.91,0 36.92,-8.58 48.21,-25.64 11.29,-17.06 16.89,-41.39 16.89,-73.05 0,-31.77 -5.6,-55.83 -16.71,-72.1 -11.2,-16.36 -27.65,-24.5 -49.35,-24.5zm255.57 -44.1l0 145.33c0,16.89 -1.4,41.82 -4.12,74.64l142.36 -219.97 73.58 0 0 283.48 -58.01 0 0 -142.78c0,-7.88 0.53,-20.57 1.49,-38.16 0.87,-17.58 1.74,-30.44 2.36,-38.49l-141.83 219.43 -73.58 0 0 -283.48 57.75 0zm421.37 288.74c-44.1,0 -78.57,-12.87 -103.42,-38.59 -24.85,-25.73 -37.27,-61.25 -37.27,-106.39 0,-46.29 11.55,-82.77 34.56,-109.29 23.1,-26.5 54.77,-39.71 95.1,-39.71 37.37,0 66.94,11.37 88.64,34.11 21.7,22.75 32.54,54.08 32.54,93.98l0 32.54 -188.81 0c0.79,27.48 8.23,48.65 22.23,63.43 14.08,14.79 33.77,22.14 59.23,22.14 16.71,0 32.29,-1.57 46.72,-4.73 14.44,-3.14 30.01,-8.4 46.55,-15.74l0 48.99c-14.7,7.01 -29.57,11.99 -44.62,14.87 -14.97,2.9 -32.2,4.39 -51.45,4.39zm-11.03 -248.32c-19.16,0 -34.46,6.04 -46.02,18.21 -11.55,12.15 -18.37,29.92 -20.64,53.19l128.61 0c-0.35,-23.45 -5.95,-41.21 -16.88,-53.29 -10.94,-12.07 -25.99,-18.11 -45.07,-18.11zm352.43 185.41l3.33 -12.34c7.08,-25.46 13.12,-44.98 18.19,-58.71l63.61 -154.78 80.23 0 0 283.48 -55.64 0 0 -228.88 -4.64 15.4c-7.61,27.47 -14.18,47.77 -19.42,60.72l-62.04 152.76 -45.66 0 -61.96 -153.81c-8.57,-22.22 -16.44,-47.25 -23.62,-75.07l0 228.88 -55.12 0 0 -283.48 79.71 0 61.51 150.23c5.51,13.82 12.68,39.02 21.52,75.6zm450.42 -112.43c27.46,0 47.77,-3.07 60.71,-9.11 13.04,-6.12 19.52,-15.48 19.52,-28.17 0,-23.09 -20.57,-34.64 -61.51,-34.64 -27.39,0 -55.3,6.12 -83.82,18.46l-19.51 -44.89c32.98,-13.56 69.38,-20.29 109.19,-20.29 35.26,0 62.56,6.47 82.07,19.33 19.42,12.95 29.22,31.5 29.22,55.56 0,31.84 -18.2,52.67 -54.59,62.65l0 2.01c22.65,6.21 38.93,14.96 48.82,26.42 9.8,11.46 14.69,25.63 14.69,42.61 0,25.98 -11.37,46.72 -34.21,62.21 -22.83,15.48 -54.59,23.19 -95.45,23.19 -44.62,0 -78.74,-5.96 -102.28,-17.77l0 -52.06c31.23,14.7 63.61,22.05 97.12,22.05 24.14,0 42.7,-3.41 55.73,-10.15 13.12,-6.73 19.6,-17.06 19.6,-30.97 0,-14.18 -6.56,-24.58 -19.68,-31.33 -13.22,-6.65 -33.51,-9.97 -60.99,-9.97l-34.64 0 0 -45.14 30.01 0zm387.25 170.08l-12.08 -39.37 -2.01 0c-13.65,17.23 -27.38,29.05 -41.3,35.26 -13.82,6.21 -31.58,9.37 -53.28,9.37 -27.83,0 -49.61,-7.53 -65.18,-22.58 -15.66,-15.05 -23.46,-36.31 -23.46,-63.87 0,-29.23 10.86,-51.27 32.56,-66.14 21.69,-14.88 54.77,-23.02 99.12,-24.33l49 -1.57 0 -15.14c0,-18.12 -4.29,-31.68 -12.69,-40.69 -8.48,-9.01 -21.6,-13.47 -39.37,-13.47 -14.52,0 -28.43,2.1 -41.73,6.38 -13.39,4.29 -26.16,9.37 -38.5,15.15l-19.42 -43.06c15.31,-8.04 32.2,-14.17 50.48,-18.37 18.29,-4.2 35.52,-6.29 51.71,-6.29 36.14,0 63.35,7.87 81.63,23.62 18.37,15.65 27.56,40.42 27.56,74.1l0 191 -43.04 0zm-89.69 -40.94c21.88,0 39.47,-6.13 52.67,-18.38 13.22,-12.25 19.87,-29.4 19.87,-51.44l0 -24.68 -36.4 1.57c-28.35,0.97 -49,5.78 -61.86,14.27 -12.95,8.4 -19.42,21.43 -19.42,38.84 0,12.69 3.76,22.49 11.29,29.4 7.52,6.91 18.8,10.42 33.85,10.42zm245.78 40.94l-67.38 0 78.93 -116.1c-19.16,-5.52 -34.21,-15.23 -45.15,-29.31 -10.94,-14.17 -16.36,-31.59 -16.36,-52.5 0,-26.77 9.54,-47.77 28.69,-62.91 19.08,-15.13 45.24,-22.66 78.4,-22.66l129.14 0 0 283.48 -60.46 0 0 -109.19 -57.13 0 -68.68 109.19zm8.75 -197.38c0,14.52 5.5,25.46 16.53,32.72 10.94,7.26 25.81,10.85 44.36,10.85l56.17 0 0 -83.99 -65.62 0c-16.36,0 -29.05,3.5 -38.06,10.49 -8.92,7 -13.38,16.97 -13.38,29.93zm509.82 -13.56c0,33.51 -19.6,53.72 -58.71,60.81l0 2.01c21.88,2.54 38.59,9.45 50.23,20.73 11.63,11.29 17.41,25.9 17.41,43.83 0,26.86 -10.15,47.43 -30.63,61.86 -20.38,14.44 -50.13,21.7 -89.06,21.7l-135.36 0 0 -283.48 134.83 0c74.2,0 111.29,24.15 111.29,72.54zm-52.85 123.71c0,-13.65 -5.24,-23.36 -15.83,-29.13 -10.67,-5.69 -26.51,-8.58 -47.68,-8.58l-69.47 0 0 80.32 70.96 0c41.37,0 62.02,-14.17 62.02,-42.61zm-7.43 -118.46c0,-11.38 -4.38,-19.52 -13.22,-24.59 -8.74,-4.99 -21.86,-7.52 -39.28,-7.52l-73.05 0 0 68.24 64.04 0c20.22,0 35.43,-2.62 45.93,-7.79 10.42,-5.25 15.58,-14.7 15.58,-28.34zm382.78 63.43c0,46.37 -11.89,82.5 -35.61,108.49 -23.79,25.99 -56.87,39.03 -99.21,39.03 -26.52,0 -49.97,-5.96 -70.26,-17.95 -20.39,-11.98 -36.05,-29.13 -46.99,-51.61 -10.93,-22.4 -16.36,-48.39 -16.36,-77.96 0,-46.02 11.82,-81.9 35.35,-107.71 23.62,-25.81 56.87,-38.75 99.75,-38.75 41.03,0 73.49,13.21 97.46,39.63 23.89,26.42 35.87,62.03 35.87,106.83zm-206.39 0c0,65.45 24.14,98.17 72.53,98.17 47.94,0 71.83,-32.72 71.83,-98.17 0,-64.75 -24.06,-97.12 -72.27,-97.12 -25.37,0 -43.66,8.4 -55.03,25.11 -11.38,16.71 -17.06,40.77 -17.06,72.01zm451.46 -141.22l66.15 0 -117.24 136.58 127.21 146.9 -69.21 0 -122.57 -143.75 0 143.75 -60.29 0 0 -283.48 60.29 0 0 137.63 115.66 -137.63zm319.35 0l0 113.92 133.52 0 0 -113.92 60.28 0 0 283.48 -60.28 0 0 -122.31 -133.52 0 0 122.31 -60.28 0 0 -283.48 60.28 0zm457.24 283.48l-12.07 -39.37 -2.01 0c-13.66,17.23 -27.39,29.05 -41.31,35.26 -13.82,6.21 -31.58,9.37 -53.28,9.37 -27.82,0 -49.6,-7.53 -65.18,-22.58 -15.66,-15.05 -23.45,-36.31 -23.45,-63.87 0,-29.23 10.85,-51.27 32.55,-66.14 21.7,-14.88 54.77,-23.02 99.13,-24.33l49 -1.57 0 -15.14c0,-18.12 -4.29,-31.68 -12.69,-40.69 -8.49,-9.01 -21.61,-13.47 -39.37,-13.47 -14.52,0 -28.44,2.1 -41.74,6.38 -13.38,4.29 -26.16,9.37 -38.49,15.15l-19.42 -43.06c15.3,-8.04 32.19,-14.17 50.48,-18.37 18.29,-4.2 35.52,-6.29 51.7,-6.29 36.14,0 63.35,7.87 81.63,23.62 18.38,15.65 27.57,40.42 27.57,74.1l0 191 -43.05 0zm-89.68 -40.94c21.88,0 39.46,-6.13 52.67,-18.38 13.21,-12.25 19.86,-29.4 19.86,-51.44l0 -24.68 -36.39 1.57c-28.35,0.97 -49,5.78 -61.86,14.27 -12.95,8.4 -19.42,21.43 -19.42,38.84 0,12.69 3.75,22.49 11.28,29.4 7.52,6.91 18.81,10.42 33.86,10.42zm310.16 -242.54l65.63 0 57.65 160.73c8.66,22.83 14.53,44.36 17.41,64.57l2.01 0c1.58,-9.45 4.38,-20.82 8.49,-34.21 4.11,-13.39 25.81,-77.08 65.1,-191.09l65.09 0 -121.17 321.1c-22.06,58.89 -58.8,88.38 -110.25,88.38 -13.3,0 -26.34,-1.49 -38.93,-4.38l0 -47.51c9.01,2.01 19.42,3.06 30.97,3.06 29.05,0 49.52,-16.8 61.25,-50.48l10.5 -26.69 -113.75 -283.48zm377.63 0l0 103.42c0,29.05 15.05,43.57 45.15,43.57 14.51,0 28.69,-2.01 42.52,-6.03 13.82,-4.03 28.69,-10.42 44.61,-19.34l0 -121.62 60.29 0 0 283.48 -60.29 0 0 -120.3c-16.53,10.24 -32.54,17.85 -48.02,22.74 -15.49,4.82 -32.38,7.27 -50.67,7.27 -29.57,0 -52.67,-7.61 -69.2,-22.93 -16.62,-15.31 -24.94,-36.65 -24.94,-64.21l0 -106.05 60.55 0zm455.93 283.48l-12.08 -39.37 -2.01 0c-13.65,17.23 -27.38,29.05 -41.3,35.26 -13.82,6.21 -31.58,9.37 -53.28,9.37 -27.83,0 -49.61,-7.53 -65.18,-22.58 -15.66,-15.05 -23.46,-36.31 -23.46,-63.87 0,-29.23 10.86,-51.27 32.56,-66.14 21.69,-14.88 54.77,-23.02 99.12,-24.33l49 -1.57 0 -15.14c0,-18.12 -4.29,-31.68 -12.69,-40.69 -8.48,-9.01 -21.6,-13.47 -39.37,-13.47 -14.52,0 -28.43,2.1 -41.73,6.38 -13.39,4.29 -26.16,9.37 -38.5,15.15l-19.42 -43.06c15.31,-8.04 32.2,-14.17 50.48,-18.37 18.29,-4.2 35.52,-6.29 51.71,-6.29 36.14,0 63.35,7.87 81.63,23.62 18.37,15.65 27.56,40.42 27.56,74.1l0 191 -43.04 0zm-89.69 -40.94c21.88,0 39.47,-6.13 52.67,-18.38 13.22,-12.25 19.87,-29.4 19.87,-51.44l0 -24.68 -36.4 1.57c-28.35,0.97 -49,5.78 -61.86,14.27 -12.95,8.4 -19.42,21.43 -19.42,38.84 0,12.69 3.76,22.49 11.29,29.4 7.52,6.91 18.8,10.42 33.85,10.42zm331.08 46.2c-42.87,0 -75.42,-12.52 -97.73,-37.63 -22.31,-25.02 -33.42,-60.98 -33.42,-107.79 0,-47.77 11.64,-84.43 35,-110.07 23.27,-25.64 56.96,-38.49 101.05,-38.49 29.92,0 56.78,5.6 80.76,16.7l-18.2 48.56c-25.46,-9.89 -46.46,-14.87 -63.09,-14.87 -48.99,0 -73.49,32.55 -73.49,97.64 0,31.76 6.13,55.65 18.28,71.58 12.25,16 30.11,23.96 53.73,23.96 26.77,0 52.14,-6.65 76.12,-20.03l0 52.67c-10.76,6.39 -22.31,10.94 -34.48,13.65 -12.25,2.71 -27.03,4.12 -44.53,4.12zm358.82 -288.74l0 47.25 -92.31 0 0 236.23 -60.55 0 0 -236.23 -92.3 0 0 -47.25 245.16 0zm112.25 0l0 145.33c0,16.89 -1.39,41.82 -4.11,74.64l142.35 -219.97 73.59 0 0 283.48 -58.01 0 0 -142.78c0,-7.88 0.52,-20.57 1.49,-38.16 0.87,-17.58 1.74,-30.44 2.36,-38.49l-141.83 219.43 -73.59 0 0 -283.48 57.75 0zm421.38 288.74c-44.1,0 -78.58,-12.87 -103.42,-38.59 -24.85,-25.73 -37.28,-61.25 -37.28,-106.39 0,-46.29 11.55,-82.77 34.56,-109.29 23.11,-26.5 54.78,-39.71 95.11,-39.71 37.36,0 66.93,11.37 88.63,34.11 21.7,22.75 32.55,54.08 32.55,93.98l0 32.54 -188.81 0c0.79,27.48 8.22,48.65 22.22,63.43 14.09,14.79 33.78,22.14 59.23,22.14 16.72,0 32.29,-1.57 46.73,-4.73 14.44,-3.14 30.01,-8.4 46.54,-15.74l0 48.99c-14.69,7.01 -29.57,11.99 -44.62,14.87 -14.96,2.9 -32.19,4.39 -51.44,4.39zm-11.03 -248.32c-19.16,0 -34.47,6.04 -46.02,18.21 -11.55,12.15 -18.37,29.92 -20.65,53.19l128.62 0c-0.36,-23.45 -5.96,-41.21 -16.89,-53.29 -10.93,-12.07 -25.98,-18.11 -45.06,-18.11z"/>
  <polygon class="fil2" points="2701.73,8427.8 22169.73,8427.8 22169.73,10163.53 2701.73,10163.53 "/>
  <path class="fil1" d="M11426.07 9542.54l-61.5 0 0 -322.33 -165.37 0 0 322.33 -61.24 0 0 -374.82 288.11 0 0 374.82zm236.07 5.25c-35.87,0 -63.79,-12.95 -83.56,-38.76l-3.59 0c2.36,23.88 3.59,38.41 3.59,43.57l0 115.93 -60.29 0 0 -409.47 48.74 0c1.4,5.25 4.2,17.94 8.49,37.89l3.06 0c18.81,-28.79 46.98,-43.14 84.52,-43.14 35.43,0 62.99,12.86 82.68,38.5 19.77,25.64 29.57,61.59 29.57,107.97 0,46.37 -9.97,82.5 -30.1,108.49 -20.03,25.99 -47.77,39.02 -83.11,39.02zm-14.61 -244.63c-23.98,0 -41.39,7 -52.41,21 -11.03,14 -16.54,36.39 -16.54,67.19l0 8.93c0,34.56 5.42,59.49 16.36,74.98 10.94,15.48 28.79,23.19 53.54,23.19 20.92,0 36.93,-8.58 48.21,-25.64 11.29,-17.06 16.89,-41.39 16.89,-73.06 0,-31.76 -5.6,-55.82 -16.71,-72.09 -11.2,-16.36 -27.64,-24.5 -49.34,-24.5zm449.36 97.12c0,46.37 -11.9,82.5 -35.61,108.49 -23.8,25.99 -56.87,39.02 -99.22,39.02 -26.51,0 -49.96,-5.95 -70.25,-17.94 -20.39,-11.98 -36.05,-29.14 -46.99,-51.61 -10.93,-22.41 -16.36,-48.39 -16.36,-77.96 0,-46.02 11.82,-81.9 35.35,-107.71 23.62,-25.81 56.87,-38.76 99.74,-38.76 41.03,0 73.49,13.22 97.47,39.64 23.88,26.42 35.87,62.03 35.87,106.83zm-206.4 0c0,65.44 24.15,98.17 72.54,98.17 47.94,0 71.82,-32.73 71.82,-98.17 0,-64.75 -24.06,-97.12 -72.26,-97.12 -25.37,0 -43.66,8.4 -55.03,25.11 -11.38,16.71 -17.07,40.77 -17.07,72.01zm521.64 -68.69c0,33.51 -19.6,53.72 -58.71,60.81l0 2.02c21.88,2.53 38.58,9.45 50.23,20.73 11.63,11.29 17.41,25.9 17.41,43.83 0,26.86 -10.16,47.43 -30.63,61.86 -20.39,14.44 -50.13,21.7 -89.06,21.7l-135.36 0 0 -283.48 134.83 0c74.19,0 111.29,24.15 111.29,72.53zm-52.85 123.72c0,-13.65 -5.24,-23.36 -15.83,-29.14 -10.67,-5.68 -26.51,-8.57 -47.69,-8.57l-69.47 0 0 80.31 70.96 0c41.38,0 62.03,-14.17 62.03,-42.6zm-7.43 -118.46c0,-11.38 -4.38,-19.52 -13.22,-24.6 -8.75,-4.98 -21.87,-7.52 -39.28,-7.52l-73.06 0 0 68.25 64.05 0c20.21,0 35.43,-2.62 45.93,-7.79 10.41,-5.25 15.58,-14.7 15.58,-28.34zm255.04 210.94c-44.1,0 -78.57,-12.86 -103.42,-38.58 -24.84,-25.73 -37.27,-61.25 -37.27,-106.39 0,-46.29 11.55,-82.78 34.56,-109.29 23.1,-26.5 54.77,-39.72 95.1,-39.72 37.37,0 66.94,11.37 88.64,34.12 21.7,22.75 32.54,54.08 32.54,93.97l0 32.55 -188.81 0c0.79,27.48 8.23,48.64 22.23,63.43 14.08,14.79 33.77,22.14 59.23,22.14 16.71,0 32.29,-1.57 46.72,-4.73 14.44,-3.15 30.02,-8.4 46.55,-15.74l0 48.99c-14.7,7 -29.57,11.99 -44.62,14.87 -14.97,2.89 -32.2,4.38 -51.45,4.38zm-11.03 -248.31c-19.16,0 -34.46,6.04 -46.02,18.2 -11.55,12.16 -18.37,29.93 -20.64,53.2l128.61 0c-0.35,-23.45 -5.95,-41.21 -16.88,-53.29 -10.94,-12.07 -25.99,-18.11 -45.07,-18.11zm461.62 343.33l-56.17 0 0 -100.27 -194.23 0 0 100.27 -55.65 0 0 -146.99 23.1 0c20.12,-28.88 36.22,-63.78 48.03,-104.64 11.9,-40.95 18.99,-84.96 21.18,-132.12l172.18 0 0 236.76 41.56 0 0 146.99zm-100.79 -146.99l0 -190.56 -60.9 0c-3.23,35.17 -10.06,69.82 -20.38,104.03 -10.33,34.12 -22.93,62.99 -37.8,86.53l119.08 0zm277.18 51.97c-44.1,0 -78.57,-12.86 -103.42,-38.58 -24.85,-25.73 -37.27,-61.25 -37.27,-106.39 0,-46.29 11.55,-82.78 34.56,-109.29 23.1,-26.5 54.77,-39.72 95.1,-39.72 37.37,0 66.94,11.37 88.64,34.12 21.7,22.75 32.54,54.08 32.54,93.97l0 32.55 -188.81 0c0.79,27.48 8.23,48.64 22.23,63.43 14.08,14.79 33.77,22.14 59.23,22.14 16.71,0 32.29,-1.57 46.72,-4.73 14.44,-3.15 30.01,-8.4 46.55,-15.74l0 48.99c-14.7,7 -29.57,11.99 -44.62,14.87 -14.97,2.89 -32.2,4.38 -51.45,4.38zm-11.03 -248.31c-19.16,0 -34.46,6.04 -46.02,18.2 -11.55,12.16 -18.37,29.93 -20.64,53.2l128.61 0c-0.35,-23.45 -5.95,-41.21 -16.88,-53.29 -10.94,-12.07 -25.99,-18.11 -45.07,-18.11zm249.97 -40.42l0 113.92 133.52 0 0 -113.92 60.28 0 0 283.48 -60.28 0 0 -122.31 -133.52 0 0 122.31 -60.28 0 0 -283.48 60.28 0zm337.64 0l0 145.33c0,16.89 -1.4,41.82 -4.11,74.63l142.35 -219.96 73.59 0 0 283.48 -58.01 0 0 -142.79c0,-7.87 0.52,-20.56 1.48,-38.15 0.88,-17.58 1.75,-30.45 2.37,-38.49l-141.83 219.43 -73.59 0 0 -283.48 57.75 0zm421.38 288.73c-44.1,0 -78.58,-12.86 -103.43,-38.58 -24.84,-25.73 -37.27,-61.25 -37.27,-106.39 0,-46.29 11.55,-82.78 34.56,-109.29 23.1,-26.5 54.78,-39.72 95.11,-39.72 37.36,0 66.93,11.37 88.63,34.12 21.7,22.75 32.54,54.08 32.54,93.97l0 32.55 -188.8 0c0.78,27.48 8.22,48.64 22.22,63.43 14.09,14.79 33.77,22.14 59.23,22.14 16.72,0 32.29,-1.57 46.72,-4.73 14.44,-3.15 30.02,-8.4 46.55,-15.74l0 48.99c-14.7,7 -29.57,11.99 -44.62,14.87 -14.96,2.89 -32.2,4.38 -51.44,4.38zm-11.03 -248.31c-19.17,0 -34.47,6.04 -46.03,18.2 -11.54,12.16 -18.36,29.93 -20.64,53.2l128.62 0c-0.36,-23.45 -5.96,-41.21 -16.89,-53.29 -10.94,-12.07 -25.99,-18.11 -45.06,-18.11zm502.03 -40.42l66.15 0 -117.24 136.58 127.21 146.9 -69.21 0 -122.57 -143.75 0 143.75 -60.29 0 0 -283.48 60.29 0 0 137.63 115.66 -137.63zm363.72 141.22c0,46.37 -11.9,82.5 -35.61,108.49 -23.8,25.99 -56.88,39.02 -99.22,39.02 -26.51,0 -49.96,-5.95 -70.26,-17.94 -20.39,-11.98 -36.05,-29.14 -46.98,-51.61 -10.94,-22.41 -16.37,-48.39 -16.37,-77.96 0,-46.02 11.82,-81.9 35.36,-107.71 23.62,-25.81 56.87,-38.76 99.74,-38.76 41.03,0 73.49,13.22 97.47,39.64 23.88,26.42 35.87,62.03 35.87,106.83zm-206.4 0c0,65.44 24.15,98.17 72.54,98.17 47.94,0 71.82,-32.73 71.82,-98.17 0,-64.75 -24.06,-97.12 -72.26,-97.12 -25.38,0 -43.67,8.4 -55.04,25.11 -11.37,16.71 -17.06,40.77 -17.06,72.01zm335.8 -141.22l0 113.92 133.51 0 0 -113.92 60.29 0 0 283.48 -60.29 0 0 -122.31 -133.51 0 0 122.31 -60.29 0 0 -283.48 60.29 0zm455.84 0l66.14 0 -117.23 136.58 127.21 146.9 -69.21 0 -122.58 -143.75 0 143.75 -60.28 0 0 -283.48 60.28 0 0 137.63 115.67 -137.63zm79.62 0l65.62 0 57.66 160.73c8.66,22.83 14.52,44.35 17.41,64.56l2.01 0c1.57,-9.44 4.37,-20.82 8.49,-34.2 4.11,-13.39 25.81,-77.09 65.09,-191.09l65.1 0 -121.18 321.1c-22.05,58.88 -58.79,88.37 -110.25,88.37 -13.29,0 -26.33,-1.49 -38.93,-4.37l0 -47.51c9.01,2.01 19.43,3.06 30.97,3.06 29.06,0 49.53,-16.8 61.25,-50.49l10.5 -26.68 -113.74 -283.48zm468.35 288.73c-35.87,0 -63.78,-12.95 -83.55,-38.76l-3.59 0c2.36,23.88 3.59,38.41 3.59,43.57l0 115.93 -60.29 0 0 -409.47 48.74 0c1.4,5.25 4.2,17.94 8.48,37.89l3.07 0c18.81,-28.79 46.98,-43.14 84.52,-43.14 35.43,0 62.99,12.86 82.68,38.5 19.77,25.64 29.57,61.59 29.57,107.97 0,46.37 -9.97,82.5 -30.1,108.49 -20.03,25.99 -47.77,39.02 -83.12,39.02zm-14.61 -244.63c-23.97,0 -41.38,7 -52.4,21 -11.03,14 -16.54,36.39 -16.54,67.19l0 8.93c0,34.56 5.42,59.49 16.36,74.98 10.94,15.48 28.79,23.19 53.54,23.19 20.91,0 36.93,-8.58 48.21,-25.64 11.29,-17.06 16.89,-41.39 16.89,-73.06 0,-31.76 -5.6,-55.82 -16.71,-72.09 -11.2,-16.36 -27.65,-24.5 -49.35,-24.5zm312.09 244.63c-42.87,0 -75.42,-12.51 -97.73,-37.63 -22.31,-25.01 -33.42,-60.97 -33.42,-107.78 0,-47.78 11.64,-84.43 35,-110.07 23.27,-25.64 56.96,-38.5 101.05,-38.5 29.92,0 56.78,5.6 80.76,16.71l-18.2 48.56c-25.46,-9.89 -46.46,-14.87 -63.09,-14.87 -48.99,0 -73.49,32.54 -73.49,97.64 0,31.76 6.13,55.64 18.28,71.57 12.25,16.01 30.11,23.97 53.73,23.97 26.77,0 52.14,-6.65 76.12,-20.03l0 52.67c-10.76,6.39 -22.31,10.94 -34.48,13.64 -12.25,2.72 -27.03,4.12 -44.53,4.12zm323.03 -5.25l-12.07 -39.37 -2.01 0c-13.66,17.23 -27.39,29.05 -41.3,35.26 -13.83,6.21 -31.59,9.36 -53.29,9.36 -27.82,0 -49.6,-7.53 -65.18,-22.58 -15.66,-15.05 -23.45,-36.31 -23.45,-63.87 0,-29.22 10.85,-51.27 32.55,-66.14 21.7,-14.87 54.77,-23.01 99.13,-24.32l49 -1.57 0 -15.15c0,-18.11 -4.29,-31.67 -12.69,-40.68 -8.49,-9.01 -21.61,-13.47 -39.37,-13.47 -14.52,0 -28.44,2.1 -41.74,6.38 -13.38,4.29 -26.15,9.37 -38.49,15.14l-19.42 -43.05c15.3,-8.04 32.2,-14.17 50.48,-18.37 18.29,-4.2 35.52,-6.3 51.7,-6.3 36.14,0 63.35,7.88 81.63,23.62 18.38,15.66 27.57,40.42 27.57,74.11l0 191 -43.05 0zm-89.68 -40.95c21.88,0 39.46,-6.12 52.67,-18.37 13.21,-12.25 19.86,-29.4 19.86,-51.45l0 -24.67 -36.39 1.57c-28.35,0.97 -49,5.78 -61.86,14.26 -12.95,8.4 -19.42,21.44 -19.42,38.85 0,12.69 3.75,22.49 11.28,29.4 7.52,6.91 18.81,10.41 33.86,10.41z"/>
  <polygon class="fil3" points="22169.73,10163.53 27435.52,10163.53 27435.52,11899.25 22169.73,11899.25 "/>
  <path class="fil1" d="M23474.57 10872.35l-61.5 0 0 -322.33 -165.37 0 0 322.33 -61.24 0 0 -374.82 288.11 0 0 374.82zm343.77 -142.26c0,46.37 -11.89,82.5 -35.61,108.49 -23.79,25.99 -56.87,39.02 -99.21,39.02 -26.52,0 -49.97,-5.95 -70.26,-17.94 -20.39,-11.98 -36.05,-29.14 -46.99,-51.61 -10.93,-22.41 -16.36,-48.39 -16.36,-77.96 0,-46.02 11.82,-81.9 35.35,-107.71 23.62,-25.81 56.87,-38.76 99.74,-38.76 41.03,0 73.5,13.22 97.47,39.64 23.88,26.42 35.87,62.03 35.87,106.83zm-206.4 0c0,65.44 24.15,98.17 72.54,98.17 47.94,0 71.82,-32.73 71.82,-98.17 0,-64.75 -24.06,-97.12 -72.26,-97.12 -25.37,0 -43.66,8.4 -55.03,25.11 -11.38,16.71 -17.07,40.77 -17.07,72.01zm547.45 242.53l-56.17 0 0 -100.27 -194.23 0 0 100.27 -55.65 0 0 -146.99 23.09 0c20.13,-28.88 36.23,-63.78 48.04,-104.64 11.9,-40.95 18.98,-84.96 21.17,-132.12l172.19 0 0 236.76 41.56 0 0 146.99zm-100.79 -146.99l0 -190.56 -60.9 0c-3.23,35.17 -10.06,69.82 -20.38,104.03 -10.33,34.12 -22.93,62.99 -37.8,86.53l119.08 0zm399.49 -164.23c0,33.51 -19.6,53.72 -58.71,60.81l0 2.02c21.88,2.53 38.59,9.45 50.23,20.73 11.63,11.29 17.41,25.9 17.41,43.83 0,26.86 -10.15,47.43 -30.63,61.86 -20.38,14.44 -50.13,21.7 -89.06,21.7l-135.36 0 0 -283.48 134.83 0c74.2,0 111.29,24.15 111.29,72.53zm-52.84 123.72c0,-13.65 -5.25,-23.36 -15.84,-29.14 -10.67,-5.68 -26.51,-8.57 -47.68,-8.57l-69.47 0 0 80.31 70.96 0c41.38,0 62.03,-14.17 62.03,-42.6zm-7.44 -118.46c0,-11.38 -4.37,-19.52 -13.21,-24.6 -8.75,-4.98 -21.87,-7.52 -39.28,-7.52l-73.06 0 0 68.25 64.05 0c20.21,0 35.43,-2.62 45.92,-7.79 10.42,-5.25 15.58,-14.7 15.58,-28.34zm255.05 210.94c-44.1,0 -78.58,-12.86 -103.42,-38.58 -24.85,-25.73 -37.28,-61.25 -37.28,-106.39 0,-46.29 11.55,-82.78 34.56,-109.29 23.1,-26.5 54.78,-39.72 95.11,-39.72 37.36,0 66.93,11.37 88.63,34.12 21.7,22.75 32.55,54.08 32.55,93.97l0 32.55 -188.81 0c0.78,27.48 8.22,48.64 22.22,63.43 14.09,14.79 33.77,22.14 59.23,22.14 16.72,0 32.29,-1.57 46.72,-4.73 14.44,-3.15 30.02,-8.4 46.55,-15.74l0 48.99c-14.7,7 -29.57,11.99 -44.62,14.87 -14.96,2.89 -32.2,4.38 -51.44,4.38zm-11.03 -248.31c-19.17,0 -34.47,6.04 -46.03,18.2 -11.54,12.16 -18.36,29.93 -20.64,53.2l128.62 0c-0.36,-23.45 -5.96,-41.21 -16.89,-53.29 -10.94,-12.07 -25.99,-18.11 -45.06,-18.11zm461.62 343.33l-56.18 0 0 -100.27 -194.23 0 0 100.27 -55.65 0 0 -146.99 23.1 0c20.13,-28.88 36.23,-63.78 48.04,-104.64 11.9,-40.95 18.98,-84.96 21.17,-132.12l172.19 0 0 236.76 41.56 0 0 146.99zm-100.79 -146.99l0 -190.56 -60.91 0c-3.23,35.17 -10.05,69.82 -20.38,104.03 -10.32,34.12 -22.92,62.99 -37.79,86.53l119.08 0zm277.18 51.97c-44.1,0 -78.58,-12.86 -103.43,-38.58 -24.84,-25.73 -37.27,-61.25 -37.27,-106.39 0,-46.29 11.55,-82.78 34.56,-109.29 23.1,-26.5 54.78,-39.72 95.11,-39.72 37.36,0 66.93,11.37 88.63,34.12 21.7,22.75 32.54,54.08 32.54,93.97l0 32.55 -188.8 0c0.78,27.48 8.22,48.64 22.22,63.43 14.09,14.79 33.77,22.14 59.23,22.14 16.72,0 32.29,-1.57 46.72,-4.73 14.44,-3.15 30.02,-8.4 46.55,-15.74l0 48.99c-14.7,7 -29.57,11.99 -44.62,14.87 -14.96,2.89 -32.2,4.38 -51.44,4.38zm-11.03 -248.31c-19.17,0 -34.47,6.04 -46.03,18.2 -11.54,12.16 -18.36,29.93 -20.64,53.2l128.62 0c-0.36,-23.45 -5.96,-41.21 -16.89,-53.29 -10.94,-12.07 -25.99,-18.11 -45.06,-18.11zm249.97 -40.42l0 113.92 133.51 0 0 -113.92 60.29 0 0 283.48 -60.29 0 0 -122.31 -133.51 0 0 122.31 -60.29 0 0 -283.48 60.29 0zm337.63 0l0 145.33c0,16.89 -1.39,41.82 -4.11,74.63l142.36 -219.96 73.58 0 0 283.48 -58.01 0 0 -142.79c0,-7.87 0.52,-20.56 1.49,-38.15 0.87,-17.58 1.74,-30.45 2.36,-38.49l-141.83 219.43 -73.58 0 0 -283.48 57.74 0zm421.38 288.73c-44.1,0 -78.57,-12.86 -103.42,-38.58 -24.85,-25.73 -37.28,-61.25 -37.28,-106.39 0,-46.29 11.55,-82.78 34.56,-109.29 23.11,-26.5 54.78,-39.72 95.11,-39.72 37.37,0 66.93,11.37 88.63,34.12 21.7,22.75 32.55,54.08 32.55,93.97l0 32.55 -188.81 0c0.79,27.48 8.22,48.64 22.22,63.43 14.09,14.79 33.78,22.14 59.23,22.14 16.72,0 32.29,-1.57 46.73,-4.73 14.44,-3.15 30.01,-8.4 46.54,-15.74l0 48.99c-14.69,7 -29.57,11.99 -44.62,14.87 -14.96,2.89 -32.19,4.38 -51.44,4.38zm-11.03 -248.31c-19.16,0 -34.47,6.04 -46.02,18.2 -11.55,12.16 -18.37,29.93 -20.65,53.2l128.62 0c-0.35,-23.45 -5.95,-41.21 -16.89,-53.29 -10.93,-12.07 -25.98,-18.11 -45.06,-18.11zm-2295.27 695.55l0 145.33c0,16.89 -1.39,41.82 -4.11,74.63l142.36 -219.96 73.58 0 0 283.48 -58.01 0 0 -142.79c0,-7.87 0.53,-20.56 1.49,-38.15 0.87,-17.58 1.74,-30.45 2.36,-38.49l-141.83 219.43 -73.58 0 0 -283.48 57.74 0zm510.71 0l0 47.25 -92.31 0 0 236.23 -60.54 0 0 -236.23 -92.31 0 0 -47.25 245.16 0zm300.89 141.22c0,46.37 -11.89,82.5 -35.6,108.49 -23.8,25.99 -56.88,39.02 -99.22,39.02 -26.52,0 -49.97,-5.95 -70.26,-17.94 -20.39,-11.98 -36.05,-29.13 -46.99,-51.61 -10.93,-22.41 -16.36,-48.39 -16.36,-77.96 0,-46.02 11.82,-81.9 35.35,-107.71 23.62,-25.81 56.87,-38.76 99.75,-38.76 41.03,0 73.49,13.22 97.46,39.64 23.89,26.42 35.87,62.03 35.87,106.83zm-206.39 0c0,65.44 24.14,98.17 72.53,98.17 47.94,0 71.83,-32.73 71.83,-98.17 0,-64.75 -24.06,-97.12 -72.27,-97.12 -25.37,0 -43.66,8.4 -55.03,25.11 -11.38,16.71 -17.06,40.77 -17.06,72.01zm458.73 -141.22l0 47.25 -122.93 0 0 236.23 -60.29 0 0 -283.48 183.22 0zm301.06 141.22c0,46.37 -11.9,82.5 -35.61,108.49 -23.8,25.99 -56.87,39.02 -99.22,39.02 -26.51,0 -49.96,-5.95 -70.26,-17.94 -20.38,-11.98 -36.04,-29.13 -46.98,-51.61 -10.93,-22.41 -16.36,-48.39 -16.36,-77.96 0,-46.02 11.81,-81.9 35.35,-107.71 23.62,-25.81 56.87,-38.76 99.74,-38.76 41.03,0 73.49,13.22 97.47,39.64 23.88,26.42 35.87,62.03 35.87,106.83zm-206.4 0c0,65.44 24.15,98.17 72.54,98.17 47.94,0 71.82,-32.73 71.82,-98.17 0,-64.75 -24.06,-97.12 -72.26,-97.12 -25.37,0 -43.66,8.4 -55.03,25.11 -11.38,16.71 -17.07,40.77 -17.07,72.01zm521.64 -68.69c0,33.51 -19.6,53.72 -58.71,60.81l0 2.02c21.87,2.53 38.58,9.45 50.22,20.73 11.64,11.29 17.41,25.9 17.41,43.83 0,26.86 -10.15,47.43 -30.62,61.86 -20.39,14.44 -50.13,21.7 -89.07,21.7l-135.35 0 0 -283.48 134.83 0c74.19,0 111.29,24.15 111.29,72.53zm-52.85 123.72c0,-13.65 -5.25,-23.36 -15.84,-29.14 -10.67,-5.68 -26.5,-8.57 -47.68,-8.57l-69.47 0 0 80.31 70.96 0c41.38,0 62.03,-14.17 62.03,-42.6zm-7.44 -118.46c0,-11.38 -4.37,-19.52 -13.21,-24.6 -8.75,-4.98 -21.87,-7.52 -39.28,-7.52l-73.06 0 0 68.25 64.05 0c20.21,0 35.43,-2.62 45.93,-7.79 10.41,-5.25 15.57,-14.7 15.57,-28.34z"/>
  <path class="fil4" d="M2698.46 12556.12l0 164.18 30.85 0 0 -164.18 -30.85 0zm0 -2298.52l0 164.18 30.85 0 0 -164.18 -30.85 0zm0 328.36l0 164.18 30.85 0 0 -164.18 -30.85 0zm0 328.36l0 164.18 30.85 0 0 -164.18 -30.85 0zm0 328.36l0 164.18 30.85 0 0 -164.18 -30.85 0zm0 328.36l0 164.18 30.85 0 0 -164.18 -30.85 0zm0 328.36l0 164.18 30.85 0 0 -164.18 -30.85 0zm0 328.36l0 164.18 30.85 0 0 -164.18 -30.85 0z"/>
  <path class="fil4" d="M22169.73 12516.37l0 154.28 30.86 0 0 -154.28 -30.86 0zm0 -617.12l0 154.28 30.86 0 0 -154.28 -30.86 0zm0 308.56l0 154.28 30.86 0 0 -154.28 -30.86 0z"/>
  <path class="fil5" d="M27420.07 12581.33l0 154.28 30.86 0 0 -154.28 -30.86 0zm0 -617.12l0 154.28 30.86 0 0 -154.28 -30.86 0zm0 308.56l0 154.28 30.86 0 0 -154.28 -30.86 0z"/>
  <polygon class="fil4" points="2713.89,13009.2 27370.87,13009.2 27370.87,13040.06 2713.89,13040.06 "/>
  <path class="fil6" d="M2713.89 12808.34c-119.45,0 -216.29,96.84 -216.29,216.29 0,119.45 96.84,216.28 216.29,216.28 119.45,0 216.28,-96.83 216.28,-216.28 0,-119.45 -96.83,-216.29 -216.28,-216.29z"/>
  <path class="fil7" d="M2713.89 12814.35c-109.48,0 -198.23,86.9 -198.23,194.1 0,107.2 88.75,194.09 198.23,194.09 109.47,0 198.22,-86.89 198.22,-194.09 0,-107.2 -88.75,-194.1 -198.22,-194.1z"/>
  <path class="fil6" d="M18891.25 12809.1c-119.45,0 -216.29,96.84 -216.29,216.29 0,119.45 96.84,216.28 216.29,216.28 119.45,0 216.28,-96.83 216.28,-216.28 0,-119.45 -96.83,-216.29 -216.28,-216.29z"/>
  <path class="fil7" d="M18891.25 12815.11c-109.48,0 -198.23,86.9 -198.23,194.1 0,107.2 88.75,194.09 198.23,194.09 109.48,0 198.23,-86.89 198.23,-194.09 0,-107.2 -88.75,-194.1 -198.23,-194.1z"/>
  <path class="fil6" d="M22185.16 12743.38c-119.45,0 -216.29,96.84 -216.29,216.29 0,119.45 96.84,216.28 216.29,216.28 119.45,0 216.28,-96.83 216.28,-216.28 0,-119.45 -96.83,-216.29 -216.28,-216.29z"/>
  <path class="fil7" d="M22185.16 12749.39c-109.48,0 -198.23,86.9 -198.23,194.1 0,107.2 88.75,194.09 198.23,194.09 109.48,0 198.22,-86.89 198.22,-194.09 0,-107.2 -88.74,-194.1 -198.22,-194.1z"/>
  <path class="fil6" d="M27435.5 12808.34c-119.45,0 -216.28,96.84 -216.28,216.29 0,119.45 96.83,216.28 216.28,216.28 119.45,0 216.29,-96.83 216.29,-216.28 0,-119.45 -96.84,-216.29 -216.29,-216.29z"/>
  <path class="fil7" d="M27435.5 12814.35c-109.48,0 -198.23,86.9 -198.23,194.1 0,107.2 88.75,194.09 198.23,194.09 109.48,0 198.23,-86.89 198.23,-194.09 0,-107.2 -88.75,-194.1 -198.23,-194.1z"/>
  <path class="fil8" d="M12627.89 5184.5c-41.12,0 -73.67,13.73 -97.55,41.12 -23.81,27.48 -35.7,65.01 -35.7,112.69 0,49.09 11.46,86.97 34.47,113.66 22.92,26.77 55.74,40.16 98.34,40.16 26.08,0 55.91,-4.73 89.42,-14.09l0 38.24c-25.99,9.79 -58.01,14.7 -96.15,14.7 -55.21,0 -97.82,-16.72 -127.75,-50.23 -30,-33.51 -45.05,-81.1 -45.05,-142.78 0,-38.68 7.26,-72.54 21.7,-101.59 14.44,-29.04 35.26,-51.44 62.56,-67.1 27.2,-15.76 59.32,-23.62 96.24,-23.62 39.37,0 73.66,7.17 103.06,21.43l-18.46 37.45c-28.35,-13.39 -56.69,-20.04 -85.13,-20.04zm295.03 346.48c-18.29,0 -35,-3.42 -50.13,-10.15 -15.05,-6.75 -27.83,-17.15 -38.06,-31.15l-3.07 0c2.02,16.36 3.07,31.93 3.07,46.63l0 115.41 -42.52 0 0 -406.85 34.56 0 5.94 38.33 2.02 0c10.94,-15.41 23.71,-26.52 38.23,-33.34 14.52,-6.83 31.15,-10.24 49.96,-10.24 37.28,0 66.06,12.77 86.35,38.24 20.22,25.45 30.36,61.15 30.36,107.18 0,46.19 -10.32,82.07 -30.88,107.61 -20.65,25.55 -49.17,38.33 -85.83,38.33zm-6.12 -255.14c-28.7,0 -49.53,7.97 -62.3,23.8 -12.86,15.92 -19.43,41.21 -19.77,75.95l0 9.45c0,39.45 6.56,67.72 19.77,84.69 13.13,17.06 34.29,25.55 63.35,25.55 24.23,0 43.3,-9.8 57.04,-29.49 13.74,-19.68 20.65,-46.72 20.65,-81.28 0,-35 -6.91,-61.86 -20.65,-80.58 -13.74,-18.73 -33.16,-28.09 -58.09,-28.09zm439.56 109.2c0,45.84 -11.54,81.63 -34.55,107.35 -23.11,25.72 -54.95,38.59 -95.64,38.59 -25.11,0 -47.42,-5.86 -66.93,-17.68 -19.42,-11.81 -34.47,-28.78 -45.06,-50.83 -10.67,-22.05 -15.93,-47.87 -15.93,-77.43 0,-45.85 11.47,-81.55 34.39,-107.1 22.84,-25.55 54.69,-38.32 95.28,-38.32 39.37,0 70.52,13.04 93.71,39.19 23.19,26.17 34.73,61.6 34.73,106.23zm-214.01 0c0,35.87 7.18,63.25 21.53,82.07 14.34,18.8 35.43,28.17 63.34,28.17 27.82,0 49,-9.37 63.44,-28.09 14.43,-18.72 21.6,-46.11 21.6,-82.15 0,-35.7 -7.17,-62.83 -21.6,-81.37 -14.44,-18.55 -35.79,-27.83 -63.96,-27.83 -27.92,0 -48.92,9.1 -63.09,27.39 -14.17,18.28 -21.26,45.58 -21.26,81.81zm452.43 -140.17l46.63 0 -121.26 135.53 131.24 145.32 -49.7 0 -128.17 -142.26 0 142.26 -42.52 0 0 -280.85 42.52 0 0 136.58 121.26 -136.58zm148.66 0l0 178.05 -1.84 46.72 -0.7 14.61 152.07 -239.38 53.01 0 0 280.85 -39.72 0 0 -171.66 0.79 -33.86 1.31 -33.33 -151.89 238.85 -53.01 0 0 -280.85 39.98 0zm471.67 280.85l-42.52 0 0 -280.85 235.7 0 0 280.85 -43.04 0 0 -244.11 -150.14 0 0 244.11zm414.28 5.26c-18.29,0 -35,-3.42 -50.13,-10.15 -15.05,-6.75 -27.83,-17.15 -38.06,-31.15l-3.07 0c2.02,16.36 3.07,31.93 3.07,46.63l0 115.41 -42.52 0 0 -406.85 34.56 0 5.94 38.33 2.02 0c10.94,-15.41 23.71,-26.52 38.23,-33.34 14.52,-6.83 31.15,-10.24 49.96,-10.24 37.28,0 66.06,12.77 86.35,38.24 20.22,25.45 30.36,61.15 30.36,107.18 0,46.19 -10.32,82.07 -30.88,107.61 -20.65,25.55 -49.17,38.33 -85.83,38.33zm-6.12 -255.14c-28.7,0 -49.53,7.97 -62.3,23.8 -12.86,15.92 -19.43,41.21 -19.77,75.95l0 9.45c0,39.45 6.56,67.72 19.77,84.69 13.13,17.06 34.29,25.55 63.35,25.55 24.23,0 43.3,-9.8 57.04,-29.49 13.74,-19.68 20.65,-46.72 20.65,-81.28 0,-35 -6.91,-61.86 -20.65,-80.58 -13.74,-18.73 -33.16,-28.09 -58.09,-28.09zm439.56 109.2c0,45.84 -11.54,81.63 -34.56,107.35 -23.1,25.72 -54.94,38.59 -95.63,38.59 -25.11,0 -47.42,-5.86 -66.93,-17.68 -19.42,-11.81 -34.47,-28.78 -45.06,-50.83 -10.67,-22.05 -15.93,-47.87 -15.93,-77.43 0,-45.85 11.47,-81.55 34.39,-107.1 22.84,-25.55 54.69,-38.32 95.28,-38.32 39.37,0 70.52,13.04 93.71,39.19 23.19,26.17 34.73,61.6 34.73,106.23zm-214.01 0c0,35.87 7.18,63.25 21.53,82.07 14.34,18.8 35.43,28.17 63.34,28.17 27.82,0 48.99,-9.37 63.44,-28.09 14.43,-18.72 21.6,-46.11 21.6,-82.15 0,-35.7 -7.17,-62.83 -21.6,-81.37 -14.45,-18.55 -35.79,-27.83 -63.96,-27.83 -27.92,0 -48.92,9.1 -63.09,27.39 -14.17,18.28 -21.26,45.58 -21.26,81.81zm516.56 -69.74c0,18.29 -5.25,32.2 -15.75,41.65 -10.5,9.45 -25.28,15.84 -44.27,19.08l0 2.36c23.98,3.23 41.47,10.23 52.5,20.99 11.03,10.77 16.53,25.64 16.53,44.62 0,26.08 -9.61,46.29 -28.87,60.46 -19.25,14.18 -47.33,21.26 -84.25,21.26l-123.8 0 0 -280.85 123.27 0c69.73,0 104.64,23.45 104.64,70.43zm-33.59 125.82c0,-15.14 -5.78,-26.25 -17.33,-33.16 -11.54,-6.92 -30.62,-10.33 -57.3,-10.33l-77.17 0 0 92.39 78.22 0c49.08,0 73.58,-16.26 73.58,-48.9zm-7.97 -121.79c0,-13.66 -5.24,-23.37 -15.74,-29.14 -10.5,-5.68 -26.43,-8.58 -47.78,-8.58l-80.31 0 0 79.27 72.09 0c26.34,0 44.88,-3.23 55.64,-9.71 10.76,-6.55 16.1,-17.15 16.1,-31.84zm230.9 211.65c-41.56,0 -74.28,-12.69 -98.26,-37.98 -24.06,-25.28 -36.04,-60.45 -36.04,-105.43 0,-45.32 11.11,-81.28 33.42,-107.97 22.31,-26.68 52.23,-39.98 89.85,-39.98 35.18,0 63.09,11.55 83.56,34.74 20.48,23.18 30.8,53.72 30.8,91.6l0 26.95 -193.53 0c0.87,32.99 9.18,58 24.93,75.16 15.84,17.06 38.06,25.63 66.85,25.63 30.18,0 60.11,-6.3 89.67,-18.98l0 37.97c-15.04,6.56 -29.3,11.2 -42.69,14.08 -13.39,2.8 -29.57,4.21 -48.56,4.21zm-11.55 -255.66c-22.57,0 -40.51,7.34 -53.89,22.05 -13.48,14.61 -21.35,34.9 -23.71,60.89l146.81 0c0,-26.77 -5.95,-47.33 -17.94,-61.59 -11.98,-14.27 -29.05,-21.35 -51.27,-21.35zm431.52 347.52l-41.29 0 0 -97.12 -196.42 0 0 97.12 -41.04 0 0 -133.86 22.04 0c22.93,-31.06 40.87,-67.55 53.9,-109.37 12.95,-41.82 19.69,-86.79 20.21,-134.74l142.36 0 0 244.11 40.24 0 0 133.86zm-81.28 -133.86l0 -210.51 -63.08 0c-2.27,37.88 -9.54,76.29 -21.96,115.14 -12.43,38.84 -27.83,70.6 -46.28,95.37l131.32 0zm256.01 42c-41.56,0 -74.28,-12.69 -98.26,-37.98 -24.06,-25.28 -36.05,-60.45 -36.05,-105.43 0,-45.32 11.12,-81.28 33.43,-107.97 22.31,-26.68 52.23,-39.98 89.85,-39.98 35.18,0 63.09,11.55 83.56,34.74 20.47,23.18 30.8,53.72 30.8,91.6l0 26.95 -193.54 0c0.88,32.99 9.19,58 24.94,75.16 15.83,17.06 38.06,25.63 66.84,25.63 30.19,0 60.11,-6.3 89.68,-18.98l0 37.97c-15.04,6.56 -29.31,11.2 -42.7,14.08 -13.38,2.8 -29.56,4.21 -48.55,4.21zm-11.55 -255.66c-22.58,0 -40.51,7.34 -53.89,22.05 -13.48,14.61 -21.36,34.9 -23.72,60.89l146.82 0c0,-26.77 -5.95,-47.33 -17.94,-61.59 -11.99,-14.27 -29.05,-21.35 -51.27,-21.35zm229.93 -30.45l0 117.6 157.49 0 0 -117.6 42.52 0 0 280.85 -42.52 0 0 -126.51 -157.49 0 0 126.51 -42.52 0 0 -280.85 42.52 0zm330.2 0l0 178.05 -1.83 46.72 -0.71 14.61 152.07 -239.38 53.02 0 0 280.85 -39.72 0 0 -171.66 0.79 -33.86 1.31 -33.33 -151.89 238.85 -53.02 0 0 -280.85 39.98 0zm306.84 280.85l-49.78 0 80.75 -118.72c-21.7,-4.82 -38.32,-14.09 -49.87,-27.83 -11.46,-13.73 -17.24,-30.97 -17.24,-51.88 0,-25.55 8.58,-45.68 25.81,-60.37 17.33,-14.7 41.39,-22.05 72.28,-22.05l125.11 0 0 280.85 -42.6 0 0 -112.33 -70.97 0 -73.49 112.33zm5.34 -197.91c0,32.55 23.62,48.83 70.69,48.83l68.43 0 0 -95.03 -77.09 0c-41.39,0 -62.03,15.41 -62.03,46.2zm265.8 170.71c0,-11.38 2.63,-20.04 7.79,-25.91 5.25,-5.86 12.69,-8.83 22.49,-8.83 9.88,0 17.58,2.97 23.18,8.83 5.52,5.87 8.32,14.53 8.32,25.91 0,11.11 -2.8,19.68 -8.4,25.63 -5.69,5.95 -13.39,8.93 -23.1,8.93 -8.76,0 -15.93,-2.72 -21.7,-8.06 -5.68,-5.34 -8.58,-14.17 -8.58,-26.5zm0 -226.35c0,-23.1 10.07,-34.65 30.28,-34.65 21,0 31.5,11.55 31.5,34.65 0,11.11 -2.8,19.68 -8.4,25.64 -5.69,6.03 -13.39,9.01 -23.1,9.01 -8.76,0 -15.93,-2.72 -21.7,-8.06 -5.68,-5.42 -8.58,-14.25 -8.58,-26.59z"/>
  <path class="fil9" d="M2414.45 14478.82l-70.17 0 0 -768.44 -231.89 86.16 0 -65.57 290.47 -107.75 11.59 0 0 855.6zm342.27 -437l41.58 -415.8 426.2 0 0 65.17 -366.03 0 -29.78 288.06c7.39,-4.99 16.59,-10.39 27.58,-16.19 10.8,-5.6 23.19,-10.59 36.79,-15.19 13.79,-4.4 28.58,-8.2 44.78,-11 16.19,-3 33.38,-4.39 51.37,-4.39 37.78,0 72.37,6.19 103.35,18.99 30.99,12.59 57.58,30.98 79.57,54.77 22.19,23.79 39.18,52.58 51.37,86.36 12,33.78 18.19,71.97 18.19,114.55 0,40.98 -4.99,78.76 -14.99,113.14 -9.99,34.59 -25.39,64.57 -46.38,89.76 -20.79,25.19 -47.38,44.78 -79.36,59.17 -31.99,14.2 -69.97,21.39 -114.15,21.39 -33.98,0 -65.97,-4.79 -95.95,-14.39 -30.19,-9.59 -56.78,-24.19 -79.77,-43.58 -22.98,-19.59 -41.78,-44.18 -56.57,-73.96 -14.59,-29.59 -23.59,-64.37 -27.19,-104.16l67.37 0c6.6,58.18 26.39,102.16 59.18,132.14 32.78,29.79 77.16,44.78 132.93,44.78 60.97,0 106.95,-19.39 137.94,-57.97 30.98,-38.78 46.58,-93.76 46.58,-165.32 0,-29.99 -4.4,-57.98 -13,-83.56 -8.39,-25.79 -20.99,-48.38 -37.38,-67.37 -16.39,-19.19 -36.78,-34.19 -60.97,-44.78 -24.19,-10.8 -51.78,-16.19 -83.16,-16.19 -20.59,0 -38.78,1.39 -54.38,4.39 -15.59,3 -29.98,7 -42.78,12.2 -12.99,5.4 -24.79,11.79 -35.38,19.39 -10.8,7.59 -21.39,16.19 -31.99,25.59l-55.57 -16z"/>
  <path class="fil9" d="M2341.46 15011.9l148.16 -316.91 50.92 0 0 372.77 -41.27 0 0 -305.98 -143.35 305.98 -29.28 0 -146.05 -312.8 0 312.8 -41.04 0 0 -372.77 54.09 0 147.82 316.91zm544.68 55.86c-2.35,-6.47 -4.11,-14.35 -5.29,-23.64 -1.29,-9.29 -2.11,-18.69 -2.58,-28.34 -6.24,8 -13.65,15.53 -22.11,22.7 -8.47,7.05 -17.99,13.29 -28.58,18.58 -10.58,5.29 -22.1,9.52 -34.8,12.82 -12.59,3.17 -26.35,4.82 -41.04,4.82 -18.11,0 -34.58,-2.71 -49.39,-8 -14.82,-5.29 -27.4,-12.7 -37.87,-22.22 -10.46,-9.53 -18.58,-20.7 -24.34,-33.52 -5.76,-12.93 -8.59,-26.93 -8.59,-42.1 0,-18.11 3.89,-34.45 11.76,-49.03 7.77,-14.58 19.05,-27.05 33.75,-37.28 14.7,-10.23 32.58,-17.99 53.51,-23.4 21.05,-5.41 44.68,-8.11 70.79,-8.11l76.55 0 0 -42.34c0,-26.69 -8.23,-47.62 -24.69,-62.91 -16.35,-15.29 -40.34,-22.93 -71.85,-22.93 -14.47,0 -27.75,2 -39.87,5.88 -12.23,3.88 -22.69,9.29 -31.63,16.23 -8.82,6.82 -15.64,14.81 -20.58,23.87 -4.94,9.17 -7.41,18.81 -7.41,29.16l-41.39 -0.35c0,-14 3.41,-27.52 10.35,-40.69 6.94,-13.05 16.58,-24.69 29.16,-34.92 12.47,-10.24 27.52,-18.47 45.04,-24.58 17.64,-6.23 37.04,-9.41 58.45,-9.41 19.75,0 37.98,2.59 54.56,7.64 16.7,5.06 31.04,12.59 42.92,22.7 11.99,10.11 21.28,22.81 27.87,37.98 6.7,15.05 10,32.81 10,53.04l0 180.5c0,6.47 0.23,13.06 0.7,19.99 0.47,6.82 1.18,13.53 2.24,19.99 1.05,6.35 2.23,12.59 3.64,18.35 1.41,5.88 2.94,11.05 4.82,15.4l0 4.12 -44.1 0zm-129.58 -29.63c14.93,0 28.81,-1.89 41.51,-5.65 12.81,-3.88 24.34,-9.05 34.69,-15.76 10.35,-6.58 19.28,-14.34 26.81,-23.16 7.64,-8.94 13.76,-18.46 18.34,-28.81l0 -81.96 -70.67 0c-21.17,0 -39.98,1.88 -56.68,5.64 -16.58,3.76 -30.69,9.29 -42.22,16.35 -11.4,7.17 -20.22,15.75 -26.34,25.98 -6.11,10.23 -9.05,21.88 -9.05,34.69 0,10.12 1.88,19.52 5.76,28.46 4,8.82 9.52,16.46 16.7,23.05 7.29,6.58 16.11,11.64 26.46,15.52 10.23,3.76 21.87,5.65 34.69,5.65zm544.1 -343.14l0 372.77 -41.4 0 0 -150.17 -115.71 0 -91.02 150.17 -45.5 0 93.72 -155.34c-13.06,-3.53 -24.58,-8.59 -34.58,-15.17 -9.99,-6.7 -18.34,-14.58 -25.16,-23.75 -6.82,-9.18 -11.88,-19.52 -15.52,-30.93 -3.53,-11.29 -5.29,-23.4 -5.29,-36.34 0,-15.76 2.94,-30.57 8.82,-44.21 5.76,-13.64 14.46,-25.4 25.75,-35.28 11.4,-9.88 25.4,-17.64 42.1,-23.28 16.58,-5.65 35.63,-8.47 57.03,-8.47l146.76 0zm-239.19 111.95c0,9.64 1.65,18.93 4.7,27.99 3.06,8.93 7.88,16.93 14.47,24.1 6.58,7.06 14.93,12.7 25.16,17.05 10.23,4.24 22.58,6.35 37.05,6.35l116.41 0 0 -152.28 -105.36 0c-16.35,0 -30.34,2.12 -42.1,6.35 -11.64,4.23 -21.28,10 -28.81,17.05 -7.41,7.17 -12.82,15.41 -16.34,24.7 -3.41,9.29 -5.18,18.81 -5.18,28.69z"/>
  <path class="fil9" d="M18519.29 14009.05l67.17 0c30.86,0 57.95,-4.14 81.28,-12.42 23.33,-8.27 42.9,-19.56 58.7,-33.67 15.81,-14.12 27.66,-30.67 35.56,-49.68 7.91,-18.81 11.86,-38.94 11.86,-60.2 0,-24.27 -3.39,-46.48 -10.16,-66.42 -6.78,-20.13 -17.12,-37.44 -30.86,-51.93 -13.73,-14.49 -31.23,-25.78 -52.3,-33.87 -21.26,-8.09 -46.29,-12.04 -75.26,-12.04 -25.4,0 -48.73,3.77 -69.99,11.48 -21.45,7.71 -39.89,18.81 -55.7,33.11 -15.8,14.3 -28.22,31.61 -37.06,52.12 -8.66,20.32 -13.17,43.28 -13.17,68.49l-66.04 0c0,-32.18 6.02,-62.09 18.44,-89.19 12.23,-27.28 29.16,-50.61 50.61,-70.36 21.64,-19.57 47.04,-34.81 76.58,-45.72 29.72,-10.73 61.71,-16.18 96.33,-16.18 35.18,0 67.35,4.89 96.33,14.86 29.16,9.97 53.81,24.27 74.13,43.27 20.51,18.82 36.31,42.15 47.41,69.62 11.29,27.66 16.94,59.27 16.94,94.83 0,18.06 -3.01,35.93 -8.85,53.81 -5.83,17.87 -14.48,34.62 -25.96,50.42 -11.29,15.8 -25.78,30.29 -42.9,43.27 -17.31,12.99 -37.25,23.9 -59.64,32.18 26.53,7.34 49.29,17.5 68.48,30.1 19.01,12.8 34.81,27.47 47.04,44.4 12.23,16.94 21.45,35.38 27.66,55.7 6.02,20.13 9.03,41.39 9.03,63.4 0,36.32 -6.21,68.68 -18.82,96.9 -12.41,28.41 -29.72,52.3 -51.74,72.06 -22.01,19.57 -48.16,34.43 -78.27,44.59 -30.1,10.16 -62.84,15.24 -98.21,15.24 -32.55,0 -64.35,-4.89 -95.01,-14.49 -30.67,-9.4 -58.14,-23.7 -82.22,-42.71 -23.9,-18.81 -43.28,-42.71 -57.77,-71.3 -14.48,-28.6 -21.82,-62.09 -21.82,-100.29l66.23 0c0,25.21 4.7,48.73 13.92,69.99 9.41,21.26 22.58,39.51 39.51,54.75 16.93,15.24 37.07,27.1 60.4,35.56 23.33,8.47 48.92,12.8 76.76,12.8 57.01,0 101.41,-14.68 133.21,-43.84 31.8,-29.16 47.6,-71.68 47.6,-127.19 0,-28.97 -4.89,-54 -14.49,-74.88 -9.78,-20.89 -23.51,-38.2 -41.39,-51.55 -17.87,-13.36 -39.13,-23.15 -63.97,-29.54 -24.83,-6.21 -52.3,-9.22 -82.41,-9.22l-67.17 0 0 -56.26zm962.94 102.54c0,58.7 -5.64,109.88 -16.55,153.16 -11.1,43.46 -27.1,79.21 -47.98,107.8 -20.89,28.41 -46.66,49.68 -77.14,63.6 -30.48,13.92 -65.29,21.07 -104.24,21.07 -38.57,0 -73.19,-7.15 -103.67,-21.07 -30.48,-13.92 -56.44,-35.19 -77.7,-63.6 -21.26,-28.59 -37.63,-64.34 -49.11,-107.8 -11.29,-43.28 -16.93,-94.46 -16.93,-153.16l0 -135.65c0,-58.89 5.45,-109.88 16.74,-152.97 11.1,-43.27 27.28,-78.83 48.55,-106.87 21.07,-28.22 46.84,-49.1 77.32,-62.84 30.67,-13.92 65.1,-20.69 103.67,-20.69 38.57,0 73.19,6.77 103.86,20.69 30.67,13.74 56.63,34.62 77.9,62.84 21.07,28.04 37.25,63.6 48.35,106.87 11.29,43.09 16.93,94.08 16.93,152.97l0 135.65zm-66.23 -143.93c0,-91.82 -14.86,-161.24 -44.96,-208.28 -29.92,-47.04 -75.26,-70.56 -135.85,-70.56 -60.2,0 -105.36,23.52 -135.65,70.56 -30.1,47.04 -45.16,116.46 -45.16,208.28l0 151.08c0,45.16 3.95,85.23 11.67,120.42 7.71,34.99 19.19,64.72 34.43,88.8 15.24,24.09 34.24,42.34 57.01,54.75 22.77,12.61 49.11,18.82 78.83,18.82 30.11,0 56.45,-6.21 79.03,-18.82 22.76,-12.41 41.39,-30.66 56.25,-54.75 14.87,-24.08 25.97,-53.81 33.49,-88.8 7.34,-35.19 10.91,-75.26 10.91,-120.42l0 -151.08z"/>
  <path class="fil9" d="M18688.77 15073.89c-2.47,-6.79 -4.32,-15.06 -5.55,-24.82 -1.36,-9.75 -2.23,-19.63 -2.72,-29.75 -6.54,8.39 -14.32,16.29 -23.21,23.83 -8.89,7.4 -18.89,13.95 -30.01,19.5 -11.11,5.56 -23.21,10.01 -36.54,13.46 -13.21,3.34 -27.66,5.06 -43.09,5.06 -19.02,0 -36.31,-2.84 -51.86,-8.39 -15.56,-5.56 -28.77,-13.34 -39.76,-23.34 -10.99,-10 -19.51,-21.73 -25.56,-35.19 -6.05,-13.58 -9.01,-28.27 -9.01,-44.2 0,-19.01 4.07,-36.18 12.34,-51.49 8.15,-15.31 20.01,-28.4 35.44,-39.14 15.43,-10.74 34.2,-18.89 56.18,-24.57 22.1,-5.68 46.92,-8.52 74.33,-8.52l80.38 0 0 -44.45c0,-28.03 -8.64,-50 -25.93,-66.06 -17.16,-16.05 -42.35,-24.07 -75.44,-24.07 -15.19,0 -29.14,2.1 -41.86,6.17 -12.84,4.08 -23.83,9.76 -33.21,17.04 -9.26,7.16 -16.42,15.56 -21.61,25.07 -5.18,9.63 -7.78,19.75 -7.78,30.62l-43.46 -0.37c0,-14.7 3.58,-28.9 10.87,-42.73 7.28,-13.7 17.41,-25.92 30.62,-36.67 13.09,-10.74 28.89,-19.38 47.29,-25.8 18.52,-6.55 38.89,-9.88 61.36,-9.88 20.75,0 39.88,2.72 57.29,8.03 17.54,5.3 32.6,13.21 45.07,23.83 12.59,10.61 22.35,23.95 29.26,39.88 7.04,15.8 10.5,34.45 10.5,55.68l0 189.53c0,6.79 0.25,13.71 0.74,20.99 0.49,7.16 1.23,14.2 2.35,20.99 1.11,6.67 2.34,13.21 3.82,19.26 1.48,6.18 3.09,11.61 5.07,16.18l0 4.32 -46.31 0zm-136.06 -31.11c15.68,0 30.25,-1.98 43.58,-5.93 13.46,-4.08 25.56,-9.51 36.43,-16.55 10.86,-6.91 20.25,-15.06 28.15,-24.32 8.02,-9.38 14.44,-19.39 19.26,-30.25l0 -86.06 -74.21 0c-22.22,0 -41.98,1.97 -59.51,5.93 -17.41,3.95 -32.23,9.75 -44.33,17.16 -11.97,7.53 -21.23,16.54 -27.65,27.29 -6.42,10.74 -9.51,22.96 -9.51,36.42 0,10.62 1.97,20.5 6.05,29.88 4.2,9.26 10,17.29 17.53,24.2 7.66,6.91 16.92,12.22 27.78,16.3 10.75,3.95 22.97,5.93 36.43,5.93zm308.55 31.11l0 -391.41 143.6 0c23.95,0 45.31,2.1 64.2,6.3 19.02,4.2 35.07,10.62 48.53,19.26 13.33,8.52 23.58,19.39 30.74,32.48 7.04,13.21 10.62,28.64 10.62,46.55 0,19.5 -5.93,36.91 -17.66,52.22 -11.85,15.31 -29.14,26.43 -51.73,33.46 12.96,2.47 24.69,6.55 35.19,12.35 10.49,5.8 19.51,12.72 26.79,20.99 7.41,8.15 13.09,17.29 17.04,27.41 3.95,10.13 5.93,20.75 5.93,31.86 0,18.15 -3.46,33.95 -10.25,47.41 -6.92,13.46 -16.67,24.82 -29.39,33.83 -12.59,9.02 -27.78,15.81 -45.56,20.38 -17.66,4.56 -37.53,6.91 -59.51,6.91l-168.54 0zm43.09 -180.15l0 143.97 125.45 0c32.59,0 57.66,-6.29 75.32,-18.76 17.53,-12.6 26.42,-30.63 26.42,-54.33 0,-21.73 -8.89,-38.9 -26.42,-51.74 -17.66,-12.71 -42.73,-19.14 -75.32,-19.14l-125.45 0zm0 -36.17l109.52 0c33.83,-0.5 59.27,-6.55 76.43,-18.28 17.04,-11.73 25.68,-28.77 25.68,-51.24 0,-23.83 -9.38,-41.24 -28.03,-52.23 -18.77,-10.98 -46.42,-16.42 -83.09,-16.42l-100.51 0 0 138.17zm628.21 -137.8l-197.92 0 0 354.12 -43.34 0 0 -391.41 241.26 0 0 37.29z"/>
  <path class="fil9" d="M22096.9 14424.31l-502.73 0 0 -50.8 263.03 -298.03c24.65,-28.03 45.53,-53.24 62.46,-75.63 17.13,-22.39 30.86,-43.28 41.4,-62.47 10.53,-19.38 18.06,-37.63 22.57,-54.56 4.71,-17.12 6.97,-34.24 6.97,-50.99 0,-24.27 -3.58,-46.47 -10.73,-66.42 -7.15,-20.13 -17.87,-37.44 -31.98,-52.11 -14.11,-14.68 -31.8,-26.16 -52.69,-34.25 -20.88,-8.09 -44.96,-12.04 -72.24,-12.04 -27.85,0 -53.06,4.52 -75.26,13.93 -22.2,9.4 -41.02,22.39 -56.64,38.94 -15.61,16.56 -27.65,36.13 -36.12,58.89 -8.47,22.77 -12.79,47.6 -12.79,74.51l-65.48 0c0,-33.11 5.46,-64.35 16.74,-93.7 11.29,-29.54 27.47,-55.13 48.74,-77.14 21.44,-22.2 47.22,-39.51 77.51,-52.49 30.29,-12.8 64.73,-19.19 103.3,-19.19 36.12,0 68.48,4.89 97.64,14.48 28.98,9.79 53.63,23.9 73.76,42.53 20.32,18.62 35.75,41.2 46.66,67.73 10.72,26.72 16.18,57.01 16.18,90.69 0,24.27 -4.33,48.73 -13.17,73.37 -8.84,24.65 -20.51,49.11 -35.37,73.38 -14.68,24.27 -31.42,48.17 -50.61,72.06 -19.19,23.9 -38.76,47.42 -58.89,70.56l-223.9 253.06 421.64 0 0 55.69zm167.64 -411.29l39.13 -391.35 401.13 0 0 61.34 -344.5 0 -28.03 271.12c6.96,-4.71 15.62,-9.79 25.96,-15.24 10.16,-5.27 21.83,-9.97 34.62,-14.3 12.99,-4.14 26.91,-7.72 42.15,-10.35 15.24,-2.82 31.42,-4.14 48.35,-4.14 35.56,0 68.11,5.83 97.28,17.87 29.16,11.86 54.18,29.17 74.88,51.56 20.88,22.39 36.88,49.48 48.35,81.28 11.29,31.79 17.12,67.73 17.12,107.81 0,38.57 -4.7,74.13 -14.11,106.49 -9.4,32.55 -23.89,60.77 -43.65,84.48 -19.56,23.7 -44.59,42.14 -74.69,55.69 -30.11,13.36 -65.85,20.13 -107.43,20.13 -31.99,0 -62.09,-4.51 -90.32,-13.55 -28.41,-9.03 -53.43,-22.76 -75.07,-41.01 -21.63,-18.44 -39.32,-41.58 -53.24,-69.62 -13.74,-27.84 -22.2,-60.58 -25.59,-98.02l63.4 0c6.21,54.75 24.84,96.14 55.7,124.36 30.85,28.04 72.62,42.15 125.12,42.15 57.38,0 100.65,-18.25 129.82,-54.56 29.16,-36.5 43.84,-88.25 43.84,-155.6 0,-28.23 -4.14,-54.57 -12.23,-78.65 -7.91,-24.27 -19.76,-45.53 -35.19,-63.4 -15.43,-18.07 -34.62,-32.18 -57.38,-42.15 -22.77,-10.16 -48.73,-15.24 -78.27,-15.24 -19.38,0 -36.5,1.32 -51.18,4.14 -14.67,2.82 -28.22,6.58 -40.26,11.48 -12.23,5.08 -23.33,11.1 -33.3,18.25 -10.16,7.15 -20.14,15.24 -30.11,24.08l-52.3 -15.05z"/>
  <path class="fil9" d="M21799.26 14999.85c13.7,0 26.91,-1.98 39.63,-6.05 12.59,-3.95 23.95,-9.76 33.83,-17.54 9.88,-7.65 18.03,-17.16 24.32,-28.52 6.43,-11.36 10.13,-24.45 11.12,-39.51l41.61 0c-0.99,18.65 -5.68,35.81 -13.95,51.37 -8.28,15.68 -19.27,29.26 -32.97,40.62 -13.58,11.23 -29.26,20.12 -47.17,26.54 -17.9,6.42 -36.67,9.63 -56.42,9.63 -27.54,0 -51.62,-5.06 -72.36,-15.06 -20.74,-10 -38.15,-23.83 -52.23,-41.36 -14.2,-17.66 -24.82,-38.28 -31.85,-62.11 -7.16,-23.7 -10.75,-49.39 -10.75,-76.8l0 -15.31c0,-27.41 3.59,-53.09 10.75,-76.8 7.03,-23.7 17.65,-44.32 31.61,-61.86 13.95,-17.53 31.48,-31.23 52.35,-41.48 20.74,-10.13 44.82,-15.19 72.1,-15.19 21,0 40.5,3.33 58.41,9.88 18.02,6.42 33.7,15.8 47.04,27.78 13.33,12.1 24.08,26.67 31.98,43.95 8.02,17.29 12.47,36.55 13.46,57.67l-41.61 0c-0.99,-15.93 -4.45,-30.13 -10.37,-42.6 -5.93,-12.6 -13.71,-23.34 -23.46,-32.23 -9.76,-8.89 -21.12,-15.68 -34.08,-20.49 -12.84,-4.7 -26.67,-7.04 -41.37,-7.04 -22.47,0 -41.36,4.32 -56.92,13.09 -15.55,8.64 -28.27,20.37 -38.27,35.06 -9.88,14.7 -17.04,31.61 -21.49,50.63 -4.44,19.01 -6.66,39.01 -6.66,59.63l0 15.31c0,20.87 2.22,41 6.66,60.13 4.45,19.26 11.61,36.06 21.36,50.63 9.76,14.69 22.6,26.3 38.4,34.94 15.81,8.77 34.82,13.09 57.3,13.09zm388.56 36.54c-25.56,0 -49.14,-4.81 -70.63,-14.32 -21.48,-9.51 -39.88,-22.84 -55.43,-39.76 -15.56,-17.03 -27.66,-37.28 -36.43,-60.62 -8.64,-23.46 -12.96,-49.14 -12.96,-77.05l0 -15.55c0,-30.13 4.44,-57.42 13.58,-81.99 9.01,-24.45 21.24,-45.31 36.67,-62.6 15.43,-17.16 33.21,-30.5 53.34,-39.88 20.13,-9.38 41.36,-14.2 63.83,-14.2 24.82,0 46.92,4.57 66.18,13.46 19.39,8.89 35.56,21.36 48.65,37.29 13.21,15.92 23.09,34.82 29.88,56.79 6.79,21.86 10.13,45.94 10.13,71.99l0 26.3 -279.3 0 0 8.39c0,21.49 3.34,41.61 9.76,60.63 6.54,18.89 15.68,35.31 27.53,49.26 11.86,14.08 25.93,25.07 42.35,33.22 16.43,8.02 34.58,12.1 54.58,12.1 23.21,0 43.58,-4.2 61.36,-12.72 17.66,-8.4 33.84,-21.98 48.28,-40.5l27.16 20.62c-6.54,9.38 -14.07,18.27 -22.59,26.79 -8.64,8.4 -18.52,15.81 -29.88,21.98 -11.36,6.3 -24.08,11.24 -38.4,14.94 -14.2,3.58 -30.13,5.43 -47.66,5.43zm-8.03 -369.05c-16.42,0 -31.6,3.21 -45.56,9.38 -13.95,6.3 -26.3,15.31 -37.04,26.8 -10.74,11.6 -19.63,25.55 -26.42,41.85 -6.92,16.3 -11.48,34.2 -13.95,54.08l234.72 0 0 -4.69c-0.37,-16.42 -3.09,-32.35 -7.91,-47.66 -4.81,-15.31 -11.85,-28.89 -21.11,-40.62 -9.38,-11.85 -20.87,-21.36 -34.57,-28.4 -13.83,-7.16 -29.76,-10.74 -48.16,-10.74zm539.82 361.77l-43.46 0 0 -179.4 -210.89 0 0 179.4 -43.46 0 0 -391.41 43.46 0 0 175.46 210.89 0 0 -175.46 43.46 0 0 391.41z"/>
  <polygon class="fil9" points="27555.18,14427.51 27489.14,14427.51 27489.14,13704.27 27270.88,13785.36 27270.88,13723.65 27544.26,13622.24 27555.18,13622.24 "/>
  <path class="fil9" d="M27044.95 14874.06c0,-27.05 3.88,-52.09 11.88,-75.14 7.88,-22.93 19.05,-42.69 33.51,-59.38 14.47,-16.58 31.99,-29.64 52.45,-39.04 20.46,-9.53 43.16,-14.23 68.2,-14.23 25.52,0 48.45,4.7 69.03,14.23 20.58,9.4 38.1,22.46 52.56,39.04 14.47,16.69 25.64,36.45 33.4,59.38 7.88,23.05 11.76,48.09 11.76,75.14l0 11.41c0,27.04 -3.88,52.09 -11.76,75.02 -7.76,23.05 -18.93,42.8 -33.4,59.5 -14.46,16.58 -31.86,29.63 -52.32,38.92 -20.47,9.29 -43.28,14 -68.56,14 -25.28,0 -48.21,-4.71 -68.56,-14 -20.46,-9.29 -37.98,-22.34 -52.56,-38.92 -14.58,-16.7 -25.87,-36.45 -33.75,-59.5 -8,-22.93 -11.88,-47.98 -11.88,-75.02l0 -11.41zm41.28 11.41c0,20.46 2.82,39.86 8.35,58.32 5.41,18.58 13.52,34.69 24.1,48.57 10.59,13.99 23.64,25.04 39.28,33.28 15.52,8.35 33.51,12.46 53.74,12.46 20.22,0 37.98,-4.11 53.5,-12.46 15.53,-8.24 28.58,-19.29 39.16,-33.28 10.58,-13.88 18.58,-29.99 24.11,-48.57 5.52,-18.46 8.23,-37.86 8.23,-58.32l0 -11.41c0,-19.99 -2.71,-39.16 -8.23,-57.74 -5.53,-18.46 -13.53,-34.69 -24.11,-48.68 -10.58,-13.99 -23.75,-25.16 -39.51,-33.63 -15.76,-8.35 -33.63,-12.58 -53.86,-12.58 -19.99,0 -37.74,4.23 -53.27,12.58 -15.52,8.47 -28.45,19.64 -39.04,33.63 -10.58,13.99 -18.69,30.22 -24.1,48.68 -5.53,18.58 -8.35,37.75 -8.35,57.74l0 11.41zm477.78 9.64l-57.15 0 0 170.86 -41.63 0 0 -372.77 41.63 0 0 165.34 56.56 0 136.76 -165.34 51.97 0 -152.98 180.86 169.92 191.91 -54.45 0 -150.63 -170.86zm531.86 -166.75l-135.7 0 0 337.61 -41.28 0 0 -337.61 -130.64 0 0 -35.16 307.62 0 0 35.16z"/>
  <path class="fil4" d="M18875.82 12691.38l0 181.07 30.85 0 0 -181.07 -30.85 0zm0 -2534.97l0 181.07 30.85 0 0 -181.07 -30.85 0zm0 362.14l0 181.07 30.85 0 0 -181.07 -30.85 0zm0 362.14l0 181.07 30.85 0 0 -181.07 -30.85 0zm0 362.14l0 181.07 30.85 0 0 -181.07 -30.85 0zm0 362.13l0 181.07 30.85 0 0 -181.07 -30.85 0zm0 362.14l0 181.07 30.85 0 0 -181.07 -30.85 0zm0 362.14l0 181.07 30.85 0 0 -181.07 -30.85 0z"/>
 </g>
</svg>
