<?xml version="1.0" encoding="UTF-8" standalone="no"?>
<svg width="116px" height="130px" viewBox="0 0 116 130" version="1.1" xmlns="http://www.w3.org/2000/svg" xmlns:xlink="http://www.w3.org/1999/xlink" xmlns:sketch="http://www.bohemiancoding.com/sketch/ns">
    <g transform="translate(-2.000000, 0.500000)" fill="#FFFFFF">
        <g transform="translate(7.000000, 0.000000)">
            <path d="M32.5326479,23.7153133 C32.2890257,23.5520956 32.2078183,23.2256601 32.3702331,22.9808335 C32.5326479,22.7081639 32.8574776,22.653438 33.1288059,22.8176158 C35.077784,24.0686316 37.4070039,24.5314019 39.7639299,23.9601399 C41.9574856,23.4426437 44.1510413,22.082176 46.1544762,19.659833 C46.3445971,19.4150064 46.6961774,19.3881235 46.913049,19.5782241 C47.1566713,19.7692849 47.1834219,20.1226032 46.9942564,20.3405469 C44.8274514,22.9529905 42.4170241,24.449793 40.0075521,25.0220152 C37.3535026,25.674886 34.7262037,25.1305069 32.5326479,23.7153133" id="Fill-1"></path>
            <path d="M43.3657178,13.617897 C43.5281327,13.4009134 43.8529623,13.3730704 44.0698339,13.5641312 C44.2857501,13.7542318 44.3134562,14.1085103 44.1233353,14.3254938 C39.2222286,20.6400994 33.1823073,21.8373494 27.5770845,22.9529905 C24.923035,23.4704867 22.3769435,23.9601399 20.128931,24.9941721 C18.7484049,25.5932772 17.1768025,26.6004265 16.0398986,27.8792854 C15.1456616,28.8317088 14.5237083,29.9751929 14.3880441,31.2540518 C14.25238,32.5329106 14.5237083,33.6763948 15.0921602,34.6019353 C15.4169899,35.1453543 15.8774837,35.6081245 16.3924343,35.962403 C16.9331802,36.2888384 17.5025875,36.5067821 18.1522469,36.5883909 C19.0455285,36.6699998 20.0209729,36.4789391 20.9687113,35.8807941 C21.9976571,35.2269631 22.6205658,34.2476568 22.864188,33.1857815 C23.1355163,31.9885315 22.9453954,30.7096727 22.3769435,29.7294063 C22.2145287,29.4845797 22.2957361,29.1581442 22.5393583,28.9949265 C22.7562299,28.8317088 23.0810596,28.9133176 23.2167238,29.1581442 C23.9208399,30.3553942 24.1644621,31.9616486 23.8396325,33.4584511 C23.5415534,34.7641929 22.7562299,36.0171289 21.4559558,36.8332175 C20.3190519,37.5408144 19.1276913,37.7856409 18.0442888,37.6771492 C17.2589653,37.5955403 16.5271431,37.3228707 15.8774837,36.8879435 C15.2278244,36.4520561 14.6584171,35.8807941 14.25238,35.2000802 C13.5482638,34.0844391 13.2234342,32.6692454 13.385849,31.117717 C13.5482638,29.5940316 14.280086,28.2326037 15.3090318,27.1169626 C16.5815998,25.701769 18.260205,24.6408538 19.7496446,23.9870228 C22.0788645,22.9261076 24.6794127,22.4086114 27.3869636,21.8642323 C32.8307269,20.8033171 38.6805274,19.6329501 43.3657178,13.617897" id="Fill-2"></path>
            <path d="M73.8051251,22.8176158 C74.0487473,22.653438 74.373577,22.7081639 74.5359919,22.9808335 C74.6984067,23.2256601 74.6171993,23.5520956 74.373577,23.7153133 C72.1800213,25.1305069 69.5536778,25.674886 66.8996282,25.0220152 C64.5159516,24.449793 62.0787736,22.9529905 59.9396746,20.3405469 C59.7495537,20.1226032 59.7772598,19.7692849 59.993176,19.5782241 C60.2367982,19.3881235 60.5625833,19.4150064 60.7517488,19.659833 C62.756139,22.082176 64.9764454,23.4426437 67.1432505,23.9601399 C69.499221,24.5314019 71.8551916,24.0686316 73.8051251,22.8176158" id="Fill-3"></path>
            <path d="M30.4470503,19.1154539 C30.6094652,19.3602805 30.5559638,19.7145589 30.2846355,19.8777766 C30.0410132,20.0409944 29.7161835,19.9862684 29.5537687,19.7414418 C29.1200255,19.1154539 28.8496526,18.3809741 28.6872378,17.6464944 C28.4436155,16.4761273 28.5248229,15.2510343 28.8764033,14.1353932 C29.2556897,12.991909 29.9330551,11.9857198 30.9075442,11.3318888 C31.4224947,10.9785704 31.9909467,10.7337438 32.6138554,10.624292 L32.6138554,10.597409 L32.640606,10.597409 C34.401374,10.2162477 35.8908136,10.624292 37.0554236,11.4682236 C38.2200335,12.2843122 39.005357,13.5094052 39.27573,14.7882641 C39.3301867,15.0878166 39.1410212,15.3873691 38.8696929,15.442095 C38.5716139,15.4958609 38.2735349,15.3057602 38.2200335,15.0062077 C38.0031619,13.9990584 37.3535026,12.991909 36.4325149,12.3390381 C35.5115272,11.6861673 34.2934159,11.3597318 32.8851837,11.6583242 L32.8574776,11.6583242 L32.8307269,11.6861673 C32.342527,11.7677761 31.9097393,11.9578768 31.5304528,12.2305464 C30.7451293,12.7470824 30.2034281,13.5641312 29.9053491,14.4618286 C29.6082254,15.414252 29.5260626,16.4482843 29.7429342,17.4016678 C29.8785984,18.0276558 30.09547,18.6258007 30.4470503,19.1154539 L30.4470503,19.1154539 Z" id="Fill-4"></path>
            <path d="M62.7828897,14.3254938 C62.6204749,14.1085103 62.6472255,13.7542318 62.8373464,13.5641312 C63.0532626,13.3730704 63.3790477,13.4009134 63.5682132,13.617897 C68.226653,19.6329501 74.075498,20.8033171 79.5192613,21.8642323 C82.2277676,22.4086114 84.8273605,22.9261076 87.183331,23.9870228 C88.64602,24.6408538 90.3523312,25.701769 91.5981486,27.1169626 C92.6270943,28.2326037 93.3856672,29.5940316 93.548082,31.117717 C93.7104969,32.6692454 93.3579611,34.0844391 92.6805957,35.2000802 C92.2478079,35.8807941 91.679356,36.4520561 91.0287412,36.8879435 C90.3790819,37.3228707 89.6482151,37.5955403 88.8628916,37.6771492 C87.779489,37.7856409 86.6148791,37.5408144 85.4502691,36.8332175 C84.149995,36.0171289 83.3923776,34.7641929 83.0942986,33.4584511 C82.7417628,31.9616486 82.9853851,30.3553942 83.6895012,29.1581442 C83.8251654,28.9133176 84.149995,28.8317088 84.3936173,28.9949265 C84.6104889,29.1581442 84.6916963,29.4845797 84.5292815,29.7294063 C83.9875802,30.7096727 83.7984147,31.9885315 84.0687876,33.1857815 C84.3124099,34.2476568 84.9085679,35.2269631 85.9642643,35.8807941 C86.9129581,36.4789391 87.8874471,36.6699998 88.7816841,36.5883909 C89.4036374,36.5067821 89.9997954,36.2888384 90.514746,35.962403 C91.0287412,35.6081245 91.4892351,35.1453543 91.8417708,34.6019353 C92.3834721,33.6763948 92.6805957,32.5329106 92.5458869,31.2540518 C92.4102228,29.9751929 91.7605634,28.8317088 90.8940325,27.8792854 C89.7294225,26.6004265 88.1587755,25.5932772 86.8040446,24.9941721 C84.5292815,23.9601399 81.9841454,23.4704867 79.3568465,22.9529905 C73.7239177,21.8373494 67.6849517,20.6400994 62.7828897,14.3254938" id="Fill-5"></path>
            <path d="M50.0275924,14.5434375 L53.0609284,11.4134977 C53.2768446,11.1965141 53.6293804,11.1965141 53.8462519,11.3866147 L53.8462519,11.4134977 L56.8786325,14.5434375 L55.714978,10.3247394 C55.6337706,10.026147 55.7961854,9.7265945 56.093309,9.64498564 L56.1210151,9.64498564 L60.3180056,8.55622743 L56.093309,7.46746922 C55.8229361,7.38586036 55.6337706,7.11415086 55.714978,6.81459834 L56.8786325,2.5959003 L53.8462519,5.72584013 C53.6293804,5.91594077 53.3045507,5.94378379 53.0876791,5.72584013 L53.0609284,5.72584013 L50.0275924,2.5959003 L51.1922024,6.81459834 C51.2734098,7.08630784 51.1109949,7.38586036 50.8129159,7.46746922 L50.7861653,7.46746922 L46.5882193,8.55622743 L50.8129159,9.64498564 C51.1109949,9.7265945 51.2734098,10.026147 51.1922024,10.2978565 L51.1922024,10.3247394 L50.0275924,14.5434375 L50.0275924,14.5434375 Z M53.4669655,12.5569818 L49.3234763,16.8025628 C49.1878122,16.9388976 48.9986466,16.9926634 48.7817751,16.9388976 C48.5104467,16.8841716 48.3480319,16.5846191 48.4292393,16.2850666 L49.9998864,10.5705261 L44.2857501,9.07276351 C44.0965846,9.04588059 43.9341698,8.88266287 43.9064637,8.69256223 C43.8252563,8.39300971 43.9886265,8.12034011 44.2857501,8.03873124 L49.9998864,6.56977176 L48.4292393,0.854271212 C48.375738,0.663210468 48.4024886,0.446226909 48.5649035,0.309892107 C48.7817751,0.0919484446 49.1066047,0.0919484446 49.3234763,0.309892107 L53.4669655,4.55547306 L57.5827487,0.309892107 C57.7184128,0.173557305 57.9352844,0.118831363 58.1244499,0.173557305 C58.3957782,0.255166166 58.5849438,0.554718689 58.5037363,0.826428189 L56.9063386,6.56977176 L62.6204749,8.03873124 C62.8096404,8.09345719 62.9720552,8.22979199 63.026512,8.41989263 C63.0809687,8.71944515 62.9185539,9.01899767 62.6204749,9.07276351 L56.9063386,10.5705261 L58.5037363,16.2581836 C58.5581931,16.4482843 58.5037363,16.666228 58.3690276,16.8025628 C58.152156,17.0205064 57.7996202,17.0205064 57.5827487,16.8025628 L53.4669655,12.5569818 L53.4669655,12.5569818 Z" id="Fill-6"></path>
            <path d="M12.2212391,36.5605479 C12.4381106,36.3435644 12.7361896,36.3435644 12.9530612,36.533665 C13.1422267,36.7516087 13.1422267,37.104927 12.9530612,37.3228707 C10.352513,40.181101 9.78406107,45.0526699 9.24235981,49.8416699 C8.43028561,56.7006546 7.67171276,63.3954615 1.14454694,64.5658285 C0.874173995,64.6205545 0.602845673,64.4294937 0.549344314,64.1299412 C0.522593634,63.8313488 0.711759154,63.5586792 0.982132095,63.5039532 C6.75072508,62.443038 7.48254724,56.1562755 8.24016471,49.7331781 C8.80861665,44.7531174 9.37802397,39.6904877 12.2212391,36.5605479" id="Fill-7"></path>
            <path d="M17.0420937,33.4037252 C16.7984714,33.5669429 16.4736417,33.54006 16.2835208,33.2952334 C16.0943553,33.0504068 16.1478567,32.7239714 16.3924343,32.5329106 C16.9331802,32.0979834 17.4748815,31.716822 17.989832,31.3903866 C18.5047826,31.062991 18.9920272,30.7912815 19.4792717,30.5733379 C19.7496446,30.4379632 20.0754297,30.546455 20.1833878,30.8181645 C20.3190519,31.0908341 20.2101385,31.4172695 19.9397655,31.5536043 C19.5060224,31.7437049 19.0455285,32.0163746 18.558284,32.314967 C18.0710395,32.6145195 17.5560889,32.9956809 17.0420937,33.4037252" id="Fill-8"></path>
            <path d="M13.2234342,90.7200281 C13.4403057,90.9379718 13.4125997,91.2912902 13.2234342,91.5092338 C13.0342686,91.6993345 12.7084836,91.6993345 12.5193181,91.4823509 C9.67610297,88.3524111 9.07994497,83.2897814 8.51149303,78.3366036 C7.77967086,71.8866234 7.04880408,65.5998608 1.25346042,64.5389456 C0.982132095,64.4842197 0.792966575,64.2115501 0.847423315,63.9129576 C0.900924674,63.6134051 1.14454694,63.4223444 1.41587526,63.4770703 C7.9420857,64.6474374 8.72740923,71.3422443 9.51273275,78.2012289 C10.054434,82.991189 10.6238413,87.8627579 13.2234342,90.7200281" id="Fill-9"></path>
            <path d="M76.8919624,19.7414418 C76.7295476,19.9862684 76.3779672,20.0409944 76.134345,19.8777766 C75.8907227,19.7145589 75.8095153,19.3602805 75.9986808,19.1154539 C76.3235105,18.6258007 76.5671327,18.0276558 76.6760462,17.4016678 C76.8919624,16.4482843 76.8384611,15.414252 76.5136314,14.4618286 C76.2155524,13.5641312 75.6738511,12.7470824 74.9152783,12.2305464 C74.5359919,11.9578768 74.075498,11.7677761 73.5882535,11.6861673 L73.5615028,11.6583242 C72.1532706,11.3597318 70.9342039,11.6861673 70.0141716,12.3390381 C69.0654779,12.991909 68.4425692,13.9990584 68.1989469,15.0062077 C68.1454456,15.3057602 67.8473666,15.4958609 67.5760383,15.442095 C67.2789146,15.3873691 67.0887937,15.0878166 67.1432505,14.7882641 C67.4413295,13.5094052 68.226653,12.2843122 69.3635569,11.4682236 C70.5281668,10.624292 72.0443571,10.2162477 73.7783744,10.597409 L73.8051251,10.597409 L73.8051251,10.624292 C74.4547844,10.7337438 75.0241918,10.9785704 75.5114363,11.3318888 C76.4859253,11.9857198 77.1632908,12.991909 77.5425772,14.1353932 C77.9218636,15.2510343 77.975365,16.4761273 77.7594488,17.6464944 C77.5960785,18.3809741 77.2989549,19.1154539 76.8919624,19.7414418 L76.8919624,19.7414418 Z" id="Fill-10"></path>
            <path d="M33.1288059,104.627138 C32.8574776,104.790356 32.5326479,104.708747 32.3702331,104.46392 C32.2078183,104.191251 32.2890257,103.864815 32.5326479,103.701598 C34.7262037,102.286404 37.3535026,101.768908 40.0075521,102.394896 C42.4170241,102.967118 44.8274514,104.46392 46.9942564,107.076364 C47.1834219,107.294308 47.1566713,107.647626 46.913049,107.838687 C46.6961774,108.028787 46.3445971,108.001904 46.1544762,107.757078 C44.1510413,105.334735 41.9574856,103.974267 39.7639299,103.456771 C37.4070039,102.885509 35.077784,103.348279 33.1288059,104.627138" id="Fill-11"></path>
            <path d="M44.1233353,113.091417 C44.3134562,113.336244 44.2857501,113.662679 44.0698339,113.85278 C43.8529623,114.04384 43.5281327,114.015997 43.3657178,113.799014 C38.6805274,107.783961 32.8307269,106.613594 27.3869636,105.552679 C24.6794127,105.008299 22.0788645,104.490803 19.7496446,103.456771 C18.260205,102.776057 16.5815998,101.715142 15.3090318,100.299948 C14.280086,99.1843071 13.5482638,97.8507223 13.385849,96.2991939 C13.2234342,94.7476654 13.5482638,93.3324718 14.25238,92.2437136 C14.6584171,91.5361167 15.2278244,90.9648547 15.8774837,90.5289674 C16.5271431,90.1209231 17.2589653,89.8492136 18.0442888,89.7676047 C19.1276913,89.6312699 20.3190519,89.8760965 21.4559558,90.6115364 C22.7562299,91.400742 23.5415534,92.652718 23.8396325,93.9584597 C24.1644621,95.4552623 23.9208399,97.0615167 23.2167238,98.2587666 C23.0810596,98.5035932 22.7562299,98.5852021 22.5393583,98.4219844 C22.2957361,98.2587666 22.2145287,97.9323312 22.3769435,97.6875046 C22.9453954,96.7072382 23.1355163,95.4283793 22.864188,94.2311293 C22.6205658,93.1692541 21.9976571,92.1899477 20.9687113,91.5361167 C20.0209729,90.9379718 19.0455285,90.7469111 18.1522469,90.8285199 C17.5025875,90.9101288 16.9331802,91.1280724 16.3924343,91.4545079 C15.8774837,91.8087864 15.4169899,92.2715566 15.0921602,92.8428186 C14.5237083,93.7405161 14.25238,94.8840002 14.3880441,96.1907021 C14.5237083,97.4417179 15.1456616,98.5852021 16.0398986,99.5645084 C17.1768025,100.844327 18.7484049,101.823634 20.128931,102.449622 C22.3769435,103.456771 24.923035,103.974267 27.5770845,104.490803 C33.1823073,105.579561 39.2222286,106.776811 44.1233353,113.091417" id="Fill-12"></path>
            <path d="M74.373577,103.701598 C74.6171993,103.864815 74.6984067,104.191251 74.5359919,104.46392 C74.373577,104.708747 74.0487473,104.790356 73.8051251,104.627138 C71.8551916,103.348279 69.499221,102.885509 67.1432505,103.456771 C64.9764454,103.974267 62.756139,105.334735 60.7517488,107.757078 C60.5625833,108.001904 60.2367982,108.028787 59.993176,107.838687 C59.7772598,107.647626 59.7495537,107.294308 59.9396746,107.076364 C62.0787736,104.46392 64.5159516,102.967118 66.8996282,102.394896 C69.5536778,101.768908 72.1800213,102.286404 74.373577,103.701598" id="Fill-13"></path>
            <path d="M29.5537687,107.702352 C29.7161835,107.430642 30.0410132,107.375917 30.2846355,107.539134 C30.5559638,107.702352 30.6094652,108.05663 30.4470503,108.301457 C30.09547,108.817993 29.8785984,109.390215 29.7429342,110.016203 C29.5260626,110.968627 29.6082254,112.029542 29.9053491,112.955082 C30.2034281,113.85278 30.7451293,114.669828 31.5304528,115.186365 C31.9097393,115.459034 32.342527,115.649135 32.8307269,115.758587 L32.8851837,115.758587 C34.2934159,116.057179 35.5115272,115.730744 36.4325149,115.077873 C37.3535026,114.425002 38.0031619,113.417852 38.2200335,112.410703 C38.2735349,112.111151 38.5716139,111.92105 38.8696929,111.974816 C39.1410212,112.057385 39.3301867,112.329094 39.27573,112.628647 L39.27573,112.65553 C39.005357,113.907506 38.2200335,115.132599 37.0554236,115.97557 C35.8908136,116.792619 34.401374,117.200663 32.640606,116.819502 L32.6138554,116.819502 C31.9909467,116.683167 31.4224947,116.43834 30.9075442,116.111905 C29.9330551,115.431191 29.2556897,114.425002 28.8764033,113.281518 C28.5248229,112.192759 28.4436155,110.940784 28.6872378,109.79826 C28.8496526,109.035937 29.1200255,108.32834 29.5537687,107.702352 L29.5537687,107.702352 Z" id="Fill-14"></path>
            <path d="M63.5682132,113.799014 C63.3790477,114.015997 63.0532626,114.04384 62.8373464,113.85278 C62.6472255,113.662679 62.6204749,113.336244 62.7828897,113.091417 C67.6849517,106.776811 73.7239177,105.579561 79.3568465,104.490803 C81.9841454,103.974267 84.5292815,103.456771 86.8040446,102.449622 C88.1587755,101.823634 89.7294225,100.844327 90.8940325,99.5645084 C91.7605634,98.5852021 92.4102228,97.4417179 92.5458869,96.1907021 C92.6805957,94.8840002 92.3834721,93.7405161 91.8417708,92.8428186 C91.4892351,92.2715566 91.0287412,91.8087864 90.514746,91.4545079 C89.9997954,91.1280724 89.4036374,90.9101288 88.7816841,90.8285199 C87.8874471,90.7469111 86.9129581,90.9379718 85.9642643,91.5361167 C84.9085679,92.1899477 84.3124099,93.1692541 84.0687876,94.2311293 C83.7984147,95.4283793 83.9875802,96.7072382 84.5292815,97.6875046 C84.6916963,97.9323312 84.6104889,98.2587666 84.3936173,98.4219844 C84.149995,98.5852021 83.8251654,98.5035932 83.6895012,98.2587666 C82.9853851,97.0615167 82.7417628,95.4552623 83.0942986,93.9584597 C83.3923776,92.652718 84.149995,91.400742 85.4502691,90.6115364 C86.6148791,89.8760965 87.779489,89.6312699 88.8628916,89.7676047 C89.6482151,89.8492136 90.3790819,90.1209231 91.0287412,90.5289674 C91.679356,90.9648547 92.2478079,91.5361167 92.6805957,92.2437136 C93.3579611,93.3324718 93.7104969,94.7476654 93.548082,96.2991939 C93.3856672,97.8507223 92.6270943,99.1843071 91.5981486,100.299948 C90.3523312,101.715142 88.64602,102.776057 87.183331,103.456771 C84.8273605,104.490803 82.2277676,105.008299 79.5192613,105.552679 C74.075498,106.613594 68.226653,107.783961 63.5682132,113.799014" id="Fill-15"></path>
            <path d="M49.3234763,110.614348 L49.3234763,110.614348 L53.4669655,114.859929 L57.5827487,110.614348 C57.7996202,110.396404 58.152156,110.396404 58.3690276,110.614348 C58.5037363,110.750683 58.5581931,110.968627 58.5037363,111.158727 L56.9063386,116.874228 L62.6204749,118.343187 C62.9185539,118.397913 63.0809687,118.697466 63.026512,118.997018 C62.9720552,119.187119 62.8096404,119.350337 62.6204749,119.37818 L56.9063386,120.874982 L58.5037363,126.590483 C58.5849438,126.862192 58.3957782,127.161745 58.1244499,127.243354 C57.9352844,127.29808 57.7184128,127.243354 57.5827487,127.107019 L53.4669655,122.861438 L49.3234763,127.107019 C49.1066047,127.324962 48.7817751,127.324962 48.5649035,127.107019 C48.4024886,126.970684 48.375738,126.7537 48.4292393,126.56264 L49.9998864,120.874982 L44.2857501,119.37818 C43.9886265,119.323454 43.8252563,119.023901 43.9064637,118.724349 C43.9341698,118.534248 44.0965846,118.397913 44.2857501,118.343187 L49.9998864,116.874228 L48.4292393,111.131844 C48.3480319,110.859175 48.5104467,110.559622 48.7817751,110.478013 C48.9986466,110.424247 49.1878122,110.478013 49.3234763,110.614348 L49.3234763,110.614348 Z M53.0609284,116.030296 L50.0275924,112.900356 L51.1922024,117.119054 C51.2734098,117.418607 51.1109949,117.690316 50.8129159,117.771925 L46.5882193,118.860683 L50.7861653,119.949442 L50.8129159,119.949442 C51.1109949,120.031051 51.2734098,120.330603 51.1922024,120.630156 L50.0275924,124.847893 L53.0609284,121.718914 L53.0876791,121.691071 C53.3045507,121.50097 53.6293804,121.50097 53.8462519,121.718914 L56.8786325,124.847893 L55.714978,120.630156 L55.714978,120.602313 C55.6337706,120.330603 55.8229361,120.031051 56.093309,119.949442 L60.3180056,118.860683 L56.1210151,117.771925 L56.093309,117.771925 C55.7961854,117.690316 55.6337706,117.390764 55.714978,117.119054 L56.8786325,112.900356 L53.8462519,116.030296 C53.6293804,116.220397 53.2768446,116.220397 53.0609284,116.030296 L53.0609284,116.030296 Z M58.5037363,111.158727 C58.4769857,111.240336 58.4225289,111.321945 58.3690276,111.376671 L58.5037363,111.158727 Z M48.4292393,126.56264 C48.4569454,126.481031 48.4836961,126.426305 48.5649035,126.344696 L48.4292393,126.56264 Z" id="Fill-16"></path>
            <path d="M75.9986808,108.301457 C75.8095153,108.05663 75.8907227,107.702352 76.134345,107.539134 C76.3779672,107.375917 76.7295476,107.430642 76.8919624,107.702352 C77.2989549,108.32834 77.5960785,109.035937 77.7594488,109.79826 C77.975365,110.940784 77.9218636,112.192759 77.5425772,113.281518 C77.1632908,114.425002 76.4859253,115.431191 75.5114363,116.111905 C75.0241918,116.43834 74.4547844,116.683167 73.8051251,116.819502 L73.7783744,116.819502 C72.0443571,117.200663 70.5281668,116.792619 69.3635569,115.97557 C68.226653,115.132599 67.4413295,113.907506 67.1432505,112.65553 L67.1432505,112.628647 C67.0887937,112.329094 67.2789146,112.057385 67.5760383,111.974816 C67.8473666,111.92105 68.1454456,112.111151 68.1989469,112.410703 C68.4425692,113.417852 69.0654779,114.425002 70.0141716,115.077873 C70.9342039,115.730744 72.1532706,116.057179 73.5615028,115.758587 L73.5882535,115.758587 C74.075498,115.649135 74.5359919,115.459034 74.9152783,115.186365 C75.6738511,114.669828 76.2155524,113.85278 76.5136314,112.955082 C76.8384611,112.029542 76.8919624,110.968627 76.6760462,110.016203 C76.5671327,109.390215 76.3235105,108.817993 75.9986808,108.301457 L75.9986808,108.301457 Z" id="Fill-17"></path>
            <path d="M16.3924343,94.8840002 C16.1478567,94.6929395 16.0943553,94.3396211 16.2835208,94.1216775 C16.4736417,93.8768509 16.7984714,93.8221249 17.0420937,94.0131857 C17.5560889,94.42123 18.0710395,94.7755085 18.558284,95.0741009 C19.0455285,95.4014964 19.5060224,95.646323 19.9397655,95.8633066 C20.2101385,95.9996414 20.3190519,96.2991939 20.1833878,96.5709034 C20.0754297,96.843573 19.7496446,96.9799078 19.4792717,96.843573 C18.9920272,96.6256293 18.5047826,96.3260768 17.989832,95.9996414 C17.4748815,95.6732059 16.9331802,95.2920445 16.3924343,94.8840002" id="Fill-18"></path>
            <path d="M94.0620772,37.3228707 C93.8729117,37.104927 93.8729117,36.7516087 94.0897833,36.533665 C94.2789488,36.3435644 94.6037785,36.3435644 94.792944,36.5605479 C97.6371145,39.6904877 98.2055664,44.7531174 98.8017244,49.7331781 C99.5325912,56.1562755 100.264413,62.443038 106.059757,63.5039532 C106.33013,63.5586792 106.492545,63.8313488 106.465794,64.1299412 C106.411337,64.4294937 106.167715,64.6205545 105.869636,64.5658285 C99.3434257,63.3954615 98.5848528,56.7006546 97.7995293,49.8416699 C97.2310774,45.0526699 96.6616701,40.181101 94.0620772,37.3228707" id="Fill-19"></path>
            <path d="M90.6504102,32.5329106 C90.8663264,32.7239714 90.9207831,33.0504068 90.7316176,33.2952334 C90.5682474,33.54006 90.216667,33.5669429 89.9730448,33.4037252 C89.4580942,32.9956809 88.944099,32.6145195 88.4558991,32.314967 C87.9686546,32.0163746 87.5081607,31.7437049 87.0753729,31.5536043 C86.8040446,31.4172695 86.6960865,31.0908341 86.8317507,30.8181645 C86.9397088,30.546455 87.2645385,30.4379632 87.5358668,30.5733379 C88.0231113,30.7912815 88.5103558,31.062991 89.0253064,31.3903866 C89.5393016,31.716822 90.0810029,32.0979834 90.6504102,32.5329106" id="Fill-20"></path>
            <path d="M94.4958204,91.4823509 C94.3056995,91.6993345 93.9808698,91.6993345 93.7917043,91.5092338 C93.6015834,91.2912902 93.6015834,90.9379718 93.7917043,90.7200281 C96.3912971,87.8627579 96.9597491,82.991189 97.5014503,78.2012289 C98.2867738,71.3422443 99.0720974,64.6474374 105.599263,63.4770703 C105.869636,63.4223444 106.140964,63.6134051 106.167715,63.9129576 C106.222172,64.2115501 106.032051,64.4842197 105.761678,64.5389456 C99.9663344,65.5998608 99.2345122,71.8866234 98.5036454,78.3366036 C97.9351935,83.2897814 97.3390355,88.3524111 94.4958204,91.4823509" id="Fill-21"></path>
            <path d="M89.9730448,94.0131857 C90.216667,93.8221249 90.5682474,93.8768509 90.7316176,94.1216775 C90.9207831,94.3396211 90.8663264,94.6929395 90.6504102,94.8840002 C90.0810029,95.2920445 89.5393016,95.6732059 89.0253064,95.9996414 C88.5103558,96.3260768 88.0231113,96.6256293 87.5358668,96.843573 C87.2645385,96.9799078 86.9397088,96.843573 86.8317507,96.5709034 C86.6960865,96.2991939 86.8040446,95.9996414 87.0753729,95.8633066 C87.5081607,95.646323 87.9686546,95.4014964 88.4558991,95.0741009 C88.944099,94.7755085 89.4580942,94.42123 89.9730448,94.0131857" id="Fill-22"></path>
            <path d="M48.8629825,85.0314105 C48.8352764,85.0314105 48.8352764,85.0314105 48.8085257,85.0045276 L48.8629825,85.0314105 Z M60.7517488,52.7815091 C60.7784995,52.9716097 60.6160846,53.1626705 60.4269191,53.1895534 L60.7517488,52.7815091 Z M68.3346111,33.4584511 C68.3078604,33.54006 68.226653,33.6216688 68.1454456,33.6485518 L68.3346111,33.4584511 Z M31.9364899,44.8884921 L31.964196,44.8884921 L31.9364899,44.8884921 Z M41.6861573,45.7871497 C41.5781992,45.8956415 41.3880783,45.8956415 41.2533695,45.8140326 L41.6861573,45.7871497 Z M43.1211402,86.4475643 L43.1211402,86.4197212 L43.1211402,86.4475643 Z M36.5137223,87.5900883 L36.4869716,87.5632054 L36.5137223,87.5900883 Z M30.4202996,49.0524642 C30.3123415,48.8623636 30.393549,48.617537 30.5827145,48.5359281 C30.77188,48.4274363 30.9887516,48.5090452 31.069959,48.6991458 C31.7473244,50.0058477 34.7806604,49.3520167 36.2701,49.0255813 L36.540473,48.9708553 C37.1098803,48.8892465 37.6238755,48.8892465 38.11112,48.9708553 C38.5993199,49.0524642 39.0598138,49.2156819 39.4658509,49.4614686 C39.6550164,49.5699604 39.7094731,49.787904 39.6005597,49.9780047 C39.4926016,50.1412224 39.2489793,50.1959483 39.0865645,50.1143395 C38.7617348,49.8963958 38.3824484,49.760061 38.0031619,49.7062952 C37.5971248,49.6515692 37.136631,49.6515692 36.6761371,49.7331781 L36.4057642,49.787904 C34.7529544,50.1412224 31.3412873,50.8766623 30.4202996,49.0524642 L30.4202996,49.0524642 Z M47.7251232,71.7502886 C47.6983725,71.6149139 47.6716219,71.4785791 47.6716219,71.3153613 C47.6171651,70.879474 47.6716219,70.3629379 47.8063306,69.7638329 C48.077659,68.7566835 48.673817,67.5863165 49.7839702,66.4706753 L50.0275924,66.2258488 C52.5192272,63.7766228 54.6850768,61.6269494 49.7562641,52.5914084 C49.4581851,52.1007952 49.2422689,51.5842591 49.1066047,51.03988 C48.9986466,50.4407749 49.0253973,49.8416699 49.2690196,49.1350332 L49.2690196,49.1071901 C51.0020815,44.3450731 54.9564051,42.6303269 59.8584672,40.4796934 C61.8351513,39.6367219 63.9474996,38.7111814 66.1410554,37.4860884 L66.1410554,37.4592055 C66.1410554,37.4592055 66.7095073,35.8529511 67.332416,34.0297131 C66.1410554,34.5740922 64.6516157,35.1184714 63.0809687,35.6897334 C57.8273263,37.6224232 51.2734098,40.0447662 48.9986466,44.0455206 C48.9709406,44.3172301 48.9709406,44.6167826 48.9441899,44.943218 L48.9441899,44.970101 C48.8897332,45.8140326 48.5916542,46.4947465 48.0509083,47.0112826 C47.8340367,47.2023433 47.5627084,47.392444 47.2923354,47.5287788 C48.4569454,48.9986984 48.4836961,51.1762148 48.2668245,53.5707148 C49.9731357,55.856723 50.6505011,57.8162957 50.7040025,59.5579248 C50.7317085,61.3273969 50.1355505,62.8779653 49.2145628,64.3210019 C49.1066047,64.5111026 48.8897332,64.5658285 48.7005676,64.4573367 C48.673817,64.4294937 48.6461109,64.4026108 48.6193602,64.3747678 C46.5337626,62.1166026 46.9397997,58.6055014 47.3190861,55.230735 C47.6439158,52.23713 47.9687455,49.3798597 46.5337626,47.8283313 L46.4258045,47.8552142 C46.7506342,48.2632585 46.9942564,48.7538718 47.1299206,49.2704079 C47.3467922,50.0327306 47.3467922,50.8488192 47.1566713,51.611142 C47.1299206,51.6380249 47.1299206,51.6658679 47.1022145,51.6927509 C46.7506342,52.2918559 46.2356836,52.6999002 45.6127749,52.9716097 C44.9898662,53.2442793 44.2589994,53.3527711 43.3924685,53.2990053 L40.3323818,53.2990053 C38.3824484,55.9114489 37.3257965,58.3606748 35.4847765,62.5246469 L35.1866975,63.2591266 C33.8864234,66.8249538 33.7517146,70.0633854 34.4558307,72.7574379 C35.1054901,75.1797809 36.4057642,77.1940796 38.1923274,78.6361562 C39.1677719,79.4253619 40.2779251,80.0513498 41.4692857,80.5141201 L41.5504931,80.5141201 C41.5781992,80.5141201 41.6317005,80.541003 41.6594066,80.541003 C41.7673647,80.5957289 41.8762782,80.6504549 42.010987,80.6773378 C42.8507672,80.9490473 43.7440489,81.1132251 44.6382859,81.194834 C46.9942564,81.4118175 49.5393925,80.9768903 52.085484,79.8334062 C51.6794469,79.343753 51.218953,78.7993739 50.5415876,78.11866 C50.4068788,77.9832853 50.4068788,77.7384587 50.5692937,77.575241 C50.7040025,77.4389062 50.9485801,77.4389062 51.0832889,77.6021239 C52.11319,78.6361562 52.7351434,79.3706359 53.2768446,80.1876846 C53.7373385,80.8952814 54.1710816,81.6844871 54.7395336,82.8548542 C54.8751977,82.7454023 54.9831558,82.6637935 55.0643632,82.6100276 C55.3356916,82.3642409 55.4704003,82.2557492 55.8496868,82.3104751 C56.1210151,82.3642409 56.689467,83.1265637 57.0955041,83.6440599 C57.2044176,83.8072776 57.285625,83.9436124 57.3668325,84.0252213 L57.3935831,84.0521042 L58.3957782,85.385689 L58.4225289,85.385689 C58.9919362,86.2017776 59.2890599,86.8824915 59.3435166,87.4268706 C59.3702673,87.6716972 59.3435166,87.8896408 59.2623092,88.1075845 C59.1811018,88.2976851 59.0186869,88.4877858 58.828566,88.6241206 C58.5581931,88.8151813 58.152156,88.950556 57.6649115,88.978399 L57.5827487,88.978399 C57.285625,88.978399 56.987546,89.005282 56.6627163,89.0868908 C56.1477658,89.2232256 55.6605212,89.4411693 55.3079855,89.7676047 C55.0920693,89.9577054 54.9296545,90.1487661 54.820741,90.3935927 C55.0376126,90.2841408 55.2544841,90.2572579 55.5248571,90.2572579 L55.6060645,90.2572579 C55.7684793,90.2841408 55.8773928,90.3119838 55.9853509,90.3388668 C56.6627163,90.4752016 57.1232102,90.5836933 57.8273263,90.1487661 C58.0976992,89.9855484 58.3413215,89.8492136 58.5849438,89.7944877 C58.828566,89.7128788 59.0998943,89.6859959 59.3435166,89.7128788 C59.5326821,89.7397617 59.695097,89.9308225 59.6683463,90.1209231 C59.6138895,90.6653022 59.4791808,91.1011895 59.2623092,91.4823509 C59.0186869,91.8903952 58.6938572,92.1621047 58.2601141,92.3531655 C58.2333634,92.3531655 58.2056573,92.3800484 58.1789067,92.3800484 C57.9897411,92.4069313 57.854077,92.4616572 57.7184128,92.5432661 C57.6104547,92.597992 57.5015412,92.6796009 57.4480399,92.7612098 L57.4203338,92.7880927 L57.3935831,92.8428186 L57.3668325,92.8697015 C57.1767115,93.2508629 57.0687534,93.6051414 57.0955041,93.9037338 C57.2044176,93.7405161 57.3391264,93.6320243 57.5292473,93.5225724 L57.5292473,93.4956895 L57.555998,93.4956895 C57.7461189,93.3871977 57.9620351,93.3324718 58.2056573,93.3055889 C58.4225289,93.2777458 58.6938572,93.2777458 58.9642302,93.2777458 L59.0186869,93.2777458 L59.126645,93.3055889 L59.2890599,93.3055889 C59.5326821,93.3055889 59.7495537,93.2508629 59.9396746,93.1423711 C60.1020894,93.0060363 60.2645043,92.8428186 60.4269191,92.597992 C60.4536698,92.3531655 60.5348772,92.1083389 60.6705414,91.8903952 C60.8062055,91.6455686 60.9686204,91.400742 61.2122426,91.1827984 C61.2389933,91.1549554 61.2666994,91.1280724 61.3202007,91.1011895 C61.5103216,91.0195807 61.7271932,91.1011895 61.8351513,91.2912902 C61.861902,91.372899 61.9708155,91.4823509 62.1332303,91.5639598 C62.3223959,91.6724515 62.5937242,91.7540604 62.9185539,91.8087864 L62.9453045,91.8087864 C63.1889268,91.8625522 63.4057984,91.8625522 63.5949639,91.8356693 C63.3513416,91.6993345 63.1621761,91.4823509 62.9997613,91.2365642 C62.8096404,90.9917376 62.7016823,90.7200281 62.6204749,90.4473585 C62.5660181,90.3119838 62.5937242,90.1487661 62.728433,90.0393142 C63.0809687,89.7128788 63.1621761,89.3317174 62.9997613,88.9236731 C62.8908478,88.8151813 62.7828897,88.7057294 62.728433,88.5972377 C62.6204749,88.4877858 62.5392674,88.3524111 62.4848107,88.2429592 C62.45806,88.1891934 62.4313093,88.1344674 62.4313093,88.0528586 L62.4313093,87.780189 C62.3768526,87.3452617 62.3223959,86.9093744 62.9720552,86.4744472 C62.9997613,86.4744472 62.9997613,86.4475643 63.026512,86.4475643 C63.5414625,86.1748947 63.8385862,85.7937333 64.1366652,85.4125719 C64.5704083,84.8960358 64.9219887,84.4332656 65.6538108,84.3516567 C65.5993541,84.3238137 65.5448974,84.2969308 65.491396,84.2700479 C65.0309022,84.0789871 64.4892009,84.0252213 64.0287071,84.1337131 C63.9474996,84.1337131 63.8930429,84.160596 63.8118355,84.188439 L63.7573787,84.188439 C63.7038774,84.2153219 63.62267,84.2422048 63.5414625,84.2700479 C63.4602551,84.3238137 63.3790477,84.3785396 63.2978403,84.4332656 C63.2156775,84.4870314 63.1344701,84.5696004 63.0532626,84.6780922 C62.9453045,84.759701 62.8640971,84.8413099 62.7828897,84.9498017 C62.7828897,84.9776447 62.756139,85.0045276 62.728433,85.0045276 C62.728433,85.0314105 62.7016823,85.0592535 62.6749316,85.0861365 C62.4036033,85.4125719 61.9975662,85.9031852 60.9141636,85.4404149 C60.8597069,85.4125719 60.7784995,85.3588061 60.7517488,85.2771972 L60.3724624,84.7049751 L59.9119685,84.0252213 L59.8852179,83.9973782 L59.8040104,83.8620036 C59.5059314,83.3713903 59.2355585,82.8548542 58.8562721,82.4468099 C58.152156,81.6566441 57.9897411,81.4665435 58.6394005,80.8674384 C58.7750647,80.7320637 58.9642302,80.5957289 59.2078524,80.4325112 C59.4514747,80.2424106 59.7495537,80.0244669 60.1020894,79.7517973 C60.020882,79.6701884 59.9396746,79.6164226 59.8584672,79.5616967 C59.695097,79.4522448 59.5059314,79.3168701 59.2890599,79.1536524 C58.8830228,78.7993739 58.7473586,78.6908821 59.0186869,78.3366036 C59.0731437,78.2549948 59.1543511,78.2012289 59.2623092,78.146503 C59.3167659,78.11866 59.3702673,78.0917771 59.4514747,78.0370511 L60.2645043,77.4936321 C60.1555908,77.2756885 59.993176,77.0030189 59.8040104,76.7313094 C59.722803,76.5949746 59.6138895,76.4586397 59.5059314,76.3232651 C59.4791808,76.2685391 59.4514747,76.2138132 59.424724,76.1600473 L59.3979733,76.1322043 L59.3979733,76.0784385 L59.3702673,76.0784385 L59.3702673,76.0237125 L59.3435166,76.0237125 L59.3435166,75.9421037 L59.3167659,75.9421037 L59.3167659,75.8326518 L59.2890599,75.8326518 L59.2890599,75.5340594 L59.3167659,75.5340594 L59.3167659,75.5062163 C59.3167659,75.4793334 59.3435166,75.4524505 59.3435166,75.3977246 L59.3702673,75.3429986 C59.4514747,75.2345068 59.5326821,75.125055 59.695097,75.0165632 L59.6683463,75.0165632 L60.1555908,74.6354018 C62.8640971,72.5394942 65.491396,70.4983126 68.0365321,69.8454417 L68.0642382,69.8185588 C68.5782334,69.7091069 69.0119765,69.7091069 69.3635569,69.7907158 C69.6883866,69.9001677 69.9597149,70.0902683 70.1488804,70.308212 C70.3112952,70.5530386 70.4202087,70.8525911 70.4202087,71.1521436 C70.4202087,71.4516961 70.3390013,71.7502886 70.1765865,72.0229582 C70.1488804,72.0229582 70.1488804,72.0498411 70.1488804,72.0498411 C69.8785075,72.4857284 69.471515,72.7036721 69.0654779,72.730555 C68.8495617,72.7574379 68.604984,72.730555 68.3890678,72.6220632 C68.1989469,72.5126113 68.0097814,72.3493936 67.8741173,72.1314499 C67.6572457,71.8050145 67.5492876,71.3422443 67.630495,70.7440993 C66.1143047,71.2884784 64.5159516,72.2946677 62.8908478,73.4928778 C62.8640971,74.9896803 63.2978403,76.2406961 64.0554577,77.2209625 C64.8684873,78.2549948 66.0321419,78.9904346 67.332416,79.3984789 C68.6594408,79.8065232 70.1488804,79.8881321 71.6115693,79.5885796 C73.4802954,79.1805353 75.2945647,78.1733859 76.5948388,76.4317568 C77.7594488,74.9349543 78.3823574,73.0569904 78.4091081,71.1521436 C78.4635649,69.3557886 77.9218636,67.5047076 76.7840043,65.9262962 C75.4837302,64.1299412 73.4258387,62.7963564 70.8529965,62.2519773 C69.5259717,61.9802678 68.0642382,61.8986589 66.5203418,62.0887596 C66.4114283,62.1982115 66.2490135,62.1982115 66.1143047,62.1434855 C65.0576528,62.2798203 63.9742503,62.5515298 62.8640971,62.9605342 C62.5660181,63.1775178 62.2411884,63.3407355 61.9163587,63.4501874 C61.1577859,63.667171 60.3457117,63.640288 59.6138895,63.2869697 C59.5059314,63.2591266 59.424724,63.2053608 59.3167659,63.1506349 C59.0998943,63.0421431 58.9097734,63.0421431 58.7750647,63.1506349 C58.6126498,63.3138526 58.4769857,63.5855621 58.450235,63.9129576 C58.4225289,64.2393931 58.5037363,64.6205545 58.7206079,64.9191469 C59.0186869,65.3003083 59.5871389,65.5729779 60.5625833,65.5182519 C60.5081265,65.5451348 60.589334,65.5451348 60.6705414,65.5998608 C60.7517488,65.6814696 60.8329562,65.8178045 60.8062055,65.9262962 C60.7784995,66.062631 60.6705414,66.1442399 60.5348772,66.1989658 C60.4813759,66.2258488 60.4269191,66.2258488 60.3180056,66.2805747 C59.2355585,66.3074576 58.5314424,65.8994133 58.1244499,65.3819171 C57.7728696,64.9191469 57.6649115,64.3478849 57.6916621,63.8582317 C57.7461189,63.3407355 57.9620351,62.8510823 58.3145708,62.5793728 C58.6661512,62.2519773 59.1811018,62.1703684 59.695097,62.497764 C59.7772598,62.5515298 59.8584672,62.5793728 59.9119685,62.6062558 C60.4813759,62.8779653 61.1033292,62.9058083 61.6727365,62.7147475 C62.1332303,62.5793728 62.5392674,62.3067032 62.8908478,61.8986589 C62.2679391,61.9255419 61.5915291,61.843933 60.887413,61.6538324 C60.1020894,61.4090058 59.2890599,60.9731185 58.6394005,60.3202476 C58.3145708,59.9938121 58.2056573,59.6126507 58.2601141,59.3130982 C58.2601141,59.1767634 58.3145708,59.0413887 58.3957782,58.9319368 C58.4769857,58.7965621 58.5849438,58.7139932 58.7206079,58.6602273 C58.9374795,58.5786185 59.1811018,58.5786185 59.424724,58.7418362 C59.8307611,59.0135457 60.2367982,59.2046064 60.6160846,59.3947071 C61.7539439,59.8843602 62.7828897,59.9938121 63.6494206,59.7758685 C64.4892009,59.5857678 65.193317,59.0682716 65.6538108,58.3059489 L65.6805615,58.3059489 C64.4892009,58.3337919 63.4325491,58.22434 62.5115614,58.0889653 C61.0498278,57.8431786 59.9664253,57.4351343 59.5059314,57.1086989 C59.2355585,56.9454812 59.0998943,56.6728116 59.0454376,56.427985 C59.0454376,56.2926103 59.0454376,56.1284325 59.0998943,55.9930578 C59.1543511,55.82984 59.2623092,55.6935052 59.3702673,55.6118964 C59.5326821,55.4755616 59.7495537,55.3939527 60.020882,55.4486787 C60.0476327,55.4486787 60.0743834,55.4486787 60.1020894,55.4755616 C60.887413,55.7751141 61.7271932,56.0199407 62.5937242,56.2110014 C64.0287071,56.4827109 65.4636899,56.5374369 66.6827566,56.1831584 C67.8473666,55.856723 68.7951049,55.1222432 69.2823495,53.8702673 C69.3100555,53.7886584 69.3368062,53.7339325 69.3635569,53.6523236 C67.4680802,54.1419768 65.8974331,54.3868034 64.5436576,54.3868034 C62.9997613,54.3868034 61.7271932,54.0882109 60.5081265,53.5707148 C60.2100475,53.43438 60.0476327,53.1626705 59.993176,52.8631179 C59.993176,52.7267831 59.993176,52.6182913 60.020882,52.5088395 L60.0476327,52.4819565 C60.0743834,52.3456217 60.1555908,52.23713 60.2367982,52.1286382 C60.4269191,51.9375774 60.6972921,51.8559686 61.0498278,51.9375774 C62.9720552,52.4272306 64.597159,52.5088395 65.9786405,52.3456217 C67.5760383,52.1286382 68.8218556,51.5842591 69.7428433,50.8219363 C70.6361249,50.0874566 71.1778262,49.1619161 71.4224038,48.2363756 C71.4759052,47.9646661 71.5303619,47.6919965 71.5303619,47.4471699 C69.9864656,48.3727104 68.3890678,48.9986984 66.8996282,49.4336256 C64.7328232,50.0327306 62.728433,50.1690654 61.2934501,50.0874566 C60.887413,50.0596135 60.6160846,49.8695129 60.4813759,49.6246863 C60.3992131,49.5152344 60.3457117,49.3520167 60.3457117,49.2156819 C60.3457117,49.0803072 60.3724624,48.9439724 60.4536698,48.8076376 C60.5625833,48.5359281 60.8329562,48.3179845 61.2389933,48.2632585 C66.1955121,47.6103876 69.0931839,46.4400206 70.663831,44.970101 C71.9908558,43.7459681 72.3156855,42.2491655 72.1532706,40.6976371 C70.5549175,41.9227301 68.9307691,43.0383712 67.1967518,43.9639117 C65.2745244,44.997944 63.2156775,45.8140326 60.9686204,46.3584117 C60.589334,46.4678636 60.3180056,46.3852946 60.1288401,46.2220769 C60.020882,46.1135851 59.9396746,46.0050933 59.9119685,45.8687585 C59.8584672,45.7324237 59.8584672,45.5960889 59.8852179,45.4875972 C59.9119685,45.1342788 60.1288401,44.8068832 60.4536698,44.6715085 C64.7872799,42.7935447 68.0642382,41.1872903 70.1488804,39.3371694 C71.9631497,37.730915 72.9118435,35.93456 72.8841374,33.6485518 C68.4970259,37.5408144 64.0287071,39.5003871 60.1555908,41.1872903 C55.416899,43.2563149 51.5982395,44.9163351 49.9731357,49.3520167 L49.9731357,49.3798597 C49.7839702,49.9232787 49.7839702,50.413892 49.8651776,50.8766623 C49.946385,51.3394325 50.1632566,51.7743597 50.4068788,52.23713 C55.6337706,61.7623241 53.2768446,64.1030583 50.5692937,66.7702279 L50.2979654,67.0150544 C49.3234763,68.0222038 48.7817751,69.083119 48.5381528,69.9539335 C48.4292393,70.4445468 48.4024886,70.907317 48.4292393,71.2337525 L48.4292393,71.3969702 C48.4024886,71.4238531 48.4024886,71.4785791 48.4024886,71.505462 L48.4024886,71.6417968 C48.4024886,71.6965227 48.4024886,71.7502886 48.375738,71.7781316 C48.375738,71.8318974 48.3480319,71.8597404 48.3212812,71.9144664 C48.2945305,71.9413493 48.2668245,71.9682322 48.2400738,71.9682322 C48.1856171,71.9960752 48.1588664,72.0229582 48.1311603,72.0229582 C48.077659,72.0229582 48.0509083,72.0229582 48.0232022,71.9960752 C47.9964515,71.9960752 47.9419948,71.9960752 47.9152441,71.9682322 C47.8875381,71.9413493 47.8607874,71.9144664 47.8340367,71.8866234 C47.8063306,71.8318974 47.77958,71.8050145 47.7251232,71.7502886 L47.7251232,71.7502886 Z M67.1432505,36.9148264 C69.0654779,35.7444593 71.0431174,34.3561486 72.9653448,32.5329106 C73.1277597,32.3965758 73.3713819,32.3965758 73.5070461,32.5597936 C73.5882535,32.6423625 73.6159596,32.7239714 73.6159596,32.8055802 C73.8595818,35.7444593 72.8573867,37.9488587 70.6361249,39.9084314 C68.4702753,41.8132782 65.1656109,43.4732985 60.7517488,45.3512624 C60.6705414,45.3791054 60.6437907,45.4875972 60.6437907,45.569206 C60.6160846,45.5960889 60.6160846,45.623932 60.6437907,45.6508149 C60.6437907,45.6786579 60.6705414,45.6508149 60.7517488,45.6508149 L60.8062055,45.623932 C62.9720552,45.0795529 64.9764454,44.2903472 66.8451715,43.2831978 C68.7138975,42.2760485 70.4737101,41.0787985 72.1800213,39.6904877 C72.3424361,39.581996 72.5860584,39.6088789 72.7217226,39.7720966 C72.7494286,39.8268226 72.7761793,39.8815485 72.80293,39.9353143 C73.1822164,41.949613 72.9118435,43.9091858 71.1778262,45.5423231 C69.5259717,47.1207345 66.465885,48.3448674 61.3202007,49.0255813 C61.2122426,49.0255813 61.1577859,49.0803072 61.1310352,49.1350332 C61.1033292,49.1619161 61.1033292,49.188799 61.1033292,49.188799 C61.1033292,49.2156819 61.1033292,49.2156819 61.1310352,49.2435249 C61.1577859,49.2982509 61.2122426,49.3251338 61.3479068,49.3251338 C62.7016823,49.4067427 64.6248651,49.2704079 66.7095073,48.6991458 C68.3078604,48.2363756 70.0141716,47.5287788 71.6927768,46.4400206 C71.8551916,46.3315288 72.0988139,46.3852946 72.206772,46.5494724 C72.234478,46.6032383 72.2612287,46.6848471 72.2612287,46.7395731 C72.3424361,47.2839522 72.2889348,47.8552142 72.1532706,48.4274363 C71.8819423,49.5152344 71.2322829,50.5771097 70.2033371,51.4210414 C69.201142,52.23713 67.8196605,52.8631179 66.0865986,53.0810616 C64.597159,53.2711622 62.8640971,53.1895534 60.887413,52.6720572 L60.7784995,52.6720572 L60.7517488,52.6999002 L60.7517488,52.7815091 C60.7517488,52.808392 60.7784995,52.8631179 60.8329562,52.8631179 C61.9163587,53.3527711 63.1077194,53.6254407 64.5436576,53.6254407 C65.9786405,53.6254407 67.6849517,53.3527711 69.7973,52.7267831 C69.9864656,52.6720572 70.2033371,52.808392 70.2577939,52.9994527 C70.2845446,53.0532186 70.2845446,53.1079445 70.2845446,53.1895534 C70.2033371,53.5159888 70.1221297,53.8424243 69.9864656,54.1419768 C69.4180136,55.6387793 68.2801544,56.5095938 66.8996282,56.9185982 C65.5726034,57.2987995 63.9742503,57.2719166 62.4313093,56.9454812 C61.563823,56.7822634 60.6972921,56.5095938 59.8852179,56.1831584 C59.8584672,56.1831584 59.8584672,56.1831584 59.8584672,56.2110014 C59.8307611,56.2110014 59.8307611,56.2378843 59.8307611,56.2378843 C59.8040104,56.2647673 59.8040104,56.2926103 59.8040104,56.3194932 C59.8040104,56.3742191 59.8584672,56.427985 59.9119685,56.4827109 C60.3180056,56.7553805 61.2666994,57.1086989 62.6472255,57.3266425 C63.6761713,57.4898603 64.9219887,57.598352 66.2767195,57.5167432 C66.4926357,57.4898603 66.6827566,57.653078 66.6827566,57.8710216 C66.6827566,57.9247875 66.6827566,57.9795134 66.6550506,58.0342394 C66.5470925,58.279066 66.4391344,58.4970096 66.3034702,58.7139932 C65.7073122,59.6395337 64.8684873,60.2655216 63.8385862,60.5381912 C62.8096404,60.7551748 61.6182797,60.646683 60.3180056,60.075421 C59.9119685,59.9122033 59.4791808,59.6673767 59.0454376,59.3947071 C59.0186869,59.3947071 59.0186869,59.3678242 59.0186869,59.3678242 L59.0186869,59.3947071 C58.9919362,59.504159 59.0454376,59.6395337 59.1811018,59.7758685 C59.722803,60.3471305 60.4269191,60.701409 61.1033292,60.9193526 C61.9975662,61.1641792 62.8908478,61.1910621 63.5414625,61.0547273 C63.7306281,61.0278444 63.9474996,61.1363362 63.9742503,61.3542798 C64.0019564,61.4627716 63.9742503,61.5443805 63.9474996,61.6269494 C63.8930429,61.7085583 63.8662922,61.7901672 63.8118355,61.843933 C64.6248651,61.6269494 65.4369393,61.4627716 66.1955121,61.3542798 C66.6827566,60.9462355 67.1967518,60.5650741 67.7117024,60.2117558 C69.0387272,59.2314894 70.365752,58.279066 70.4202087,57.1634248 L70.4202087,57.1355818 C70.5281668,54.8226907 71.2322829,52.9178439 72.532557,51.4210414 C73.8318758,49.9232787 75.7283079,48.8354806 78.2189872,48.1547667 C78.4091081,48.1000408 78.6259797,48.2363756 78.6794811,48.4274363 C78.7071871,48.5906541 78.6527304,48.7538718 78.5170662,48.8354806 C76.9741252,50.0327306 75.836266,51.3115895 75.1589005,52.6451743 C74.4547844,53.9518761 74.1844115,55.3401869 74.3468263,56.8091464 C74.4547844,57.9247875 74.2111622,58.9597799 73.7783744,59.8843602 C73.4258387,60.6198001 72.9653448,61.272671 72.4781003,61.9255419 C74.5636979,62.6609817 76.2423031,63.9129576 77.3801623,65.463526 C78.6527304,67.2051551 79.1944316,69.1925709 79.167681,71.1521436 C79.1399749,73.2202081 78.4358588,75.2613898 77.2177475,76.8945271 C75.7818092,78.772491 73.8051251,79.8881321 71.7472335,80.3240194 C70.1765865,80.6504549 68.5514827,80.568846 67.1155444,80.1329587 C65.6538108,79.6701884 64.3802874,78.8540998 63.4870058,77.6837328 C62.7016823,76.7034663 62.2144378,75.4793334 62.159981,74.0641398 C61.6450304,74.4453012 61.1310352,74.8533455 60.6160846,75.2345068 L59.993176,75.72416 C60.1288401,75.8873777 60.291255,76.1053214 60.4269191,76.295422 C60.7249981,76.7313094 60.9953711,77.1940796 61.1033292,77.4936321 C61.1577859,77.6837328 61.1033292,77.8738334 60.9409143,77.9554423 L59.8852179,78.6630391 C60.020882,78.772491 60.1555908,78.8540998 60.291255,78.9357087 C60.5081265,79.0989264 60.6972921,79.2352612 60.9686204,79.4522448 C61.1310352,79.5885796 61.1310352,79.8334062 60.9953711,79.9966239 C60.9953711,79.9966239 60.9686204,80.0244669 60.9409143,80.0244669 C60.3992131,80.4872371 59.9664253,80.8136726 59.6683463,81.0316162 C59.424724,81.2217169 59.2355585,81.3580517 59.1543511,81.4396606 C59.0454376,81.5212694 59.126645,81.6028783 59.424724,81.9561966 C59.8307611,82.4189669 60.1555908,82.9364631 60.4536698,83.4808422 L60.5348772,83.6162169 L60.9953711,84.2969308 L61.2934501,84.759701 C61.8084006,84.9498017 61.9708155,84.759701 62.0787736,84.6233662 C62.1332303,84.5696004 62.159981,84.5148744 62.2144378,84.4870314 C62.2956452,84.3516567 62.4036033,84.2422048 62.5115614,84.1337131 C62.5937242,84.0252213 62.7016823,83.9436124 62.8096404,83.8620036 C62.8096404,83.8341605 62.8373464,83.8341605 62.8640971,83.8072776 C62.9720552,83.7256687 63.1077194,83.6440599 63.2156775,83.5893339 C63.324591,83.534608 63.4602551,83.4808422 63.5949639,83.4529991 C63.6761713,83.4261162 63.7573787,83.3992333 63.8662922,83.3713903 C64.4614948,83.2628985 65.1656109,83.3176244 65.7617689,83.562451 C66.3846776,83.8072776 66.9263789,84.2422048 67.1432505,84.8413099 C67.1700012,84.9229187 67.1967518,85.0045276 67.1967518,85.0592535 C67.2512086,85.2771972 67.1155444,85.4672978 66.8996282,85.5220238 C66.7907147,85.5489067 66.6550506,85.4941808 66.5747985,85.4125719 C66.4391344,85.3040801 66.3034702,85.2224713 66.167806,85.1677453 C66.0598479,85.1130194 65.9241838,85.0861365 65.7885196,85.0861365 C65.3280258,85.1408624 65.0576528,85.4941808 64.7328232,85.9031852 C64.4079935,86.3112295 64.0287071,86.7739997 63.3790477,87.1004352 C63.1344701,87.2905358 63.1621761,87.4815965 63.1621761,87.6985801 C63.1889268,87.780189 63.1889268,87.8627579 63.1889268,87.9712497 C63.2156775,88.0259756 63.2701342,88.0797415 63.324591,88.1344674 C63.3790477,88.2429592 63.4870058,88.3524111 63.5949639,88.4609029 C63.62267,88.4877858 63.62267,88.5156288 63.6494206,88.5425117 C63.9742503,89.2501085 63.8930429,89.8760965 63.4057984,90.4204756 C63.4602551,90.5568104 63.5414625,90.6921851 63.62267,90.8285199 C63.7306281,90.9917376 63.8662922,91.1280724 64.0287071,91.2096813 C64.1099145,91.2365642 64.1643712,91.2365642 64.2723293,91.2644072 C64.3535367,91.2644072 64.4614948,91.2365642 64.5436576,91.2096813 C64.7595738,91.1549554 64.9764454,91.2912902 65.0309022,91.4823509 C65.0576528,91.5908427 65.0309022,91.7271775 64.9496947,91.8087864 C64.6783664,92.1621047 64.3802874,92.3800484 64.0019564,92.5163832 C63.6494206,92.624875 63.2701342,92.652718 62.8373464,92.570149 L62.7828897,92.570149 C62.3768526,92.4885402 62.0520229,92.3800484 61.7806946,92.2437136 C61.6727365,92.1621047 61.563823,92.1083389 61.4826156,92.02673 C61.4291142,92.1083389 61.3746575,92.1899477 61.3202007,92.2437136 C61.2389933,92.4347743 61.185492,92.597992 61.1577859,92.7612098 C61.1310352,92.8159357 61.1310352,92.8697015 61.1033292,92.9244275 C60.887413,93.3055889 60.6437907,93.5772984 60.3457117,93.7683591 C60.020882,93.9853427 59.6683463,94.0679116 59.2623092,94.0679116 L59.2355585,94.0679116 L59.0998943,94.0679116 L59.0454376,94.0679116 C59.0186869,94.0679116 58.9642302,94.0400686 58.9374795,94.0400686 C58.6938572,94.0400686 58.4769857,94.0400686 58.3145708,94.0679116 C58.152156,94.0679116 58.0164918,94.1216775 57.9085337,94.1495205 C57.7728696,94.2580123 57.6649115,94.366504 57.6104547,94.4759559 C57.555998,94.6113306 57.5292473,94.7755085 57.5292473,94.9387262 C57.555998,95.1557097 57.4203338,95.3467705 57.2044176,95.3736534 C57.0687534,95.3736534 56.9607953,95.3189275 56.8786325,95.2104357 C56.5270522,94.8571173 56.3646373,94.42123 56.3378867,93.9584597 C56.3101806,93.5225724 56.4190941,93.0607623 56.689467,92.5432661 C56.689467,92.5163832 56.7162177,92.4885402 56.7162177,92.4616572 L56.7706744,92.4069313 L56.7974251,92.3253224 C56.8251312,92.2984395 56.8518819,92.2437136 56.9063386,92.2168307 C57.0142967,92.0804959 57.1767115,91.9720041 57.3391264,91.8625522 C57.5292473,91.7540604 57.7461189,91.6993345 57.9897411,91.6455686 C58.2601141,91.5092338 58.450235,91.3460161 58.6126498,91.1011895 L58.6126498,91.0733465 C58.7206079,90.9101288 58.8018153,90.7200281 58.8562721,90.5020845 L58.8018153,90.5020845 C58.6126498,90.5568104 58.450235,90.6653022 58.2333634,90.7747541 L58.2333634,90.801637 C57.257919,91.372899 56.6627163,91.2644072 55.8496868,91.0733465 C55.7417287,91.0464636 55.6060645,91.0464636 55.4981064,91.0195807 C55.3079855,91.0195807 55.1455707,91.0464636 55.0376126,91.1280724 C54.9019484,91.2096813 54.7939903,91.3460161 54.7395336,91.5092338 C54.6583261,91.7271775 54.4147039,91.8087864 54.2255384,91.7271775 C54.1166249,91.6724515 54.0354175,91.5639598 54.0086668,91.427625 C53.95421,91.2365642 53.95421,91.0195807 53.95421,90.8285199 C53.9809607,90.175649 54.3067458,89.604387 54.7939903,89.1963427 C55.2544841,88.7873383 55.8773928,88.5156288 56.4725954,88.3524111 C56.8518819,88.2708022 57.2311683,88.2160763 57.6104547,88.2429592 C57.9620351,88.1891934 58.2333634,88.1075845 58.3957782,87.9981326 C58.4769857,87.9434067 58.5314424,87.8627579 58.5581931,87.808032 C58.5849438,87.7264231 58.6126498,87.6169712 58.5849438,87.4815965 C58.5581931,87.0725921 58.2868648,86.5291731 57.7996202,85.8484592 L56.7706744,84.5148744 L56.7706744,84.4870314 C56.7162177,84.4054226 56.6082596,84.2700479 56.4725954,84.1068301 C56.1477658,83.6709428 55.714978,83.0727979 55.714978,83.0727979 C55.6872719,83.0727979 55.6605212,83.0996808 55.5525631,83.1812896 C55.3891929,83.3176244 55.1732767,83.5077251 54.7662842,83.7256687 C54.6038694,83.8341605 54.3602471,83.7794346 54.252289,83.5893339 C54.252289,83.5893339 54.252289,83.562451 54.2255384,83.562451 L54.0621681,83.2081726 C53.8997533,82.8548542 53.6293804,82.4189669 53.3313014,81.9024308 C53.0609284,81.4665435 52.7628494,81.0037732 52.4103137,80.541003 L52.1399407,80.6504549 C52.1934421,81.1132251 52.1399407,81.5212694 52.0310272,81.9293137 C51.8963185,82.3642409 51.6526962,82.7732453 51.3001605,83.1544067 C51.218953,83.2628985 51.0832889,83.2897814 50.9753308,83.2628985 L50.0543431,83.1265637 L50.0543431,83.2081726 C50.0543431,83.562451 49.9998864,83.9157694 49.8651776,84.188439 L49.8651776,84.2153219 C49.7562641,84.5148744 49.5670986,84.7865839 49.350227,85.0045276 C49.2145628,85.1408624 48.9986466,85.1408624 48.8629825,85.0314105 L47.8063306,84.3516567 C47.77958,84.4870314 47.77958,84.6512092 47.7528293,84.814427 C47.7251232,85.0861365 47.6439158,85.3588061 47.5627084,85.6305156 C47.509207,85.8215763 47.2923354,85.9300681 47.1022145,85.8753421 C47.0754638,85.8753421 47.0487132,85.8753421 47.0487132,85.8484592 C46.4525552,85.5489067 45.9920613,85.2771972 45.6672316,85.0861365 C45.4236094,84.9498017 45.2344439,84.8413099 45.0987797,84.7865839 C45.0175723,84.7328181 44.9631155,84.8413099 44.77395,85.2224713 C44.5303278,85.7668504 44.177792,86.2565035 43.8252563,86.7461567 L43.7717549,86.8556086 C43.6360908,87.0188263 43.581634,87.182044 43.581634,87.2636529 C43.5548833,87.2905358 43.581634,87.3183788 43.581634,87.3452617 C43.581634,87.3452617 43.581634,87.3452617 43.6093401,87.3721447 C43.6905475,87.4268706 43.8252563,87.4537535 43.9886265,87.4815965 C44.1510413,87.4537535 44.3134562,87.4537535 44.448165,87.4815965 C44.5838291,87.4815965 44.746244,87.5084795 44.8819081,87.5353624 C45.0175723,87.5632054 45.1522811,87.5900883 45.2879452,87.6448143 C45.4236094,87.6985801 45.5315675,87.753306 45.6127749,87.8349149 C45.7216884,87.8896408 45.8028958,87.9434067 45.9108539,88.0259756 C46.3713477,88.379294 46.7773848,88.8967902 46.9942564,89.4411693 C47.2378787,90.0393142 47.2646294,90.6921851 46.913049,91.2912902 L46.913049,91.3191332 C46.8585923,91.372899 46.8318416,91.4545079 46.7773848,91.5092338 C46.6694267,91.6724515 46.4258045,91.6993345 46.2633896,91.5908427 C46.1544762,91.5092338 46.1009748,91.400742 46.1009748,91.2912902 L46.1009748,91.2644072 C46.1009748,91.1011895 46.0732687,90.9648547 46.018812,90.801637 C45.9920613,90.6921851 45.9108539,90.5836933 45.8296465,90.4752016 C45.6672316,90.3388668 45.4780661,90.230375 45.3146959,90.175649 C45.1799871,90.1209231 45.044323,90.1209231 44.8819081,90.175649 C44.8007007,90.202532 44.746244,90.230375 44.6650365,90.2572579 C44.3402069,90.3935927 44.0153772,90.4473585 43.6628414,90.4204756 C43.3112611,90.4204756 42.9587253,90.3388668 42.6338956,90.230375 C41.7673647,89.9855484 41.1177053,90.3935927 40.6572115,91.427625 C40.6304608,91.4823509 40.6304608,91.5092338 40.6027548,91.5361167 C40.3323818,91.8356693 40.0343028,92.02673 39.6817671,92.1083389 C39.4113941,92.1621047 39.1410212,92.1352218 38.8429422,92.0536129 L38.7884855,92.1083389 C38.7340287,92.1621047 38.6805274,92.2437136 38.6260706,92.2984395 C38.6260706,92.3253224 38.6260706,92.3253224 38.5993199,92.3531655 L38.5716139,92.3800484 C38.5181125,92.4616572 38.4904065,92.570149 38.4636558,92.652718 C38.4369051,92.7343268 38.409199,92.8159357 38.409199,92.8697015 L38.409199,92.8975446 C38.409199,92.9513104 38.4369051,93.0329193 38.4636558,93.1145281 C38.4904065,93.1692541 38.5448632,93.2777458 38.5993199,93.3603148 C38.7340287,93.5225724 38.707278,93.7405161 38.5448632,93.8768509 C38.4369051,93.9584597 38.3012409,93.9853427 38.1923274,93.9315768 C37.7862903,93.849968 37.4882113,93.6589072 37.2445891,93.3871977 C36.9742161,93.1145281 36.8118013,92.7612098 36.7305939,92.3253224 L36.7028878,92.3253224 C36.6216804,91.9172781 36.5949297,91.5639598 36.5949297,91.2912902 C36.6216804,91.1549554 36.6493865,91.0464636 36.6761371,90.9379718 C36.5949297,90.9101288 36.5137223,90.9101288 36.4325149,90.9101288 C36.242394,90.8832459 36.0799791,90.9101288 35.9175643,90.9379718 C35.8640629,90.9648547 35.8096062,90.9648547 35.7828555,90.9648547 L35.7551495,90.9648547 C35.7283988,90.9379718 35.7016481,90.9379718 35.6471914,90.9101288 C35.1866975,90.7469111 34.1300457,89.9039395 34.1300457,89.9039395 C34.0765443,89.8492136 34.0220876,89.7944877 33.9953369,89.7128788 C33.9408802,89.5227782 33.8596727,89.2779516 33.7517146,89.0600079 C33.6705072,88.8689472 33.5615937,88.7057294 33.4259296,88.5972377 C33.2912208,88.5156288 33.1555566,88.4609029 33.0475985,88.4609029 C32.9119344,88.4340199 32.7495195,88.4877858 32.6138554,88.5703547 C32.4246898,88.6788465 32.1801122,88.5972377 32.0989048,88.4340199 C32.0176974,88.3245681 32.0176974,88.1891934 32.0721541,88.0797415 C32.2345689,87.6985801 32.5058973,87.3999877 32.8030209,87.182044 C33.1288059,86.9909833 33.4803863,86.8556086 33.8329221,86.8277655 C34.1845024,86.8008826 34.5370382,86.8556086 34.8618678,86.9909833 C35.1866975,87.1551611 35.4847765,87.3721447 35.7016481,87.6716972 C35.8908136,87.8627579 36.1344359,87.9712497 36.4057642,87.9981326 C36.5949297,88.0259756 36.7840952,88.0259756 37.0009668,87.9981326 L36.9742161,87.9712497 C36.8653027,87.8349149 36.7305939,87.6985801 36.5137223,87.5900883 L36.4869716,87.5632054 C35.6204407,86.9372174 35.5115272,86.3649953 35.3223617,85.5489067 C35.3223617,85.4404149 35.2946556,85.3588061 35.2679049,85.2493542 C35.1322408,84.9229187 34.8886185,84.7328181 34.5370382,84.759701 C34.3201666,84.759701 34.1577517,84.5696004 34.1577517,84.3785396 C34.1577517,84.2422048 34.2122085,84.1337131 34.2934159,84.0789871 C34.6717469,83.7794346 35.077784,83.6440599 35.5382779,83.6440599 C35.9175643,83.6440599 36.2968507,83.7794346 36.7028878,83.9973782 C36.9465101,83.9973782 37.2178384,84.1337131 37.4614607,84.4054226 C37.6783322,84.6233662 37.8952038,84.8960358 38.0843693,85.1946282 C38.3012409,85.5220238 38.4904065,85.8484592 38.5448632,86.0116769 C38.707278,86.3112295 38.8964436,86.5291731 39.0598138,86.6376649 C39.1410212,86.6645478 39.2222286,86.6923909 39.27573,86.6923909 C39.3846435,86.6923909 39.4658509,86.6645478 39.573809,86.6098219 C39.8986387,86.4197212 40.2779251,85.984794 40.7116682,85.2771972 L41.4969918,83.8620036 C41.7673647,83.3445074 41.6317005,83.2360156 41.1177053,82.90862 C40.9275844,82.7732453 40.7384189,82.6369105 40.5215473,82.5005757 C40.3591325,82.3642409 40.3323818,82.1194144 40.4403399,81.9561966 L40.468046,81.9293137 C40.7384189,81.6297612 40.9008338,81.3302087 41.0087919,81.140108 C39.7906806,80.6773378 38.6805274,80.0244669 37.7050829,79.2074182 C35.8096062,77.6568498 34.401374,75.5340594 33.7240086,72.9484986 C32.9663911,70.0902683 33.1288059,66.7155019 34.4825814,62.9874171 L34.8074111,62.2250944 C36.540473,58.2512229 37.5971248,55.801997 39.4113941,53.2990053 L38.409199,53.2990053 L38.3556977,53.2990053 C38.0843693,53.2990053 37.8674978,53.3527711 37.732789,53.43438 C37.6238755,53.5438318 37.5694188,53.7070496 37.5426681,53.9249932 C37.5426681,54.1150939 37.3535026,54.2783116 37.1633817,54.2783116 C37.1098803,54.2783116 37.0554236,54.2514287 37.0009668,54.2514287 C36.4325149,53.9518761 35.9175643,53.5438318 35.5115272,53.0263357 C35.1054901,52.4819565 34.8074111,51.8559686 34.6182456,51.0667629 C34.5637888,50.8766623 34.6717469,50.6587186 34.8618678,50.6039927 C34.9698259,50.5771097 35.077784,50.6039927 35.1599468,50.6587186 C35.5927346,50.8766623 36.1611866,50.985154 36.8930087,50.9304281 C37.6783322,50.8766623 38.6528213,50.6587186 39.7639299,50.2775572 L39.7906806,50.2775572 C40.3323818,50.1690654 40.8196263,50.1412224 41.2801202,50.2228313 C41.5237424,50.2506743 41.7673647,50.3322832 42.010987,50.4407749 C41.9297795,50.0058477 41.7950708,49.6246863 41.6049499,49.3251338 C41.3345769,48.9439724 40.9820412,48.6722629 40.5215473,48.5906541 C39.573809,48.617537 38.6805274,48.617537 37.7862903,48.617537 C36.9465101,48.617537 35.9452704,48.617537 34.7806604,48.5906541 C34.6449963,48.617537 34.4558307,48.6722629 34.2657098,48.7538718 L34.2389592,48.7538718 C33.9676308,48.8354806 33.6972579,48.9439724 33.3724282,48.9708553 C32.5058973,48.9986984 31.6928677,48.3727104 31.5572035,45.2696535 C31.5572035,45.0526699 31.6928677,44.8884921 31.9097393,44.8884921 L31.964196,44.8884921 C33.6428012,44.943218 34.7806604,44.8347263 35.4847765,44.5620567 C36.0532285,44.3450731 36.2701,43.9907946 36.242394,43.5011415 C36.242394,43.2831978 36.4057642,43.1199801 36.6216804,43.0930972 L44.177792,43.0930972 C44.9086588,42.520875 45.6672316,42.004339 46.5070119,41.6231776 C47.3467922,41.2151333 48.2668245,40.8886978 49.2145628,40.6976371 C49.4314344,40.6429112 49.6215553,40.779246 49.6750567,40.9971896 C49.7027627,41.0787985 49.6750567,41.1872903 49.6215553,41.2688991 C49.4581851,41.5684516 49.2957703,41.949613 49.1878122,42.4123833 C52.11319,38.9291251 57.9897411,36.7516087 62.8096404,34.9821366 C64.7595738,34.2745397 66.5203418,33.6216688 67.8196605,32.968798 C68.0097814,32.8871891 68.226653,32.968798 68.3346111,33.1588986 C68.3613618,33.2673904 68.3613618,33.3768423 68.3346111,33.4584511 C67.8741173,34.7641929 67.4136234,36.0977777 67.1432505,36.9148264 L67.1432505,36.9148264 Z M45.3146959,52.2918559 C45.7751897,52.0739122 46.1544762,51.7743597 46.4258045,51.3394325 C46.5882193,50.7403275 46.5605133,50.0874566 46.3980984,49.4614686 C46.2356836,48.8623636 45.9108539,48.3179845 45.4780661,47.9368231 C45.3968587,47.8830572 45.342402,47.8004883 45.342402,47.6919965 C45.2879452,47.5018959 45.4503601,47.3108351 45.640481,47.2570693 C46.4793058,47.1207345 47.1022145,46.8480649 47.5359577,46.4400206 C47.9419948,46.0588592 48.1588664,45.5423231 48.2133231,44.9163351 C48.2133231,44.5620567 48.2133231,44.2356212 48.2400738,43.9091858 L48.2400738,43.8823029 C48.2668245,43.3916896 48.3212812,42.9298795 48.4024886,42.5487181 C48.4569454,42.1944396 48.5381528,41.8948871 48.6461109,41.6231776 C47.9964515,41.7863953 47.4002935,42.0312219 46.8318416,42.3038915 C46.018812,42.6840928 45.2611945,43.174706 44.5570784,43.7459681 C44.5026217,43.8275769 44.4214143,43.8544598 44.3134562,43.8544598 L37.0009668,43.8544598 C36.8930087,44.5082908 36.5137223,44.970101 35.7551495,45.2696535 C35.0242827,45.569206 33.9141295,45.6786579 32.342527,45.6508149 C32.4781912,47.7736054 32.8851837,48.2363756 33.3447221,48.2094927 C33.5348431,48.1816497 33.7784653,48.1000408 33.9953369,48.046275 L34.0220876,48.0184319 C34.2657098,47.9368231 34.4825814,47.8552142 34.7262037,47.8552142 L34.7529544,47.8552142 L37.7862903,47.8552142 L40.5215473,47.8552142 C40.5492534,47.8283313 40.5760041,47.8283313 40.6027548,47.8552142 C41.3068709,47.9368231 41.8485721,48.3179845 42.2278585,48.9170895 C42.607145,49.4883515 42.8240166,50.2775572 42.7963105,51.0667629 C42.7963105,51.1483718 42.7963105,51.2299806 42.7428091,51.3115895 C42.607145,51.4748072 42.3902734,51.5295331 42.2011079,51.3931983 C41.8762782,51.1762148 41.5237424,51.03988 41.1721621,50.9582711 C40.7928757,50.9035452 40.3858832,50.9304281 39.9798461,51.012037 C38.8152361,51.3931983 37.7862903,51.6380249 36.9465101,51.6927509 C36.4325149,51.7196338 35.972021,51.6927509 35.5659839,51.611142 C35.7283988,51.9654205 35.9175643,52.2918559 36.1076852,52.5635654 C36.3513075,52.8631179 36.6216804,53.1079445 36.9197594,53.3258882 C37.0009668,53.1348274 37.1098803,52.9716097 37.2722951,52.836235 C37.5426681,52.6451743 37.9219545,52.5366825 38.3824484,52.5366825 L43.3924685,52.5366825 C44.177792,52.5914084 44.8007007,52.5088395 45.3146959,52.2918559 L45.3146959,52.2918559 Z M38.1923274,45.3512624 C38.6805274,44.8884921 39.2222286,44.6715085 39.8174312,44.6436655 C40.3858832,44.6167826 41.0087919,44.7800003 41.6317005,45.1611617 C41.8218214,45.2696535 41.8762782,45.5144801 41.7673647,45.7055408 C41.740614,45.7324237 41.712908,45.7602668 41.6861573,45.7871497 C41.1177053,46.2768028 40.5492534,46.5494724 39.9530954,46.5763554 C39.3846435,46.6032383 38.7884855,46.3852946 38.2200335,45.9234845 C38.0299126,45.7871497 38.0031619,45.569206 38.1388261,45.4059883 C38.1655768,45.3791054 38.1655768,45.3512624 38.1923274,45.3512624 L38.1923274,45.3512624 Z M39.8451373,45.3791054 C39.6005597,45.4059883 39.3301867,45.4875972 39.1133151,45.623932 C39.3846435,45.7602668 39.6550164,45.8418756 39.9263447,45.8140326 C40.1967177,45.8140326 40.468046,45.7324237 40.7384189,45.569206 C40.4135892,45.4328712 40.1155102,45.3791054 39.8451373,45.3791054 L39.8451373,45.3791054 Z M37.0286729,41.7316694 L43.5548833,41.7316694 C43.6628414,40.9155808 43.9341698,40.2079839 44.3669575,39.6367219 C44.6382859,39.2277175 44.9898662,38.9012821 45.3968587,38.6017295 C45.1799871,38.5748466 44.9363649,38.5479637 44.7194933,38.5479637 C44.3946636,38.5479637 44.0965846,38.5748466 43.8529623,38.6833384 C43.6628414,38.7659074 43.5281327,38.9012821 43.4736759,39.0644998 C43.4469252,39.1739517 43.4192192,39.2555605 43.4192192,39.3909352 C43.4192192,39.7183308 43.2845104,40.0169232 43.0943895,40.2348669 C42.8775179,40.4796934 42.5803943,40.6160282 42.2546092,40.6160282 C41.9030289,40.6160282 41.6049499,40.4796934 41.3880783,40.2348669 C41.1989128,40.0169232 41.0632486,39.7183308 41.0632486,39.3909352 L41.0632486,39.3371694 L41.0632486,39.3093264 C41.0899993,38.9828909 41.2256634,38.7111814 41.4157843,38.4932378 C41.5504931,38.356903 41.6861573,38.2484112 41.8485721,38.1936852 C41.740614,37.1865359 40.7384189,36.3435644 40.2779251,36.0171289 C39.8174312,36.3157213 38.8429422,37.1327701 38.707278,38.1936852 C38.8964436,38.2752941 39.0321077,38.384746 39.1677719,38.5201207 C39.3846435,38.7380643 39.4926016,39.0376169 39.4926016,39.3909352 C39.4926016,39.7183308 39.3846435,40.0169232 39.1677719,40.2348669 C38.9509003,40.4796934 38.6528213,40.6160282 38.3279916,40.6160282 C38.0031619,40.6160282 37.7050829,40.4796934 37.4882113,40.2348669 C37.2722951,40.0169232 37.136631,39.7183308 37.136631,39.3909352 C37.136631,39.2555605 37.136631,39.1739517 37.1098803,39.0644998 C37.0286729,38.9012821 36.8930087,38.7659074 36.7028878,38.6833384 C36.4592656,38.5748466 36.1611866,38.5479637 35.8363569,38.5479637 C35.6204407,38.5479637 35.4035691,38.5748466 35.1599468,38.6017295 C35.5927346,38.8743991 35.9175643,39.2277175 36.2156433,39.6367219 C36.6216804,40.2079839 36.8930087,40.9155808 37.0286729,41.7316694 L37.0286729,41.7316694 Z M43.9064637,42.5487181 L36.6493865,42.5487181 C36.4325149,42.5487181 36.242394,42.3855004 36.242394,42.1397137 C36.1611866,41.350508 35.9175643,40.6707542 35.5382779,40.1263751 C35.1599468,39.581996 34.5905395,39.1461086 33.8864234,38.8465561 C33.7784653,38.7927903 33.6972579,38.7111814 33.6428012,38.5748466 C33.5892998,38.356903 33.6972579,38.1389593 33.9141295,38.0583105 C34.4281247,37.8672498 35.1599468,37.7040321 35.8363569,37.7040321 C36.2701,37.7040321 36.6761371,37.758758 37.0286729,37.9219757 C37.43471,38.0851935 37.732789,38.384746 37.8952038,38.7927903 C37.9487052,38.9828909 37.9764112,39.1739517 37.9764112,39.3909352 C37.9764112,39.5003871 38.0299126,39.6088789 38.0843693,39.6904877 C38.1388261,39.7452137 38.2467842,39.7999396 38.3279916,39.7999396 C38.409199,39.7999396 38.4904065,39.7452137 38.5716139,39.6904877 C38.6260706,39.6088789 38.6805274,39.5003871 38.6805274,39.3909352 C38.6805274,39.2555605 38.6260706,39.1461086 38.5716139,39.0644998 C38.4904065,39.0107339 38.409199,38.956008 38.3279916,38.956008 C38.0843693,38.9828909 37.8952038,38.8196732 37.8952038,38.5748466 C37.7595397,36.533665 40.0610535,35.1731973 40.0610535,35.1453543 C40.1967177,35.0915884 40.3591325,35.0637454 40.4947967,35.1731973 C40.4947967,35.1731973 42.8507672,36.6152739 42.6883524,38.5748466 C42.6616017,38.7927903 42.4714808,38.9828909 42.2546092,38.956008 L42.2278585,38.956008 C42.1466511,38.956008 42.0654437,39.0107339 42.010987,39.0644998 C41.9574856,39.1461086 41.9030289,39.2277175 41.9030289,39.3371694 L41.9030289,39.3909352 C41.9030289,39.5003871 41.9297795,39.6088789 42.010987,39.6904877 C42.0654437,39.7452137 42.1466511,39.7999396 42.2546092,39.7999396 C42.3358166,39.7999396 42.4170241,39.7452137 42.4714808,39.6904877 C42.5526882,39.6088789 42.5803943,39.5003871 42.5803943,39.3909352 C42.5803943,39.1739517 42.6338956,38.9828909 42.6883524,38.7927903 C42.8240166,38.384746 43.1488462,38.0851935 43.5281327,37.9219757 C43.879713,37.758758 44.3134562,37.7040321 44.7194933,37.7040321 C45.4236094,37.7040321 46.1544762,37.8672498 46.6694267,38.0583105 C46.7773848,38.0851935 46.8585923,38.1668023 46.913049,38.2752941 C46.9942564,38.4932378 46.8862983,38.7380643 46.6961774,38.8196732 C45.9653106,39.1461086 45.4236094,39.5551131 45.0175723,40.1263751 C44.6382859,40.6707542 44.3946636,41.350508 44.3134562,42.1397137 C44.3134562,42.3855004 44.1233353,42.5487181 43.9064637,42.5487181 L43.9064637,42.5487181 Z M48.1311603,54.7141989 L48.077659,55.3123438 C47.7251232,58.3059489 47.3735428,61.4358887 48.8629825,63.4770703 C49.5393925,62.2519773 49.9731357,61.0009615 49.946385,59.5579248 C49.9186789,58.1427312 49.3769777,56.5643198 48.1311603,54.7141989 L48.1311603,54.7141989 Z M67.5760383,61.2457881 C68.7951049,61.1910621 69.9320088,61.272671 71.0154113,61.5174976 C71.2590336,61.5722235 71.4759052,61.6269494 71.7195274,61.6807153 C72.206772,61.0278444 72.7217226,60.3202476 73.0742583,59.5579248 C73.4802954,58.7418362 73.697167,57.8431786 73.5882535,56.8907552 C73.4258387,55.2854609 73.7239177,53.7339325 74.4824905,52.2918559 C74.9964857,51.3115895 75.7006018,50.386049 76.5948388,49.5152344 C75.1321499,50.1143395 73.9675399,50.9035452 73.101009,51.9106945 C71.9096484,53.2711622 71.2867397,55.0406343 71.1778262,57.1903077 C71.0698681,58.6871103 69.6348852,59.7489855 68.1454456,60.8099007 C67.9553247,60.9462355 67.7661592,61.1094533 67.5760383,61.2457881 L67.5760383,61.2457881 Z M46.8050909,43.5549073 C46.9942564,43.4732985 47.211128,43.5549073 47.3190861,43.7459681 C47.4002935,43.9360687 47.3190861,44.1540124 47.1299206,44.2625041 C46.5070119,44.5620567 45.9653106,44.970101 45.4780661,45.5144801 L45.6127749,45.5144801 C45.9653106,45.5144801 46.2356836,45.5423231 46.4793058,45.623932 C46.6694267,45.7055408 46.7773848,45.9234845 46.6961774,46.1135851 C46.6417207,46.3036858 46.4258045,46.4131376 46.2089329,46.3584117 C46.0732687,46.3036858 45.8563972,46.2768028 45.6127749,46.2768028 C45.3691526,46.2768028 45.044323,46.3036858 44.6927426,46.3852946 C44.5838291,46.4131376 44.475871,46.3852946 44.3946636,46.3315288 C44.2322488,46.2220769 44.177792,45.9772503 44.2857501,45.8140326 C44.9631155,44.8068832 45.8028958,44.0455206 46.8050909,43.5549073 L46.8050909,43.5549073 Z M41.7950708,81.4118175 L41.712908,81.3849346 C41.6317005,81.5759954 41.4969918,81.8477049 41.3068709,82.1194144 L41.5504931,82.2826321 C42.4714808,82.90862 42.7428091,83.0996808 42.1466511,84.2153219 L41.3613276,85.6305156 L41.3613276,85.6573985 C40.8740831,86.4744472 40.3858832,87.0188263 39.9263447,87.2636529 C39.7094731,87.3999877 39.5193522,87.4537535 39.303436,87.4537535 C39.0865645,87.4537535 38.8696929,87.3999877 38.6528213,87.2636529 C38.3824484,87.1004352 38.11112,86.8008826 37.8952038,86.3649953 C37.8674978,86.3649953 37.8674978,86.3381124 37.8407471,86.3112295 C37.813041,86.2017776 37.6506262,85.9300681 37.4614607,85.6036326 C37.2722951,85.3588061 37.0821742,85.1130194 36.9197594,84.9229187 C36.838552,84.8413099 36.838552,84.7328181 36.8118013,84.7328181 C36.7028878,84.7865839 36.568179,84.7865839 36.4592656,84.7328181 C36.1611866,84.5417574 35.8640629,84.4332656 35.6204407,84.4054226 C35.7551495,84.5417574 35.8908136,84.7328181 35.972021,84.9776447 C35.972021,85.0045276 35.9987717,85.0045276 35.9987717,85.0314105 C36.0264778,85.1677453 36.0532285,85.2771972 36.0799791,85.4125719 C36.2156433,86.0385599 36.2968507,86.5013301 36.9197594,86.9641004 C37.1910877,87.1004352 37.4070039,87.2905358 37.5426681,87.4815965 C37.732789,87.6716972 37.8407471,87.9165238 37.9219545,88.1344674 C37.9764112,88.3245681 37.8674978,88.5425117 37.6783322,88.5972377 C37.1633817,88.7604554 36.7028878,88.8151813 36.2968507,88.7604554 C35.8640629,88.7057294 35.4847765,88.5156288 35.1599468,88.2160763 C35.1322408,88.1891934 35.1054901,88.1613503 35.1054901,88.1344674 C34.9698259,87.9434067 34.7806604,87.780189 34.5637888,87.6985801 C34.3469173,87.5900883 34.1300457,87.5632054 33.8864234,87.5900883 C33.6972579,87.5900883 33.5348431,87.6448143 33.3724282,87.7264231 C33.5348431,87.780189 33.6972579,87.8627579 33.8596727,87.9712497 L33.8864234,87.9981326 C34.1300457,88.1891934 34.2934159,88.4609029 34.4281247,88.7335725 C34.5370382,88.950556 34.6182456,89.1684997 34.699453,89.3864434 C34.9430753,89.576544 35.6204407,90.0940402 35.8096062,90.175649 C36.0264778,90.1487661 36.2701,90.1209231 36.5137223,90.1487661 C36.7840952,90.175649 37.0554236,90.2572579 37.3535026,90.3657497 C37.3802532,90.3657497 37.4070039,90.3935927 37.4614607,90.4204756 C37.5971248,90.5568104 37.6238755,90.801637 37.4882113,90.9648547 C37.4070039,91.0464636 37.3802532,91.1549554 37.3535026,91.3460161 C37.3535026,91.5639598 37.3802532,91.8087864 37.43471,92.1352218 C37.4614607,92.1621047 37.4614607,92.1621047 37.4614607,92.1899477 C37.5159174,92.3800484 37.5694188,92.570149 37.6783322,92.7064838 C37.6783322,92.597992 37.7050829,92.5163832 37.732789,92.4069313 C37.7862903,92.2715566 37.8407471,92.1352218 37.9487052,91.9720041 L37.9764112,91.9172781 L38.0031619,91.8903952 C38.0576187,91.8087864 38.1388261,91.6993345 38.2200335,91.6177256 C38.3012409,91.5092338 38.3824484,91.427625 38.4904065,91.3460161 C38.5993199,91.2365642 38.7617348,91.1827984 38.9241496,91.2644072 C39.1410212,91.372899 39.3569374,91.400742 39.5470583,91.372899 C39.7094731,91.3191332 39.8451373,91.2365642 39.9798461,91.0733465 C40.6304608,89.6859959 41.5781992,89.1416168 42.8507672,89.4949351 L42.905224,89.5227782 C43.1488462,89.604387 43.4192192,89.6581529 43.6905475,89.6581529 C43.9341698,89.6859959 44.177792,89.6312699 44.3946636,89.5496611 C44.448165,89.5227782 44.5303278,89.4949351 44.6115352,89.4680522 L44.6382859,89.4411693 C44.9363649,89.3595604 45.2344439,89.3595604 45.5315675,89.4411693 C45.8028958,89.5227782 46.0732687,89.6859959 46.3445971,89.9308225 L46.3713477,89.9577054 C46.3445971,89.8760965 46.3445971,89.7944877 46.2901403,89.7128788 C46.1277255,89.2779516 45.8296465,88.8967902 45.4503601,88.6241206 C45.3968587,88.5703547 45.3146959,88.5156288 45.2344439,88.4877858 C45.2344439,88.4609029 45.2067378,88.4609029 45.1799871,88.4609029 C45.1255304,88.4061769 45.0710736,88.379294 45.0175723,88.3524111 C44.9363649,88.3245681 44.8274514,88.2976851 44.7194933,88.2708022 C44.6382859,88.2429592 44.5303278,88.2429592 44.3946636,88.2429592 C44.2857501,88.2160763 44.1510413,88.2160763 44.0153772,88.2429592 C43.9886265,88.2429592 43.9886265,88.2429592 43.9609204,88.2160763 C43.6360908,88.1891934 43.3924685,88.1344674 43.2023476,87.9981326 C43.0676388,87.9165238 42.9587253,87.808032 42.905224,87.6716972 C42.8240166,87.5353624 42.7963105,87.3721447 42.8240166,87.2089269 C42.8507672,86.9909833 42.9319746,86.7192738 43.1211402,86.4475643 L43.1488462,86.4197212 L43.2300537,86.3112295 C43.5548833,85.8484592 43.879713,85.385689 44.0965846,84.8960358 C44.5303278,83.9704953 44.6382859,83.7525517 45.4236094,84.1068301 C45.5860242,84.160596 45.7751897,84.2969308 46.0465181,84.4332656 C46.2633896,84.5696004 46.5882193,84.759701 46.9675057,84.9498017 C46.9942564,84.8681928 46.9942564,84.814427 46.9942564,84.7328181 L47.0210071,84.7049751 C47.0487132,84.4870314 47.0487132,84.2700479 47.0487132,84.0252213 C47.0210071,83.9436124 47.0210071,83.8620036 47.0210071,83.8072776 L46.9942564,83.7794346 C46.9675057,83.5893339 46.9675057,83.5077251 47.1022145,83.3445074 L47.1299206,83.3445074 C47.3467922,83.1265637 47.4547503,83.2081726 47.7251232,83.3713903 L47.8607874,83.4808422 L48.9986466,84.2422048 C49.0798541,84.1337131 49.1333554,84.0252213 49.1610615,83.9157694 C49.2690196,83.6987858 49.2957703,83.4529991 49.2957703,83.1812896 C49.3234763,83.0727979 49.2957703,82.963346 49.2957703,82.8817371 C49.2690196,82.6916365 49.2422689,82.6100276 49.3769777,82.4468099 C49.5670986,82.2557492 49.6750567,82.2826321 49.9186789,82.337358 C49.9731357,82.337358 50.0275924,82.3642409 50.1355505,82.392084 L50.8941234,82.5005757 C51.0832889,82.2557492 51.218953,81.9840397 51.3001605,81.7113701 C51.3546172,81.5212694 51.4081186,81.3033257 51.4081186,81.0853821 C49.6215553,81.6566441 47.8340367,81.9840397 46.1821822,82.0378055 C44.6115352,82.0925314 43.1211402,81.8745878 41.7950708,81.4118175 L41.7950708,81.4118175 Z M69.1466853,70.5261556 C68.9575198,70.4714297 68.7406482,70.4714297 68.4425692,70.5261556 C68.3078604,71.0705348 68.3613618,71.4785791 68.4970259,71.7234056 C68.5782334,71.8318974 68.6326901,71.8866234 68.7406482,71.9413493 C68.8218556,71.9682322 68.903063,71.9960752 69.0119765,71.9960752 C69.201142,71.9682322 69.3635569,71.8597404 69.499221,71.6417968 L69.5259717,71.6417968 C69.6071791,71.4785791 69.6616359,71.3153613 69.6616359,71.1521436 C69.6616359,71.0158088 69.6071791,70.879474 69.5259717,70.7709822 C69.4447643,70.6615303 69.3368062,70.5799215 69.1466853,70.5261556 L69.1466853,70.5261556 Z" id="Fill-23"></path>
            </g>
    </g>
</svg>