<svg width="154" height="60" viewBox="0 0 154 60" xmlns="http://www.w3.org/2000/svg"><title>text</title><desc>Created with Sketch.</desc><g fill="none" fill-rule="evenodd"><path d="M20.93 23.305c-.363.49-.872.807-1.508.81h-.004c-.056 0-.11-.035-.132-.09-.144-.363-.14-.78-.136-1.212.013-1.243.026-2.62-4.11-2.62H.804c-.08 0-.142-.063-.142-.14V18.02c0-.078.064-.14.143-.14H2.86V2.542L.79 2.277C.715 2.273.655 2.21.655 2.135V.52c0-.08.063-.142.14-.142h7.11c.08 0 .14.064.14.14v1.617c0 .07-.052.132-.123.14l-2.074.268V17.88h8.886V2.542l-2.072-.266c-.075-.004-.135-.066-.135-.142V.52c0-.08.063-.142.142-.142h7.3c.08 0 .143.063.143.14v1.617c0 .07-.053.133-.125.14l-2.273.27v15.338h.77c.234.008.543.03.81.067.22.03.418.068.534.116.863.355 1.387 1.132 1.613 2.012.142.558.165 1.16.077 1.724-.087.567-.288 1.096-.59 1.503zM134.56 8.32c.243.694.336 1.468.336 2.308v6.27c0 .213.005.424.04.593.032.15.087.27.185.33.09.054.763.19 1.188.276l.307.063c.068.01.12.07.12.14v1.747c0 .078-.062.142-.14.142-.227 0-.41.002-.596.006-1.688.032-3.52.067-3.866-2.006v-.022l-.05-4.558-.376-.002c-1.577-.008-3.49-.018-4.72.62-.215.113-.398.25-.55.4l-.004.006c-.358.362-.545.82-.593 1.28-.046.464.045.932.244 1.315.087.167.198.32.327.45.2.193.44.342.697.444l.008.003c.278.108.578.163.87.163.48 0 .865-.09 1.193-.284.328-.192.605-.487.864-.892.025-.046.072-.077.127-.077.324 0 .632.152.86.382.23.232.38.55.38.87 0 .54-.198.95-.533 1.263-.325.303-.78.505-1.307.633-.542.132-1.112.2-1.68.2-1.068 0-2.136-.24-3.005-.75-.877-.517-1.55-1.31-1.818-2.407-.082-.335-.126-.697-.126-1.085 0-4.702 5.426-4.69 8.89-4.683h.25l.005-.256c.01-.872.022-1.907-.36-2.607-.065-.12-.144-.23-.234-.33-.426-.467-1.106-.7-1.82-.742-.72-.044-1.475.11-2.04.417-.162.09-.31.192-.436.307-.362.33-.568.698-.683 1.09-.116.397-.14.825-.14 1.267v.006c-.004.078-.07.14-.148.135l-.348-.013c-.056-.002-.824-.037-1.343-.595-.27-.292-.475-.72-.475-1.354 0-.637.22-1.187.598-1.65.48-.587 1.21-1.03 2.06-1.324.843-.292 1.803-.44 2.746-.44 1.483 0 2.937.366 3.847 1.108l.003.002c.605.518 1.004 1.134 1.25 1.834zm9.328 9.096c-.994 1.512-2.046 3.112-3.825 3.112-.635 0-1.08-.15-1.37-.46-.29-.308-.414-.762-.414-1.372 0-.07.052-.133.125-.14 1.622-.176 2.266-1.186 3.03-2.382.13-.205.263-.415.407-.63.202-.3.403-.574.62-.832.176-.21.365-.413.572-.613-.74-.394-1.433-.92-1.925-1.58-.456-.61-.74-1.334-.74-2.166 0-1.558.65-2.65 1.63-3.38 1.207-.9 2.92-1.247 4.53-1.247.873 0 1.59.09 2.327.18.37.047.748.095 1.13.13.177.015.366.03.573.038.202.01.425.015.678.015h2.362c.08 0 .143.064.143.142v1.616c0 .07-.05.13-.12.14l-1.687.264V17.9l1.675.263c.076.005.133.066.133.14v1.75c0 .077-.063.14-.14.14h-6.276c-.08 0-.142-.063-.142-.14v-1.75c0-.068.052-.13.122-.14l1.87-.265v-9.47c-.352-.217-.742-.374-1.147-.48-.48-.128-.985-.184-1.473-.184-.808 0-1.723.24-2.38.74-.522.4-.88.966-.88 1.712 0 .69.305 1.28.773 1.706l.01.007c.515.465 1.225.737 1.947.737.763 0 .86-.066 1.327-.38l.126-.084.004-.003c.064-.042.153-.024.196.04l.057.085.005.007c.24.357.427.633.427 1.116 0 .496-.167.86-.44 1.108-.3.273-.725.398-1.202.398-.25 0-.487.073-.712.2v-.002c-.23.13-.454.32-.67.55-.44.466-.845 1.083-1.26 1.714zm-25.19 3.114c-.13-.2-.325-.337-.608-.337-.457 0-.834-.05-1.148-.21-.275-.14-.494-.363-.666-.708-.48.414-.987.712-1.533.91-.6.218-1.247.315-1.948.315-.824 0-1.63-.087-2.36-.35-.685-.25-1.3-.652-1.793-1.28-.493.57-1.078.97-1.725 1.23-.695.28-1.46.4-2.26.4-1.56 0-2.903-.384-3.83-1.21-.853-.758-1.354-1.883-1.354-3.417V8.256l-2.04-.266c-.075-.004-.134-.066-.134-.142V6.232c0-.078.062-.14.14-.14h4.706c.08 0 .142.062.142.14v8.554c0 .928.066 1.822.4 2.47.325.63.914 1.04 1.967 1.04 1.05 0 1.785-.41 2.274-1.04.607-.784.847-1.91.847-3.027V8.254l-2.067-.266c-.074-.004-.134-.067-.134-.143V6.232c0-.078.064-.14.142-.14h4.706c.078 0 .142.062.142.14v8.554c0 .92.062 1.815.39 2.467.32.63.9 1.044 1.95 1.044 1.066 0 1.797-.467 2.283-1.158.64-.914.863-2.22.863-3.386v-5.5l-2.066-.265c-.075-.004-.135-.067-.135-.143V6.232c0-.078.063-.14.142-.14h4.706c.08 0 .143.062.143.14v11.174c0 .242.085.438.225.575l.007.008c.154.145.376.226.63.226.844 0 1.327.302 1.602.783.265.463.323 1.085.323 1.754 0 .86-.11 1.658-.478 2.25-.378.603-1.014.984-2.057.984-.08 0-.142-.063-.142-.142v-2.254c0-.343-.064-.765-.254-1.056zm-30.594-2.623l3.276-9.66-1.618-.257c-.073-.006-.13-.067-.13-.142V6.232c0-.078.063-.14.142-.14h5.81c.077 0 .14.062.14.14v1.616c0 .067-.048.127-.116.14l-1.464.268-4.897 13.766-.002.007c-.41 1.15-1.037 2.24-1.922 3-.75.64-1.685 1.042-2.83 1.042-.752 0-1.455-.17-2.05-.47-.56-.282-1.026-.68-1.352-1.16-.327-.48-.514-1.048-.514-1.662 0-.503.126-1.04.403-1.59.023-.047.072-.078.13-.077 1.792.035 1.92.837 2.044 1.61.094.596.186 1.173 1.337 1.227 1.52.07 2.26-2.168 2.723-3.56l.1-.297c-.337-.133-.733-.424-1.094-.765-.453-.427-.86-.94-1.03-1.314l-.005-.008c-.442-.983-.965-2.524-1.503-4.107-.797-2.355-1.63-4.806-2.255-5.61l-.024-.03-1.503-.27c-.072-.01-.128-.07-.128-.143V6.232c0-.078.062-.14.14-.14h1.964c.748 0 1.277.172 1.68.502.4.325.668.8.903 1.41l.002.005.028.067c.525 1.265.95 2.702 1.374 4.133.516 1.746 1.03 3.483 1.713 4.866l.02.044.005.008c.18.363.278.565.504.78zM75.62 6.882c.884.862 1.38 2.112 1.38 3.696V17.9l1.68.263c.074.005.13.066.13.14v1.75c0 .077-.062.14-.14.14h-4.344c-.078 0-.142-.063-.142-.14v-8.388c0-.947-.026-1.928-.342-2.66-.304-.704-.894-1.185-2.026-1.185-1.016 0-1.77.49-2.292 1.207-.668.914-.968 2.195-.968 3.307V17.9l1.667.263c.073.005.13.066.13.14v1.75c0 .077-.063.14-.14.14h-6.03c-.077 0-.14-.064-.14-.14v-1.75c0-.067.05-.127.12-.14l1.605-.262v-6.095c0-.853-.02-1.87-.32-2.662-.285-.762-.84-1.322-1.91-1.322-1.167 0-1.954.54-2.472 1.333-.71 1.084-.926 2.64-.926 3.934V17.9l1.684.263c.073.005.13.066.13.14v1.75c0 .076-.063.14-.14.14l-6.228.006h-.01c-.08 0-.143-.065-.143-.143v-1.754c0-.07.052-.13.122-.14l1.797-.266V8.254L55.56 7.99c-.07-.01-.127-.07-.127-.143V6.232c0-.078.064-.14.142-.14H60c.08 0 .142.062.142.14v.818c.454-.445.962-.807 1.517-1.065.624-.29 1.31-.452 2.047-.452.946 0 1.766.183 2.462.577.64.363 1.175.904 1.606 1.646.48-.676 1.05-1.228 1.713-1.613.675-.39 1.45-.61 2.327-.61 1.59 0 2.896.47 3.8 1.35zm-34.115.633c1.234-1.336 3.016-2.12 5.27-2.12.514 0 .995.045 1.445.132 1.595.308 2.782 1.135 3.57 2.28.785 1.14 1.173 2.598 1.173 4.173 0 .648-.066 1.318-.197 1.995-.013.065-.07.114-.14.114l-1.137-.004c-1.33-.003-2.67-.006-3.99.03h-.003l-.264.007c-1.056.027-1.664.042-2.664.575-.056.037-.133.03-.18-.018-.198-.196-.364-.43-.48-.687-.106-.24-.17-.5-.17-.77 0-1.368 1.73-1.35 2.71-1.34l.21.003h3.515c0-.32-.006-.62-.034-.912-.03-.336-.094-.677-.22-1.054-.08-.25-.18-.487-.3-.706l-.005-.006c-.12-.215-.258-.415-.415-.596-.15-.168-.315-.32-.5-.453-.177-.128-.373-.238-.588-.327-.206-.087-.43-.154-.67-.2-.232-.042-.482-.065-.75-.065-1.37 0-2.375.6-3.064 1.5-.85 1.11-1.227 2.68-1.227 4.155.003 1.283.435 2.68 1.25 3.695.686.853 1.646 1.432 2.848 1.432 1.028 0 1.796-.19 2.434-.59.64-.4 1.158-1.016 1.682-1.866l.002-.002c.034-.056.105-.082.17-.058.358.134.757.36 1.04.67.23.255.387.565.387.927 0 1.03-.646 1.74-1.546 2.218-1.267.67-3.045.878-4.167.878-2.085 0-3.796-.77-5-2.035-1.262-1.322-1.967-3.184-1.967-5.267 0-2.322.687-4.315 1.975-5.71zm-15.677-5c1.1-1.306 2.693-2.137 4.81-2.137 1.545 0 2.88.43 3.814 1.27.88.793 1.4 1.945 1.4 3.44 0 .822-.192 1.55-.54 2.2-.313.588-.755 1.11-1.296 1.583.96.514 1.725 1.24 2.26 2.107.575.93.885 2.023.885 3.197 0 1.84-.724 3.367-1.89 4.45-1.225 1.144-2.94 1.793-4.797 1.793-1.957 0-3.646-.446-4.812-1.443-1.057-.905-1.68-2.257-1.68-4.13v-6.58c0-2.176.602-4.27 1.85-5.75zm.91 5.778v6.55c0 1.065.36 1.916.996 2.5.65.6 1.593.926 2.738.926 1.077 0 2.02-.46 2.703-1.183.713-.753 1.142-1.79 1.142-2.887 0-1.1-.35-2.1-.994-2.81-.597-.655-1.45-1.062-2.517-1.062-.377 0-.748.112-1.102.27-.36.162-.71.38-1.034.58-.06.037-.142.023-.187-.035-.24-.315-.37-.648-.404-.97-.03-.286.015-.564.13-.815.11-.25.29-.474.52-.65.287-.22.66-.37 1.094-.415.914-.096 1.75-.462 2.338-1.053.538-.54.872-1.27.872-2.152 0-.79-.21-1.45-.637-1.9-.398-.42-.992-.663-1.787-.663-1.59 0-2.555.76-3.12 1.846l-.003.007c-.578 1.11-.75 2.566-.75 3.917z" fill="#ff0000"/><path d="M42.515 38.977c-.98 1.47-2.018 3.025-3.166 3.9 1.535.915 2.712 2.84 3.804 4.627 1.2 1.965 2.297 3.76 3.598 3.76.078 0 .142.064.142.142v.5c0 .562-.22.95-.563 1.205-.403.303-.976.41-1.555.41-.7 0-1.24-.242-1.68-.625-.433-.375-.77-.882-1.077-1.42-.274-.48-.55-1.02-.838-1.58-1.323-2.583-2.866-5.597-5.742-5.597-.175 0-.71.01-1.076.12-.166.05-.29.113-.29.19v6.422l1.905.266c.072.005.13.067.13.14v1.75c0 .077-.064.14-.142.14h-6.67c-.078 0-.142-.063-.142-.14v-1.75c0-.068.052-.13.122-.14l1.842-.265V35.65l-1.835-.266c-.073-.007-.13-.068-.13-.14v-1.617c0-.08.065-.142.143-.142h6.475c.078 0 .14.063.14.142l.002 1.616c0 .07-.05.13-.12.14l-1.72.264V41.9h1.03c3.013 0 4.775-3.125 6.192-5.64.12-.214.237-.423.357-.633l-1.22-.244c-.066-.01-.117-.07-.117-.14v-1.615c0-.08.064-.142.142-.142h5.988c.08 0 .142.063.142.142v1.616c0 .078-.063.14-.142.14-.072 0-.306.048-.546.104-.285.066-.57.14-.612.163-.88.49-1.798 1.867-2.773 3.328zm47.216 2.456c.245.694.34 1.468.34 2.308v6.27c0 .215.003.426.04.595.03.148.085.267.183.328.087.054.762.19 1.187.276l.305.062c.07.01.122.07.122.14v1.75c0 .077-.064.14-.142.14-.227 0-.41.004-.596.008-1.69.032-3.52.067-3.866-2.006l-.002-.02-.05-4.56h-.376c-1.576-.01-3.49-.02-4.72.62-.215.112-.397.248-.55.4l-.004.005c-.357.36-.544.82-.592 1.28-.048.463.043.93.242 1.313v.002c.088.17.2.322.328.45.197.195.437.344.695.446l.01.004c.276.11.576.164.87.164.477 0 .863-.092 1.192-.285.326-.193.603-.488.863-.893.023-.046.07-.077.126-.077.323 0 .632.152.86.382h-.002c.232.234.382.552.382.873 0 .54-.198.95-.533 1.262-.326.303-.78.505-1.307.633-.542.132-1.113.2-1.68.2-1.07 0-2.137-.24-3.006-.75-.877-.517-1.55-1.31-1.818-2.407-.08-.334-.125-.696-.125-1.084 0-4.703 5.427-4.69 8.892-4.684h.25l.002-.257c.01-.87.023-1.906-.36-2.606-.064-.12-.143-.23-.234-.328-.425-.468-1.105-.702-1.82-.743-.72-.043-1.475.11-2.038.418-.164.09-.312.193-.437.307-.362.33-.57.7-.683 1.09-.117.398-.142.826-.142 1.268v.006c-.004.08-.07.14-.147.136l-.35-.014c-.054 0-.823-.036-1.342-.594-.27-.292-.474-.72-.474-1.354 0-.636.22-1.186.597-1.648.48-.588 1.21-1.03 2.063-1.325.842-.292 1.8-.44 2.745-.44 1.484 0 2.938.366 3.848 1.108l.003.002c.606.517 1.004 1.133 1.25 1.833zm-29.124 0c.243.694.337 1.468.337 2.308v6.27c0 .215.005.426.04.595.032.148.087.267.185.328.086.054.76.19 1.186.276l.307.062c.07.01.12.07.12.14v1.75c0 .077-.06.14-.14.14-.226 0-.41.004-.596.008-1.686.032-3.52.067-3.864-2.006l-.002-.02-.05-4.56h-.375c-1.577-.01-3.49-.02-4.72.62-.215.112-.398.248-.55.4l-.004.005c-.36.36-.547.82-.595 1.28-.048.463.044.93.243 1.313l-.002.002c.088.17.2.322.328.45.197.195.437.344.696.446l.008.004c.277.11.577.164.87.164.48 0 .865-.092 1.193-.285.328-.193.605-.488.865-.893.023-.046.07-.077.126-.077.326 0 .634.152.86.382.23.234.38.552.38.873 0 .54-.196.95-.53 1.262-.326.303-.78.505-1.307.633-.542.132-1.112.2-1.68.2-1.068 0-2.136-.24-3.005-.75-.878-.517-1.552-1.31-1.82-2.407-.08-.334-.125-.696-.125-1.084 0-4.703 5.426-4.69 8.89-4.684h.252l.003-.257c.01-.87.022-1.906-.36-2.606-.065-.12-.144-.23-.234-.328-.427-.468-1.107-.702-1.82-.743-.723-.043-1.476.11-2.04.418-.163.09-.312.193-.437.307-.363.33-.57.7-.684 1.09-.117.398-.142.826-.142 1.268v.006c-.002.08-.07.14-.146.136l-.35-.014c-.055 0-.823-.036-1.343-.594-.27-.292-.473-.72-.473-1.354 0-.636.22-1.186.598-1.648.478-.588 1.21-1.03 2.06-1.325.843-.292 1.803-.44 2.746-.44 1.485 0 2.94.366 3.85 1.108l.002.002c.606.517 1.004 1.133 1.25 1.833zm53.696 10.57c-1.004-.978-1.558-2.41-1.565-4.243l.026-6.4-1.79-.264c-.07-.007-.126-.067-.126-.14V39.34c0-.08.064-.142.142-.142h6.28c.08 0 .143.063.143.142v1.616c0 .07-.05.13-.12.14l-1.768.265v6.367c0 1.073.253 2.056.832 2.734.498.584 1.245.945 2.29.945.938 0 1.693-.362 2.223-.942l.007-.01c.576-.633.89-1.53.89-2.503 0-.252-.014-.497-.04-.728-.028-.225-.068-.44-.122-.636-.156-.575-.422-1-.79-1.28-.37-.282-.855-.42-1.444-.42-.824-.002-1.235.44-1.747.99-.084.09-.17.183-.267.283l-.005.003-.005.006c-.058.05-.148.047-.2-.01-.283-.31-.57-.64-.712-1.01-.15-.39-.134-.814.21-1.28.32-.43.765-.695 1.253-.85.478-.153.996-.2 1.475-.2 1.59 0 2.883.5 3.78 1.386.904.894 1.405 2.18 1.405 3.742 0 1.673-.623 3.04-1.645 4.004-1.07 1.008-2.576 1.57-4.264 1.57-1.84 0-3.32-.525-4.342-1.52zm-6.185-12.663v11.667l1.695.263c.073.005.132.066.132.14v1.75c0 .077-.064.14-.142.14h-6.222c-.08 0-.142-.063-.142-.14v-1.75c0-.068.05-.13.12-.14l1.798-.265v-3.92h-6.38v3.923l1.575.262c.07.008.126.068.126.14v1.75c0 .077-.063.14-.142.14h-6.096c-.078 0-.142-.063-.142-.14v-1.75c0-.068.05-.13.122-.14l1.797-.265V41.36l-1.793-.264c-.07-.007-.125-.067-.125-.14V39.34c0-.078.064-.142.142-.142l4.384.004h.01c.08 0 .142.063.142.142v5.4h6.38V41.36l-1.792-.264c-.07-.007-.126-.067-.126-.14V39.34c0-.08.063-.142.142-.142h4.395c.078 0 .142.063.142.142zm-40.128-.028c.63-.16 1.37-.254 2.237-.254 1.594 0 2.97.41 3.923 1.267.88.79 1.4 1.957 1.4 3.527 0 .888-.26 1.662-.696 2.332-.453.7-1.095 1.283-1.824 1.763.93.476 1.624 1.19 2.102 2.038.572 1.015.837 2.226.837 3.46 0 1.717-.7 3.204-1.824 4.27-1.156 1.097-2.76 1.75-4.51 1.75-1.552 0-3-.458-4.058-1.183-1.07-.733-1.748-1.744-1.748-2.84 0-.626.236-1.06.605-1.346.436-.34 1.054-.467 1.68-.467.078-.003.14.06.14.14 0 .95.31 1.91.96 2.59.552.578 1.352.956 2.422.956 1.073 0 1.89-.418 2.46-1.052.67-.746 1-1.796 1-2.82 0-1.09-.22-2.168-.78-2.914-.454-.603-1.138-.992-2.118-.992-.43 0-.77.064-1.078.196-.306.13-.587.334-.893.61l-.004.004c-.055.055-.145.055-.2 0L68 50.324c-.466-.466-.87-.868-.87-1.595 0-.5.226-.87.56-1.13.4-.314.962-.463 1.47-.487 1.017-.048 1.948-.4 2.604-1.017.598-.56.97-1.348.97-2.328 0-.806-.23-1.453-.662-1.893-.424-.432-1.05-.67-1.847-.67-1.017 0-1.786.38-2.313.99-.597.69-.89 1.678-.89 2.74 0 .08-.064.142-.142.142-.66 0-1.223-.207-1.62-.59-.384-.368-.61-.897-.61-1.557 0-.465.12-1.038.435-1.598.25-.448.627-.89 1.166-1.262.455-.313 1.024-.58 1.73-.76h.008z" fill="#ff0000"/></g></svg>